<?xml version="1.0" encoding="UTF-8"?>
<!DOCTYPE svg PUBLIC "-//W3C//DTD SVG 1.1//EN" "http://www.w3.org/Graphics/SVG/1.1/DTD/svg11.dtd">
<svg version="1.2" width="190mm" height="230mm" viewBox="0 0 19000 23000" preserveAspectRatio="xMidYMid" fill-rule="evenodd" stroke-width="28.222" stroke-linejoin="round" xmlns="http://www.w3.org/2000/svg" xmlns:xlink="http://www.w3.org/1999/xlink" xml:space="preserve">
 <g>
  <g>
   <g id="container-id1">
    <g id="id1" clip-path="url(#presentation_clip_path)">
     <g>
      <g>
       <g id="id3">
        <path fill="none" stroke="rgb(17,17,17)" d="M 6033,8064 L 6000,10297 "/>
        <path fill="rgb(17,17,17)" d="M 5996,10588 L 6102,10285 5899,10282 5996,10588 Z "/>
       </g>
      </g>
      <g>
       <g id="id4">
        <path fill="none" stroke="rgb(17,17,17)" d="M 6853,8064 L 8109,10340 "/>
        <path fill="rgb(17,17,17)" d="M 8250,10595 L 8192,10279 8014,10377 8250,10595 Z "/>
       </g>
      </g>
      <g>
       <g id="id5">
        <path fill="rgb(255,153,102)" d="M 7692,2341 L 7692,2342 C 7692,2299 7703,2257 7725,2220 7746,2183 7777,2152 7814,2131 7851,2109 7893,2098 7936,2098 L 9630,2098 9630,2098 C 9673,2098 9715,2109 9752,2131 9789,2152 9820,2183 9841,2220 9863,2257 9874,2299 9874,2342 L 9874,2342 9874,3925 9874,3925 C 9874,3968 9863,4010 9841,4047 9820,4084 9789,4115 9752,4136 9715,4158 9673,4169 9630,4169 L 7935,4169 7936,4169 C 7893,4169 7851,4158 7814,4136 7777,4115 7746,4084 7725,4047 7703,4010 7692,3968 7692,3925 L 7692,2341 Z "/>
        <path fill="none" stroke="rgb(17,17,17)" d="M 7692,2341 L 7692,2342 C 7692,2299 7703,2257 7725,2220 7746,2183 7777,2152 7814,2131 7851,2109 7893,2098 7936,2098 L 9630,2098 9630,2098 C 9673,2098 9715,2109 9752,2131 9789,2152 9820,2183 9841,2220 9863,2257 9874,2299 9874,2342 L 9874,2342 9874,3925 9874,3925 C 9874,3968 9863,4010 9841,4047 9820,4084 9789,4115 9752,4136 9715,4158 9673,4169 9630,4169 L 7935,4169 7936,4169 C 7893,4169 7851,4158 7814,4136 7777,4115 7746,4084 7725,4047 7703,4010 7692,3968 7692,3925 L 7692,2341 Z "/>
        <text><tspan><tspan x="8192" y="2709"><tspan font-family="sans-serif" font-size="318px" font-weight="400" fill="rgb(0,0,0)" style="white-space: pre">Original </tspan></tspan></tspan><tspan><tspan x="8350" y="3065"><tspan font-family="sans-serif" font-size="318px" font-weight="400" fill="rgb(0,0,0)" style="white-space: pre">notes </tspan></tspan></tspan><tspan><tspan x="8006" y="3421"><tspan font-family="sans-serif" font-size="318px" font-weight="400" fill="rgb(0,0,0)" style="white-space: pre">of Matthew</tspan></tspan></tspan><tspan><tspan x="8606" y="3777"><tspan font-family="sans-serif" font-size="318px" font-weight="400" fill="rgb(0,0,0)" style="white-space: pre">30</tspan></tspan></tspan></text>
       </g>
      </g>
      <g>
       <g id="id6">
        <path fill="rgb(255,153,102)" d="M 11808,11667 L 11808,11668 C 11808,11630 11818,11594 11836,11562 11855,11530 11882,11503 11914,11484 11946,11466 11982,11456 12020,11456 L 13891,11456 13891,11456 C 13929,11456 13965,11466 13997,11484 14029,11503 14056,11530 14075,11562 14093,11594 14103,11630 14103,11668 L 14103,11668 14103,13043 14103,13043 C 14103,13081 14093,13117 14075,13149 14056,13181 14029,13208 13997,13227 13965,13245 13929,13255 13891,13255 L 12019,13255 12020,13255 C 11982,13255 11946,13245 11914,13227 11882,13208 11855,13181 11836,13149 11818,13117 11808,13081 11808,13043 L 11808,11667 Z "/>
        <path fill="none" stroke="rgb(17,17,17)" d="M 11808,11667 L 11808,11668 C 11808,11630 11818,11594 11836,11562 11855,11530 11882,11503 11914,11484 11946,11466 11982,11456 12020,11456 L 13891,11456 13891,11456 C 13929,11456 13965,11466 13997,11484 14029,11503 14056,11530 14075,11562 14093,11594 14103,11630 14103,11668 L 14103,11668 14103,13043 14103,13043 C 14103,13081 14093,13117 14075,13149 14056,13181 14029,13208 13997,13227 13965,13245 13929,13255 13891,13255 L 12019,13255 12020,13255 C 11982,13255 11946,13245 11914,13227 11882,13208 11855,13181 11836,13149 11818,13117 11808,13081 11808,13043 L 11808,11667 Z "/>
        <text><tspan><tspan x="12408" y="12109"><tspan font-family="sans-serif" font-size="318px" font-weight="400" fill="rgb(0,0,0)" style="white-space: pre">Gospel </tspan></tspan></tspan><tspan><tspan x="12399" y="12465"><tspan font-family="sans-serif" font-size="318px" font-weight="400" fill="rgb(0,0,0)" style="white-space: pre">by Luke</tspan></tspan></tspan><tspan><tspan x="12779" y="12821"><tspan font-family="sans-serif" font-size="318px" font-weight="400" fill="rgb(0,0,0)" style="white-space: pre">82</tspan></tspan></tspan></text>
       </g>
      </g>
      <g>
       <g id="id7">
        <path fill="none" stroke="rgb(17,17,17)" d="M 4133,8092 L 11782,11260 "/>
        <path fill="rgb(17,17,17)" d="M 12051,11371 L 11809,11161 11731,11348 12051,11371 Z "/>
       </g>
      </g>
      <g>
       <g id="id8">
        <path fill="none" stroke="rgb(17,17,17)" d="M 9945,11510 L 11539,12171 "/>
        <path fill="rgb(17,17,17)" d="M 11808,12283 L 11566,12073 11488,12260 11808,12283 Z "/>
       </g>
      </g>
      <g>
       <g id="id9">
        <path fill="none" stroke="rgb(17,17,17)" d="M 11808,13084 L 3972,15010 "/>
        <path fill="rgb(17,17,17)" d="M 3689,15079 L 4009,15105 3960,14908 3689,15079 Z "/>
       </g>
      </g>
      <g>
       <g id="id10">
        <path fill="rgb(255,153,102)" d="M 15036,9959 L 15036,9960 C 15036,9922 15046,9886 15064,9854 15083,9822 15110,9795 15142,9776 15174,9758 15210,9748 15248,9748 L 16667,9748 16667,9748 C 16705,9748 16741,9758 16773,9776 16805,9795 16832,9822 16851,9854 16869,9886 16879,9922 16879,9960 L 16879,9960 16879,11335 16879,11335 C 16879,11373 16869,11409 16851,11441 16832,11473 16805,11500 16773,11519 16741,11537 16705,11547 16667,11547 L 15247,11547 15248,11547 C 15210,11547 15174,11537 15142,11519 15110,11500 15083,11473 15064,11441 15046,11409 15036,11373 15036,11335 L 15036,9959 Z "/>
        <path fill="none" stroke="rgb(17,17,17)" d="M 15036,9959 L 15036,9960 C 15036,9922 15046,9886 15064,9854 15083,9822 15110,9795 15142,9776 15174,9758 15210,9748 15248,9748 L 16667,9748 16667,9748 C 16705,9748 16741,9758 16773,9776 16805,9795 16832,9822 16851,9854 16869,9886 16879,9922 16879,9960 L 16879,9960 16879,11335 16879,11335 C 16879,11373 16869,11409 16851,11441 16832,11473 16805,11500 16773,11519 16741,11537 16705,11547 16667,11547 L 15247,11547 15248,11547 C 15210,11547 15174,11537 15142,11519 15110,11500 15083,11473 15064,11441 15046,11409 15036,11373 15036,11335 L 15036,9959 Z "/>
        <text><tspan><tspan x="15543" y="10579"><tspan font-family="sans-serif" font-size="318px" font-weight="400" fill="rgb(0,0,0)" style="white-space: pre">Notes</tspan></tspan></tspan><tspan><tspan x="15210" y="10935"><tspan font-family="sans-serif" font-size="318px" font-weight="400" fill="rgb(0,0,0)" style="white-space: pre">of Thomas</tspan></tspan></tspan></text>
       </g>
      </g>
      <g>
       <g id="id11">
        <path fill="rgb(255,153,102)" d="M 2211,10896 L 2211,10897 C 2211,10854 2222,10812 2244,10775 2265,10738 2296,10707 2333,10686 2370,10664 2412,10653 2455,10653 L 4075,10653 4075,10653 C 4118,10653 4160,10664 4197,10686 4234,10707 4265,10738 4286,10775 4308,10812 4319,10854 4319,10897 L 4319,10897 4319,12480 4319,12480 C 4319,12523 4308,12565 4286,12602 4265,12639 4234,12670 4197,12691 4160,12713 4118,12724 4075,12724 L 2454,12724 2455,12724 C 2412,12724 2370,12713 2333,12691 2296,12670 2265,12639 2244,12602 2222,12565 2211,12523 2211,12480 L 2211,10896 Z "/>
        <path fill="none" stroke="rgb(17,17,17)" d="M 2211,10896 L 2211,10897 C 2211,10854 2222,10812 2244,10775 2265,10738 2296,10707 2333,10686 2370,10664 2412,10653 2455,10653 L 4075,10653 4075,10653 C 4118,10653 4160,10664 4197,10686 4234,10707 4265,10738 4286,10775 4308,10812 4319,10854 4319,10897 L 4319,10897 4319,12480 4319,12480 C 4319,12523 4308,12565 4286,12602 4265,12639 4234,12670 4197,12691 4160,12713 4118,12724 4075,12724 L 2454,12724 2455,12724 C 2412,12724 2370,12713 2333,12691 2296,12670 2265,12639 2244,12602 2222,12565 2211,12523 2211,12480 L 2211,10896 Z "/>
        <text><tspan><tspan x="2718" y="11442"><tspan font-family="sans-serif" font-size="318px" font-weight="400" fill="rgb(0,0,0)" style="white-space: pre">Gospel </tspan></tspan></tspan><tspan><tspan x="2559" y="11798"><tspan font-family="sans-serif" font-size="318px" font-weight="400" fill="rgb(0,0,0)" style="white-space: pre">of Andrew</tspan></tspan></tspan><tspan><tspan x="2484" y="12154"><tspan font-family="sans-serif" font-size="318px" font-weight="400" fill="rgb(0,0,0)" style="white-space: pre">= Q source</tspan></tspan></tspan></text>
       </g>
      </g>
      <g>
       <g id="id12">
        <g>
         <defs>
          <pattern id="pattern1" x="4746" y="10543" width="2779" height="2215" patternUnits="userSpaceOnUse">
           <g transform="translate(-4746,-10543)">
            <line fill="rgb(255,153,102)" stroke="rgb(255,153,102)" x1="4826" y1="10616" x2="4826" y2="12684"/>
            <line fill="rgb(255,153,102)" stroke="rgb(255,153,102)" x1="4932" y1="10554" x2="4932" y2="12746"/>
            <line fill="rgb(255,153,102)" stroke="rgb(255,153,102)" x1="5038" y1="10543" x2="5038" y2="12757"/>
            <line fill="rgb(255,153,102)" stroke="rgb(255,153,102)" x1="5144" y1="10543" x2="5144" y2="12757"/>
            <line fill="rgb(255,153,102)" stroke="rgb(255,153,102)" x1="5250" y1="10543" x2="5250" y2="12757"/>
            <line fill="rgb(255,153,102)" stroke="rgb(255,153,102)" x1="5356" y1="10543" x2="5356" y2="12757"/>
            <line fill="rgb(255,153,102)" stroke="rgb(255,153,102)" x1="5462" y1="10543" x2="5462" y2="12757"/>
            <line fill="rgb(255,153,102)" stroke="rgb(255,153,102)" x1="5568" y1="10543" x2="5568" y2="12757"/>
            <line fill="rgb(255,153,102)" stroke="rgb(255,153,102)" x1="5674" y1="10543" x2="5674" y2="12757"/>
            <line fill="rgb(255,153,102)" stroke="rgb(255,153,102)" x1="5780" y1="10543" x2="5780" y2="12757"/>
            <line fill="rgb(255,153,102)" stroke="rgb(255,153,102)" x1="5886" y1="10543" x2="5886" y2="12757"/>
            <line fill="rgb(255,153,102)" stroke="rgb(255,153,102)" x1="5992" y1="10543" x2="5992" y2="12757"/>
            <line fill="rgb(255,153,102)" stroke="rgb(255,153,102)" x1="6098" y1="10543" x2="6098" y2="12757"/>
            <line fill="rgb(255,153,102)" stroke="rgb(255,153,102)" x1="6204" y1="10543" x2="6204" y2="12757"/>
            <line fill="rgb(255,153,102)" stroke="rgb(255,153,102)" x1="6310" y1="10543" x2="6310" y2="12757"/>
            <line fill="rgb(255,153,102)" stroke="rgb(255,153,102)" x1="6416" y1="10543" x2="6416" y2="12757"/>
            <line fill="rgb(255,153,102)" stroke="rgb(255,153,102)" x1="6522" y1="10543" x2="6522" y2="12757"/>
            <line fill="rgb(255,153,102)" stroke="rgb(255,153,102)" x1="6628" y1="10543" x2="6628" y2="12757"/>
            <line fill="rgb(255,153,102)" stroke="rgb(255,153,102)" x1="6734" y1="10543" x2="6734" y2="12757"/>
            <line fill="rgb(255,153,102)" stroke="rgb(255,153,102)" x1="6840" y1="10543" x2="6840" y2="12757"/>
            <line fill="rgb(255,153,102)" stroke="rgb(255,153,102)" x1="6946" y1="10543" x2="6946" y2="12757"/>
            <line fill="rgb(255,153,102)" stroke="rgb(255,153,102)" x1="7052" y1="10543" x2="7052" y2="12757"/>
            <line fill="rgb(255,153,102)" stroke="rgb(255,153,102)" x1="7158" y1="10543" x2="7158" y2="12757"/>
            <line fill="rgb(255,153,102)" stroke="rgb(255,153,102)" x1="7264" y1="10543" x2="7264" y2="12757"/>
            <line fill="rgb(255,153,102)" stroke="rgb(255,153,102)" x1="7370" y1="10566" x2="7370" y2="12734"/>
            <line fill="rgb(255,153,102)" stroke="rgb(255,153,102)" x1="7476" y1="10653" x2="7476" y2="12647"/>
           </g>
          </pattern>
         </defs>
         <path style="fill:url(#pattern1)" d="M 4746,10803 L 4746,10803 4747,10786 4748,10769 4751,10753 4755,10736 4760,10720 4766,10704 4773,10688 4781,10673 4790,10659 4800,10645 4811,10632 4822,10619 4835,10608 4848,10597 4862,10587 4876,10578 4891,10570 4907,10563 4923,10557 4939,10552 4956,10548 4972,10545 4989,10544 5006,10543 7263,10543 7264,10543 7281,10544 7298,10545 7314,10548 7331,10552 7347,10557 7363,10563 7379,10570 7394,10578 7408,10587 7422,10597 7435,10608 7448,10619 7459,10632 7470,10645 7480,10659 7489,10673 7497,10688 7504,10704 7510,10720 7515,10736 7519,10753 7522,10769 7523,10786 7524,10803 7524,10803 7524,12496 7524,12497 7523,12514 7522,12531 7519,12547 7515,12564 7510,12580 7504,12596 7497,12612 7489,12627 7480,12641 7470,12655 7459,12668 7448,12681 7435,12692 7422,12703 7408,12713 7394,12722 7379,12730 7363,12737 7347,12743 7331,12748 7314,12752 7298,12755 7281,12756 7264,12757 5006,12757 5006,12757 4989,12756 4972,12755 4956,12752 4939,12748 4923,12743 4907,12737 4891,12730 4876,12722 4862,12713 4848,12703 4835,12692 4822,12681 4811,12668 4800,12655 4790,12641 4781,12627 4773,12612 4766,12596 4760,12580 4755,12564 4751,12547 4748,12531 4747,12514 4746,12497 4746,10803 Z "/>
        </g>
        <path fill="none" stroke="rgb(17,17,17)" d="M 4746,10803 L 4746,10803 C 4746,10758 4758,10713 4781,10673 4804,10634 4837,10601 4876,10578 4916,10555 4961,10543 5006,10543 L 7263,10543 7264,10543 C 7309,10543 7354,10555 7394,10578 7433,10601 7466,10634 7489,10673 7512,10713 7524,10758 7524,10803 L 7524,10803 7524,12496 7524,12497 C 7524,12542 7512,12587 7489,12627 7466,12666 7433,12699 7394,12722 7354,12745 7309,12757 7264,12757 L 5006,12757 5006,12757 C 4961,12757 4916,12745 4876,12722 4837,12699 4804,12666 4781,12627 4758,12587 4746,12542 4746,12497 L 4746,10803 Z "/>
        <text><tspan><tspan x="5509" y="11048"><tspan font-family="sans-serif" font-size="318px" font-weight="400" fill="rgb(0,0,0)" style="white-space: pre">Gospels </tspan></tspan></tspan><tspan><tspan x="5438" y="11404"><tspan font-family="sans-serif" font-size="318px" font-weight="400" fill="rgb(0,0,0)" style="white-space: pre">based on </tspan></tspan></tspan><tspan><tspan x="5782" y="11760"><tspan font-family="sans-serif" font-size="318px" font-weight="400" fill="rgb(0,0,0)" style="white-space: pre">Mark</tspan></tspan></tspan><tspan><tspan x="5028" y="12116"><tspan font-family="sans-serif" font-size="318px" font-weight="400" fill="rgb(0,0,0)" style="white-space: pre">= Secret gospel</tspan></tspan></tspan><tspan><tspan x="5606" y="12472"><tspan font-family="sans-serif" font-size="318px" font-weight="400" fill="rgb(0,0,0)" style="white-space: pre">of Mark</tspan></tspan></tspan></text>
       </g>
      </g>
      <g>
       <g id="id13">
        <path fill="none" stroke="rgb(17,17,17)" d="M 2697,16035 L 2649,17772 "/>
        <path fill="rgb(17,17,17)" d="M 2641,18063 L 2751,17761 2548,17756 2641,18063 Z "/>
       </g>
      </g>
      <g>
       <g id="id14">
        <path fill="none" stroke="rgb(17,17,17)" d="M 14360,16343 L 7730,18098 "/>
        <path fill="rgb(17,17,17)" d="M 7449,18172 L 7769,18192 7717,17996 7449,18172 Z "/>
       </g>
      </g>
      <g>
       <g id="id15">
        <path fill="none" stroke="rgb(17,17,17)" d="M 14360,16846 L 10557,18082 "/>
        <path fill="rgb(17,17,17)" d="M 10280,18172 L 10601,18174 10538,17981 10280,18172 Z "/>
       </g>
      </g>
      <g>
       <g id="id16">
        <path fill="none" stroke="rgb(17,17,17)" d="M 14361,17312 L 13440,17999 "/>
        <path fill="rgb(17,17,17)" d="M 13207,18173 L 13512,18072 13390,17910 13207,18173 Z "/>
       </g>
      </g>
      <g>
       <g id="id17">
        <path fill="rgb(255,153,102)" d="M 1992,6266 L 1992,6267 C 1992,6224 2003,6182 2025,6145 2046,6108 2077,6077 2114,6056 2151,6034 2193,6023 2236,6023 L 3985,6023 3985,6023 C 4028,6023 4070,6034 4107,6056 4144,6077 4175,6108 4196,6145 4218,6182 4229,6224 4229,6267 L 4229,6267 4229,7850 4229,7850 C 4229,7893 4218,7935 4196,7972 4175,8009 4144,8040 4107,8061 4070,8083 4028,8094 3985,8094 L 2235,8094 2236,8094 C 2193,8094 2151,8083 2114,8061 2077,8040 2046,8009 2025,7972 2003,7935 1992,7893 1992,7850 L 1992,6266 Z "/>
        <path fill="none" stroke="rgb(17,17,17)" d="M 1992,6266 L 1992,6267 C 1992,6224 2003,6182 2025,6145 2046,6108 2077,6077 2114,6056 2151,6034 2193,6023 2236,6023 L 3985,6023 3985,6023 C 4028,6023 4070,6034 4107,6056 4144,6077 4175,6108 4196,6145 4218,6182 4229,6224 4229,6267 L 4229,6267 4229,7850 4229,7850 C 4229,7893 4218,7935 4196,7972 4175,8009 4144,8040 4107,8061 4070,8083 4028,8094 3985,8094 L 2235,8094 2236,8094 C 2193,8094 2151,8083 2114,8061 2077,8040 2046,8009 2025,7972 2003,7935 1992,7893 1992,7850 L 1992,6266 Z "/>
        <text><tspan><tspan x="2466" y="6634"><tspan font-family="sans-serif" font-size="318px" font-weight="400" fill="rgb(0,0,0)" style="white-space: pre">Modified </tspan></tspan></tspan><tspan><tspan x="2722" y="6990"><tspan font-family="sans-serif" font-size="318px" font-weight="400" fill="rgb(0,0,0)" style="white-space: pre">notes</tspan></tspan></tspan><tspan><tspan x="2360" y="7346"><tspan font-family="sans-serif" font-size="318px" font-weight="400" fill="rgb(0,0,0)" style="white-space: pre"> of Andrew</tspan></tspan></tspan><tspan><tspan x="2329" y="7702"><tspan font-family="sans-serif" font-size="318px" font-weight="400" fill="rgb(0,0,0)" style="white-space: pre">= Q source</tspan></tspan></tspan></text>
       </g>
      </g>
      <g>
       <g id="id18">
        <path fill="rgb(255,153,102)" d="M 2194,2402 L 2194,2402 C 2194,2362 2205,2322 2225,2287 2245,2252 2274,2223 2309,2203 2344,2183 2384,2172 2424,2172 L 3921,2172 3922,2172 C 3962,2172 4002,2183 4037,2203 4072,2223 4101,2252 4121,2287 4141,2322 4152,2362 4152,2402 L 4152,2402 4152,4012 4152,4013 C 4152,4053 4141,4093 4121,4128 4101,4163 4072,4192 4037,4212 4002,4232 3962,4243 3922,4243 L 2424,4243 2424,4243 C 2384,4243 2344,4232 2309,4212 2274,4192 2245,4163 2225,4128 2205,4093 2194,4053 2194,4013 L 2194,2402 Z "/>
        <path fill="none" stroke="rgb(17,17,17)" d="M 2194,2402 L 2194,2402 C 2194,2362 2205,2322 2225,2287 2245,2252 2274,2223 2309,2203 2344,2183 2384,2172 2424,2172 L 3921,2172 3922,2172 C 3962,2172 4002,2183 4037,2203 4072,2223 4101,2252 4121,2287 4141,2322 4152,2362 4152,2402 L 4152,2402 4152,4012 4152,4013 C 4152,4053 4141,4093 4121,4128 4101,4163 4072,4192 4037,4212 4002,4232 3962,4243 3922,4243 L 2424,4243 2424,4243 C 2384,4243 2344,4232 2309,4212 2274,4192 2245,4163 2225,4128 2205,4093 2194,4053 2194,4013 L 2194,2402 Z "/>
        <text><tspan><tspan x="2714" y="2961"><tspan font-family="sans-serif" font-size="318px" font-weight="400" fill="rgb(0,0,0)" style="white-space: pre">Notes </tspan></tspan></tspan><tspan><tspan x="2467" y="3317"><tspan font-family="sans-serif" font-size="318px" font-weight="400" fill="rgb(0,0,0)" style="white-space: pre">of Andrew</tspan></tspan></tspan><tspan><tspan x="2996" y="3673"><tspan font-family="sans-serif" font-size="318px" font-weight="400" fill="rgb(0,0,0)" style="white-space: pre">30</tspan></tspan></tspan></text>
       </g>
      </g>
      <g>
       <g id="id19">
        <path fill="rgb(255,153,102)" d="M 4841,6238 L 4841,6239 C 4841,6196 4852,6154 4874,6117 4895,6080 4926,6049 4963,6028 5000,6006 5042,5995 5085,5995 L 6703,5995 6703,5995 C 6746,5995 6788,6006 6825,6028 6862,6049 6893,6080 6914,6117 6936,6154 6947,6196 6947,6239 L 6947,6239 6947,7822 6947,7822 C 6947,7865 6936,7907 6914,7944 6893,7981 6862,8012 6825,8033 6788,8055 6746,8066 6703,8066 L 5084,8066 5085,8066 C 5042,8066 5000,8055 4963,8033 4926,8012 4895,7981 4874,7944 4852,7907 4841,7865 4841,7822 L 4841,6238 Z "/>
        <path fill="none" stroke="rgb(17,17,17)" d="M 4841,6238 L 4841,6239 C 4841,6196 4852,6154 4874,6117 4895,6080 4926,6049 4963,6028 5000,6006 5042,5995 5085,5995 L 6703,5995 6703,5995 C 6746,5995 6788,6006 6825,6028 6862,6049 6893,6080 6914,6117 6936,6154 6947,6196 6947,6239 L 6947,6239 6947,7822 6947,7822 C 6947,7865 6936,7907 6914,7944 6893,7981 6862,8012 6825,8033 6788,8055 6746,8066 6703,8066 L 5084,8066 5085,8066 C 5042,8066 5000,8055 4963,8033 4926,8012 4895,7981 4874,7944 4852,7907 4841,7865 4841,7822 L 4841,6238 Z "/>
        <text><tspan><tspan x="5303" y="6606"><tspan font-family="sans-serif" font-size="318px" font-weight="400" fill="rgb(0,0,0)" style="white-space: pre">Original </tspan></tspan></tspan><tspan><tspan x="5382" y="6962"><tspan font-family="sans-serif" font-size="318px" font-weight="400" fill="rgb(0,0,0)" style="white-space: pre">gospel </tspan></tspan></tspan><tspan><tspan x="5329" y="7318"><tspan font-family="sans-serif" font-size="318px" font-weight="400" fill="rgb(0,0,0)" style="white-space: pre">by Mark</tspan></tspan></tspan><tspan><tspan x="5488" y="7674"><tspan font-family="sans-serif" font-size="318px" font-weight="400" fill="rgb(0,0,0)" style="white-space: pre">67-68</tspan></tspan></tspan></text>
       </g>
      </g>
      <g>
       <g id="id20">
        <g>
         <defs>
          <pattern id="pattern2" x="10373" y="4887" width="2779" height="2532" patternUnits="userSpaceOnUse">
           <g transform="translate(-10373,-4887)">
            <line fill="rgb(255,153,102)" stroke="rgb(255,153,102)" x1="10453" y1="4982" x2="10453" y2="7323"/>
            <line fill="rgb(255,153,102)" stroke="rgb(255,153,102)" x1="10559" y1="4909" x2="10559" y2="7396"/>
            <line fill="rgb(255,153,102)" stroke="rgb(255,153,102)" x1="10665" y1="4887" x2="10665" y2="7418"/>
            <line fill="rgb(255,153,102)" stroke="rgb(255,153,102)" x1="10771" y1="4887" x2="10771" y2="7418"/>
            <line fill="rgb(255,153,102)" stroke="rgb(255,153,102)" x1="10877" y1="4887" x2="10877" y2="7418"/>
            <line fill="rgb(255,153,102)" stroke="rgb(255,153,102)" x1="10983" y1="4887" x2="10983" y2="7418"/>
            <line fill="rgb(255,153,102)" stroke="rgb(255,153,102)" x1="11089" y1="4887" x2="11089" y2="7418"/>
            <line fill="rgb(255,153,102)" stroke="rgb(255,153,102)" x1="11195" y1="4887" x2="11195" y2="7418"/>
            <line fill="rgb(255,153,102)" stroke="rgb(255,153,102)" x1="11301" y1="4887" x2="11301" y2="7418"/>
            <line fill="rgb(255,153,102)" stroke="rgb(255,153,102)" x1="11407" y1="4887" x2="11407" y2="7418"/>
            <line fill="rgb(255,153,102)" stroke="rgb(255,153,102)" x1="11513" y1="4887" x2="11513" y2="7418"/>
            <line fill="rgb(255,153,102)" stroke="rgb(255,153,102)" x1="11619" y1="4887" x2="11619" y2="7418"/>
            <line fill="rgb(255,153,102)" stroke="rgb(255,153,102)" x1="11725" y1="4887" x2="11725" y2="7418"/>
            <line fill="rgb(255,153,102)" stroke="rgb(255,153,102)" x1="11831" y1="4887" x2="11831" y2="7418"/>
            <line fill="rgb(255,153,102)" stroke="rgb(255,153,102)" x1="11937" y1="4887" x2="11937" y2="7418"/>
            <line fill="rgb(255,153,102)" stroke="rgb(255,153,102)" x1="12043" y1="4887" x2="12043" y2="7418"/>
            <line fill="rgb(255,153,102)" stroke="rgb(255,153,102)" x1="12149" y1="4887" x2="12149" y2="7418"/>
            <line fill="rgb(255,153,102)" stroke="rgb(255,153,102)" x1="12255" y1="4887" x2="12255" y2="7418"/>
            <line fill="rgb(255,153,102)" stroke="rgb(255,153,102)" x1="12361" y1="4887" x2="12361" y2="7418"/>
            <line fill="rgb(255,153,102)" stroke="rgb(255,153,102)" x1="12467" y1="4887" x2="12467" y2="7418"/>
            <line fill="rgb(255,153,102)" stroke="rgb(255,153,102)" x1="12573" y1="4887" x2="12573" y2="7418"/>
            <line fill="rgb(255,153,102)" stroke="rgb(255,153,102)" x1="12679" y1="4887" x2="12679" y2="7418"/>
            <line fill="rgb(255,153,102)" stroke="rgb(255,153,102)" x1="12785" y1="4887" x2="12785" y2="7418"/>
            <line fill="rgb(255,153,102)" stroke="rgb(255,153,102)" x1="12891" y1="4890" x2="12891" y2="7415"/>
            <line fill="rgb(255,153,102)" stroke="rgb(255,153,102)" x1="12997" y1="4924" x2="12997" y2="7381"/>
            <line fill="rgb(255,153,102)" stroke="rgb(255,153,102)" x1="13103" y1="5022" x2="13103" y2="7283"/>
           </g>
          </pattern>
         </defs>
         <path style="fill:url(#pattern2)" d="M 10373,5184 L 10373,5185 10374,5165 10376,5146 10379,5127 10383,5108 10389,5089 10396,5071 10404,5053 10413,5036 10423,5019 10435,5003 10447,4988 10460,4974 10474,4961 10489,4949 10505,4937 10522,4927 10539,4918 10557,4910 10575,4903 10594,4897 10613,4893 10632,4890 10651,4888 10671,4887 12853,4887 12853,4887 12873,4888 12892,4890 12911,4893 12930,4897 12949,4903 12967,4910 12985,4918 13002,4927 13019,4937 13035,4949 13050,4961 13064,4974 13077,4988 13089,5003 13101,5019 13111,5036 13120,5053 13128,5071 13135,5089 13141,5108 13145,5127 13148,5146 13150,5165 13151,5185 13151,5185 13151,7120 13151,7120 13150,7140 13148,7159 13145,7178 13141,7197 13135,7216 13128,7234 13120,7252 13111,7269 13101,7286 13089,7302 13077,7317 13064,7331 13050,7344 13035,7356 13019,7368 13002,7378 12985,7387 12967,7395 12949,7402 12930,7408 12911,7412 12892,7415 12873,7417 12853,7418 10670,7418 10671,7418 10651,7417 10632,7415 10613,7412 10594,7408 10575,7402 10557,7395 10539,7387 10522,7378 10505,7368 10489,7356 10474,7344 10460,7331 10447,7317 10435,7302 10423,7286 10413,7269 10404,7252 10396,7234 10389,7216 10383,7197 10379,7178 10376,7159 10374,7140 10373,7120 10373,5184 Z "/>
        </g>
        <path fill="none" stroke="rgb(17,17,17)" d="M 10373,5184 L 10373,5185 C 10373,5132 10387,5081 10413,5036 10439,4991 10477,4953 10522,4927 10567,4901 10618,4887 10671,4887 L 12853,4887 12853,4887 C 12906,4887 12957,4901 13002,4927 13047,4953 13085,4991 13111,5036 13137,5081 13151,5132 13151,5185 L 13151,5185 13151,7120 13151,7120 C 13151,7173 13137,7224 13111,7269 13085,7314 13047,7352 13002,7378 12957,7404 12906,7418 12853,7418 L 10670,7418 10671,7418 C 10618,7418 10567,7404 10522,7378 10477,7352 10439,7314 10413,7269 10387,7224 10373,7173 10373,7120 L 10373,5184 Z "/>
        <text><tspan><tspan x="11215" y="5372"><tspan font-family="sans-serif" font-size="318px" font-weight="400" fill="rgb(0,0,0)" style="white-space: pre">Gospel </tspan></tspan></tspan><tspan><tspan x="10941" y="5728"><tspan font-family="sans-serif" font-size="318px" font-weight="400" fill="rgb(0,0,0)" style="white-space: pre">of Matthew </tspan></tspan></tspan><tspan><tspan x="10968" y="6084"><tspan font-family="sans-serif" font-size="318px" font-weight="400" fill="rgb(0,0,0)" style="white-space: pre">In Aramaic </tspan></tspan></tspan><tspan><tspan x="10901" y="6440"><tspan font-family="sans-serif" font-size="318px" font-weight="400" fill="rgb(0,0,0)" style="white-space: pre">= Gospel of </tspan></tspan></tspan><tspan><tspan x="10826" y="6796"><tspan font-family="sans-serif" font-size="318px" font-weight="400" fill="rgb(0,0,0)" style="white-space: pre">the Hebrews </tspan></tspan></tspan><tspan><tspan x="11585" y="7152"><tspan font-family="sans-serif" font-size="318px" font-weight="400" fill="rgb(0,0,0)" style="white-space: pre">40</tspan></tspan></tspan></text>
       </g>
      </g>
      <g>
       <g id="id21">
        <path fill="rgb(148,189,94)" d="M 8902,18401 L 8902,18401 C 8902,18362 8912,18324 8932,18291 8951,18257 8979,18229 9013,18210 9046,18190 9084,18180 9123,18180 L 10562,18180 10563,18180 C 10602,18180 10640,18190 10673,18210 10707,18229 10735,18257 10754,18291 10774,18324 10784,18362 10784,18401 L 10784,18401 10784,20029 10784,20030 C 10784,20069 10774,20107 10754,20140 10735,20174 10707,20202 10673,20221 10640,20241 10602,20251 10563,20251 L 9123,20251 9123,20251 C 9084,20251 9046,20241 9013,20221 8979,20202 8951,20174 8932,20140 8912,20107 8902,20069 8902,20030 L 8902,18401 Z "/>
        <path fill="none" stroke="rgb(17,17,17)" d="M 8902,18401 L 8902,18401 C 8902,18362 8912,18324 8932,18291 8951,18257 8979,18229 9013,18210 9046,18190 9084,18180 9123,18180 L 10562,18180 10563,18180 C 10602,18180 10640,18190 10673,18210 10707,18229 10735,18257 10754,18291 10774,18324 10784,18362 10784,18401 L 10784,18401 10784,20029 10784,20030 C 10784,20069 10774,20107 10754,20140 10735,20174 10707,20202 10673,20221 10640,20241 10602,20251 10563,20251 L 9123,20251 9123,20251 C 9084,20251 9046,20241 9013,20221 8979,20202 8951,20174 8932,20140 8912,20107 8902,20069 8902,20030 L 8902,18401 Z "/>
        <text><tspan><tspan x="9269" y="18969"><tspan font-family="sans-serif" font-size="318px" font-weight="400" fill="rgb(0,0,0)" style="white-space: pre">Current </tspan></tspan></tspan><tspan><tspan x="9375" y="19325"><tspan font-family="sans-serif" font-size="318px" font-weight="400" fill="rgb(0,0,0)" style="white-space: pre">gospel</tspan></tspan></tspan><tspan><tspan x="9066" y="19681"><tspan font-family="sans-serif" font-size="318px" font-weight="400" fill="rgb(0,0,0)" style="white-space: pre">of Matthew</tspan></tspan></tspan></text>
       </g>
      </g>
      <g>
       <g id="id22">
        <path fill="rgb(255,153,102)" d="M 14360,15740 L 14360,15740 C 14360,15700 14370,15661 14390,15627 14410,15593 14439,15564 14473,15544 14507,15524 14546,15514 14586,15514 L 16056,15514 16057,15514 C 16097,15514 16136,15524 16170,15544 16204,15564 16233,15593 16253,15627 16273,15661 16283,15700 16283,15740 L 16283,15740 16283,17358 16283,17359 C 16283,17399 16273,17438 16253,17472 16233,17506 16204,17535 16170,17555 16136,17575 16097,17585 16057,17585 L 14586,17585 14586,17585 C 14546,17585 14507,17575 14473,17555 14439,17535 14410,17506 14390,17472 14370,17438 14360,17399 14360,17359 L 14360,15740 Z "/>
        <path fill="none" stroke="rgb(17,17,17)" d="M 14360,15740 L 14360,15740 C 14360,15700 14370,15661 14390,15627 14410,15593 14439,15564 14473,15544 14507,15524 14546,15514 14586,15514 L 16056,15514 16057,15514 C 16097,15514 16136,15524 16170,15544 16204,15564 16233,15593 16253,15627 16273,15661 16283,15700 16283,15740 L 16283,15740 16283,17358 16283,17359 C 16283,17399 16273,17438 16253,17472 16233,17506 16204,17535 16170,17555 16136,17575 16097,17585 16057,17585 L 14586,17585 14586,17585 C 14546,17585 14507,17575 14473,17555 14439,17535 14410,17506 14390,17472 14370,17438 14360,17399 14360,17359 L 14360,15740 Z "/>
        <text><tspan><tspan x="14465" y="16125"><tspan font-family="sans-serif" font-size="318px" font-weight="400" fill="rgb(0,0,0)" style="white-space: pre">Apocalyptic </tspan></tspan></tspan><tspan><tspan x="15021" y="16481"><tspan font-family="sans-serif" font-size="318px" font-weight="400" fill="rgb(0,0,0)" style="white-space: pre">text </tspan></tspan></tspan><tspan><tspan x="14748" y="16837"><tspan font-family="sans-serif" font-size="318px" font-weight="400" fill="rgb(0,0,0)" style="white-space: pre">by Selta</tspan></tspan></tspan><tspan><tspan x="14492" y="17193"><tspan font-family="sans-serif" font-size="318px" font-weight="400" fill="rgb(0,0,0)" style="white-space: pre">2nd century</tspan></tspan></tspan></text>
       </g>
      </g>
      <g>
       <g id="id23">
        <path fill="rgb(255,153,102)" d="M 7954,10829 L 7954,10829 C 7954,10788 7965,10748 7985,10712 8006,10677 8036,10647 8071,10626 8107,10606 8147,10595 8188,10595 L 9712,10595 9713,10595 C 9754,10595 9794,10606 9830,10626 9865,10647 9895,10677 9916,10712 9936,10748 9947,10788 9947,10829 L 9947,10829 9947,12431 9947,12432 C 9947,12473 9936,12513 9916,12549 9895,12584 9865,12614 9830,12635 9794,12655 9754,12666 9713,12666 L 8188,12666 8188,12666 C 8147,12666 8107,12655 8071,12635 8036,12614 8006,12584 7985,12549 7965,12513 7954,12473 7954,12432 L 7954,10829 Z "/>
        <path fill="none" stroke="rgb(17,17,17)" d="M 7954,10829 L 7954,10829 C 7954,10788 7965,10748 7985,10712 8006,10677 8036,10647 8071,10626 8107,10606 8147,10595 8188,10595 L 9712,10595 9713,10595 C 9754,10595 9794,10606 9830,10626 9865,10647 9895,10677 9916,10712 9936,10748 9947,10788 9947,10829 L 9947,10829 9947,12431 9947,12432 C 9947,12473 9936,12513 9916,12549 9895,12584 9865,12614 9830,12635 9794,12655 9754,12666 9713,12666 L 8188,12666 8188,12666 C 8147,12666 8107,12655 8071,12635 8036,12614 8006,12584 7985,12549 7965,12513 7954,12473 7954,12432 L 7954,10829 Z "/>
        <text><tspan><tspan x="8403" y="11206"><tspan font-family="sans-serif" font-size="318px" font-weight="400" fill="rgb(0,0,0)" style="white-space: pre">Gospel </tspan></tspan></tspan><tspan><tspan x="8130" y="11562"><tspan font-family="sans-serif" font-size="318px" font-weight="400" fill="rgb(0,0,0)" style="white-space: pre">of Matthew </tspan></tspan></tspan><tspan><tspan x="8350" y="11918"><tspan font-family="sans-serif" font-size="318px" font-weight="400" fill="rgb(0,0,0)" style="white-space: pre">in Greek</tspan></tspan></tspan><tspan><tspan x="8774" y="12274"><tspan font-family="sans-serif" font-size="318px" font-weight="400" fill="rgb(0,0,0)" style="white-space: pre">71</tspan></tspan></tspan></text>
       </g>
      </g>
      <g>
       <g id="id24">
        <path fill="rgb(148,189,94)" d="M 5756,18407 L 5756,18407 C 5756,18366 5767,18326 5787,18290 5808,18255 5838,18225 5873,18204 5909,18184 5949,18173 5990,18173 L 7514,18173 7515,18173 C 7556,18173 7596,18184 7632,18204 7667,18225 7697,18255 7718,18290 7738,18326 7749,18366 7749,18407 L 7749,18407 7749,20009 7749,20010 C 7749,20051 7738,20091 7718,20127 7697,20162 7667,20192 7632,20213 7596,20233 7556,20244 7515,20244 L 5990,20244 5990,20244 C 5949,20244 5909,20233 5873,20213 5838,20192 5808,20162 5787,20127 5767,20091 5756,20051 5756,20010 L 5756,18407 Z "/>
        <path fill="none" stroke="rgb(17,17,17)" d="M 5756,18407 L 5756,18407 C 5756,18366 5767,18326 5787,18290 5808,18255 5838,18225 5873,18204 5909,18184 5949,18173 5990,18173 L 7514,18173 7515,18173 C 7556,18173 7596,18184 7632,18204 7667,18225 7697,18255 7718,18290 7738,18326 7749,18366 7749,18407 L 7749,18407 7749,20009 7749,20010 C 7749,20051 7738,20091 7718,20127 7697,20162 7667,20192 7632,20213 7596,20233 7556,20244 7515,20244 L 5990,20244 5990,20244 C 5949,20244 5909,20233 5873,20213 5838,20192 5808,20162 5787,20127 5767,20091 5756,20051 5756,20010 L 5756,18407 Z "/>
        <text><tspan><tspan x="6179" y="18962"><tspan font-family="sans-serif" font-size="318px" font-weight="400" fill="rgb(0,0,0)" style="white-space: pre">Current </tspan></tspan></tspan><tspan><tspan x="6284" y="19318"><tspan font-family="sans-serif" font-size="318px" font-weight="400" fill="rgb(0,0,0)" style="white-space: pre">gospel</tspan></tspan></tspan><tspan><tspan x="6223" y="19674"><tspan font-family="sans-serif" font-size="318px" font-weight="400" fill="rgb(0,0,0)" style="white-space: pre">of Mark</tspan></tspan></tspan></text>
       </g>
      </g>
      <g>
       <g id="id25">
        <path fill="rgb(255,153,102)" d="M 13204,7586 L 13204,7587 C 13204,7550 13214,7513 13232,7481 13251,7449 13277,7423 13309,7404 13341,7386 13378,7376 13415,7376 L 14785,7376 14785,7376 C 14822,7376 14859,7386 14891,7404 14923,7423 14949,7449 14968,7481 14986,7513 14996,7550 14996,7587 L 14996,7587 14996,9236 14996,9236 C 14996,9273 14986,9310 14968,9342 14949,9374 14923,9400 14891,9419 14859,9437 14822,9447 14785,9447 L 13414,9447 13415,9447 C 13378,9447 13341,9437 13309,9419 13277,9400 13251,9374 13232,9342 13214,9310 13204,9273 13204,9236 L 13204,7586 Z "/>
        <path fill="none" stroke="rgb(17,17,17)" d="M 13204,7586 L 13204,7587 C 13204,7550 13214,7513 13232,7481 13251,7449 13277,7423 13309,7404 13341,7386 13378,7376 13415,7376 L 14785,7376 14785,7376 C 14822,7376 14859,7386 14891,7404 14923,7423 14949,7449 14968,7481 14986,7513 14996,7550 14996,7587 L 14996,7587 14996,9236 14996,9236 C 14996,9273 14986,9310 14968,9342 14949,9374 14923,9400 14891,9419 14859,9437 14822,9447 14785,9447 L 13414,9447 13415,9447 C 13378,9447 13341,9437 13309,9419 13277,9400 13251,9374 13232,9342 13214,9310 13204,9273 13204,9236 L 13204,7586 Z "/>
        <text><tspan><tspan x="13544" y="8165"><tspan font-family="sans-serif" font-size="318px" font-weight="400" fill="rgb(0,0,0)" style="white-space: pre">Record </tspan></tspan></tspan><tspan><tspan x="13429" y="8521"><tspan font-family="sans-serif" font-size="318px" font-weight="400" fill="rgb(0,0,0)" style="white-space: pre">by Cedes</tspan></tspan></tspan><tspan><tspan x="13923" y="8877"><tspan font-family="sans-serif" font-size="318px" font-weight="400" fill="rgb(0,0,0)" style="white-space: pre">78</tspan></tspan></tspan></text>
       </g>
      </g>
      <g>
       <g id="id26">
        <path fill="rgb(148,189,94)" d="M 12070,18401 L 12070,18401 C 12070,18361 12081,18322 12101,18287 12121,18252 12149,18224 12184,18204 12219,18184 12258,18173 12298,18173 L 13781,18173 13782,18173 C 13822,18173 13861,18184 13896,18204 13931,18224 13959,18252 13979,18287 13999,18322 14010,18361 14010,18401 L 14010,18401 14010,20015 14010,20016 C 14010,20056 13999,20095 13979,20130 13959,20165 13931,20193 13896,20213 13861,20233 13822,20244 13782,20244 L 12298,20244 12298,20244 C 12258,20244 12219,20233 12184,20213 12149,20193 12121,20165 12101,20130 12081,20095 12070,20056 12070,20016 L 12070,18401 Z "/>
        <path fill="none" stroke="rgb(17,17,17)" d="M 12070,18401 L 12070,18401 C 12070,18361 12081,18322 12101,18287 12121,18252 12149,18224 12184,18204 12219,18184 12258,18173 12298,18173 L 13781,18173 13782,18173 C 13822,18173 13861,18184 13896,18204 13931,18224 13959,18252 13979,18287 13999,18322 14010,18361 14010,18401 L 14010,18401 14010,20015 14010,20016 C 14010,20056 13999,20095 13979,20130 13959,20165 13931,20193 13896,20213 13861,20233 13822,20244 13782,20244 L 12298,20244 12298,20244 C 12258,20244 12219,20233 12184,20213 12149,20193 12121,20165 12101,20130 12081,20095 12070,20056 12070,20016 L 12070,18401 Z "/>
        <text><tspan><tspan x="12466" y="18962"><tspan font-family="sans-serif" font-size="318px" font-weight="400" fill="rgb(0,0,0)" style="white-space: pre">Current </tspan></tspan></tspan><tspan><tspan x="12572" y="19318"><tspan font-family="sans-serif" font-size="318px" font-weight="400" fill="rgb(0,0,0)" style="white-space: pre">gospel</tspan></tspan></tspan><tspan><tspan x="12519" y="19674"><tspan font-family="sans-serif" font-size="318px" font-weight="400" fill="rgb(0,0,0)" style="white-space: pre">of Luke</tspan></tspan></tspan></text>
       </g>
      </g>
      <g>
       <g id="id27">
        <path fill="none" stroke="rgb(17,17,17)" d="M 3145,4241 L 3114,5732 "/>
        <path fill="rgb(17,17,17)" d="M 3108,6023 L 3216,5721 3013,5716 3108,6023 Z "/>
       </g>
      </g>
      <g>
       <g id="id28">
        <path fill="none" stroke="rgb(17,17,17)" d="M 3182,8092 L 3182,10242 "/>
        <path fill="rgb(17,17,17)" d="M 3182,10533 L 3284,10229 3081,10229 3182,10533 Z "/>
       </g>
      </g>
      <g>
       <g id="id29">
        <path fill="none" stroke="rgb(17,17,17)" d="M 8659,4167 L 8677,10222 "/>
        <path fill="rgb(17,17,17)" d="M 8678,10513 L 8779,10208 8576,10209 8678,10513 Z "/>
       </g>
      </g>
      <g>
       <g id="id30">
        <path fill="none" stroke="rgb(17,17,17)" d="M 9088,4167 L 10192,5542 "/>
        <path fill="rgb(17,17,17)" d="M 10374,5769 L 10263,5468 10104,5595 10374,5769 Z "/>
       </g>
      </g>
      <g>
       <g id="id31">
        <path fill="none" stroke="rgb(17,17,17)" d="M 6126,12756 L 6513,17883 "/>
        <path fill="rgb(17,17,17)" d="M 6535,18173 L 6613,17862 6411,17877 6535,18173 Z "/>
       </g>
      </g>
      <g>
       <g id="id32">
        <path fill="none" stroke="rgb(17,17,17)" d="M 6947,7106 L 12619,11283 "/>
        <path fill="rgb(17,17,17)" d="M 12853,11456 L 12668,11194 12548,11357 12853,11456 Z "/>
       </g>
      </g>
      <g>
       <g id="id33">
        <path fill="none" stroke="rgb(17,17,17)" d="M 3853,8092 L 3896,8119 "/>
        <path fill="none" stroke="rgb(17,17,17)" d="M 3940,8146 L 3983,8173 "/>
        <path fill="none" stroke="rgb(17,17,17)" d="M 4026,8200 L 4070,8226 "/>
        <path fill="none" stroke="rgb(17,17,17)" d="M 4113,8253 L 4156,8280 "/>
        <path fill="none" stroke="rgb(17,17,17)" d="M 4200,8307 L 4243,8334 "/>
        <path fill="none" stroke="rgb(17,17,17)" d="M 4286,8361 L 4330,8388 "/>
        <path fill="none" stroke="rgb(17,17,17)" d="M 4373,8415 L 4416,8441 "/>
        <path fill="none" stroke="rgb(17,17,17)" d="M 4460,8468 L 4503,8495 "/>
        <path fill="none" stroke="rgb(17,17,17)" d="M 4546,8522 L 4590,8549 "/>
        <path fill="none" stroke="rgb(17,17,17)" d="M 4633,8576 L 4676,8603 "/>
        <path fill="none" stroke="rgb(17,17,17)" d="M 4720,8630 L 4763,8657 "/>
        <path fill="none" stroke="rgb(17,17,17)" d="M 4806,8683 L 4850,8710 "/>
        <path fill="none" stroke="rgb(17,17,17)" d="M 4893,8737 L 4936,8764 "/>
        <path fill="none" stroke="rgb(17,17,17)" d="M 4980,8791 L 5023,8818 "/>
        <path fill="none" stroke="rgb(17,17,17)" d="M 5066,8845 L 5110,8872 "/>
        <path fill="none" stroke="rgb(17,17,17)" d="M 5153,8899 L 5196,8925 "/>
        <path fill="none" stroke="rgb(17,17,17)" d="M 5240,8952 L 5283,8979 "/>
        <path fill="none" stroke="rgb(17,17,17)" d="M 5327,9006 L 5370,9033 "/>
        <path fill="none" stroke="rgb(17,17,17)" d="M 5413,9060 L 5457,9087 "/>
        <path fill="none" stroke="rgb(17,17,17)" d="M 5500,9114 L 5543,9140 "/>
        <path fill="none" stroke="rgb(17,17,17)" d="M 5587,9167 L 5630,9194 "/>
        <path fill="none" stroke="rgb(17,17,17)" d="M 5673,9221 L 5717,9248 "/>
        <path fill="none" stroke="rgb(17,17,17)" d="M 5760,9275 L 5803,9302 "/>
        <path fill="none" stroke="rgb(17,17,17)" d="M 5847,9329 L 5890,9356 "/>
        <path fill="none" stroke="rgb(17,17,17)" d="M 5933,9382 L 5977,9409 "/>
        <path fill="none" stroke="rgb(17,17,17)" d="M 6020,9436 L 6063,9463 "/>
        <path fill="none" stroke="rgb(17,17,17)" d="M 6107,9490 L 6150,9517 "/>
        <path fill="none" stroke="rgb(17,17,17)" d="M 6193,9544 L 6237,9571 "/>
        <path fill="none" stroke="rgb(17,17,17)" d="M 6280,9598 L 6323,9624 "/>
        <path fill="none" stroke="rgb(17,17,17)" d="M 6367,9651 L 6410,9678 "/>
        <path fill="none" stroke="rgb(17,17,17)" d="M 6453,9705 L 6497,9732 "/>
        <path fill="none" stroke="rgb(17,17,17)" d="M 6540,9759 L 6583,9786 "/>
        <path fill="none" stroke="rgb(17,17,17)" d="M 6627,9813 L 6670,9839 "/>
        <path fill="none" stroke="rgb(17,17,17)" d="M 6713,9866 L 6757,9893 "/>
        <path fill="none" stroke="rgb(17,17,17)" d="M 6800,9920 L 6843,9947 "/>
        <path fill="none" stroke="rgb(17,17,17)" d="M 6887,9974 L 6930,10001 "/>
        <path fill="none" stroke="rgb(17,17,17)" d="M 6973,10028 L 7017,10055 "/>
        <path fill="none" stroke="rgb(17,17,17)" d="M 7060,10081 L 7103,10108 "/>
        <path fill="none" stroke="rgb(17,17,17)" d="M 7147,10135 L 7190,10162 "/>
        <path fill="none" stroke="rgb(17,17,17)" d="M 7233,10189 L 7277,10216 "/>
        <path fill="none" stroke="rgb(17,17,17)" d="M 7320,10243 L 7363,10270 "/>
        <path fill="none" stroke="rgb(17,17,17)" d="M 7407,10297 L 7450,10323 "/>
        <path fill="none" stroke="rgb(17,17,17)" d="M 7493,10350 L 7537,10377 "/>
        <path fill="none" stroke="rgb(17,17,17)" d="M 7580,10404 L 7623,10431 "/>
        <path fill="none" stroke="rgb(17,17,17)" d="M 7667,10458 L 7707,10483 "/>
        <path fill="rgb(17,17,17)" d="M 7954,10636 L 7749,10389 7642,10562 7954,10636 Z "/>
       </g>
      </g>
      <g>
       <g id="id34">
        <path fill="none" stroke="rgb(17,17,17)" d="M 13394,9445 L 13282,11166 "/>
        <path fill="rgb(17,17,17)" d="M 13263,11456 L 13384,11159 13182,11146 13263,11456 Z "/>
       </g>
      </g>
      <g>
       <g id="id35">
        <path fill="none" stroke="rgb(17,17,17)" d="M 8866,12664 L 9819,17887 "/>
        <path fill="rgb(17,17,17)" d="M 9871,18173 L 9916,17855 9717,17892 9871,18173 Z "/>
       </g>
      </g>
      <g>
       <g id="id36">
        <path fill="rgb(255,153,102)" d="M 1749,14194 L 1749,14194 C 1749,14154 1760,14115 1780,14080 1800,14045 1828,14017 1863,13997 1898,13977 1937,13966 1977,13966 L 3460,13966 3461,13966 C 3501,13966 3540,13977 3575,13997 3610,14017 3638,14045 3658,14080 3678,14115 3689,14154 3689,14194 L 3689,14194 3689,15808 3689,15809 C 3689,15849 3678,15888 3658,15923 3638,15958 3610,15986 3575,16006 3540,16026 3501,16037 3461,16037 L 1977,16037 1977,16037 C 1937,16037 1898,16026 1863,16006 1828,15986 1800,15958 1780,15923 1760,15888 1749,15849 1749,15809 L 1749,14194 Z "/>
        <path fill="none" stroke="rgb(17,17,17)" d="M 1749,14194 L 1749,14194 C 1749,14154 1760,14115 1780,14080 1800,14045 1828,14017 1863,13997 1898,13977 1937,13966 1977,13966 L 3460,13966 3461,13966 C 3501,13966 3540,13977 3575,13997 3610,14017 3638,14045 3658,14080 3678,14115 3689,14154 3689,14194 L 3689,14194 3689,15808 3689,15809 C 3689,15849 3678,15888 3658,15923 3638,15958 3610,15986 3575,16006 3540,16026 3501,16037 3461,16037 L 1977,16037 1977,16037 C 1937,16037 1898,16026 1863,16006 1828,15986 1800,15958 1780,15923 1760,15888 1749,15849 1749,15809 L 1749,14194 Z "/>
        <text><tspan><tspan x="2128" y="14577"><tspan font-family="sans-serif" font-size="318px" font-weight="400" fill="rgb(0,0,0)" style="white-space: pre">Original </tspan></tspan></tspan><tspan><tspan x="2207" y="14933"><tspan font-family="sans-serif" font-size="318px" font-weight="400" fill="rgb(0,0,0)" style="white-space: pre">gospel </tspan></tspan></tspan><tspan><tspan x="2198" y="15289"><tspan font-family="sans-serif" font-size="318px" font-weight="400" fill="rgb(0,0,0)" style="white-space: pre">of John</tspan></tspan></tspan><tspan><tspan x="2454" y="15645"><tspan font-family="sans-serif" font-size="318px" font-weight="400" fill="rgb(0,0,0)" style="white-space: pre">101</tspan></tspan></tspan></text>
       </g>
      </g>
      <g>
       <g id="id37">
        <path fill="none" stroke="rgb(17,17,17)" d="M 3108,12722 L 2759,13692 "/>
        <path fill="rgb(17,17,17)" d="M 2660,13966 L 2859,13714 2668,13645 2660,13966 Z "/>
       </g>
      </g>
      <g>
       <g id="id38">
        <path fill="none" stroke="rgb(17,17,17)" d="M 5715,12756 L 3372,13844 "/>
        <path fill="rgb(17,17,17)" d="M 3108,13966 L 3427,13930 3341,13746 3108,13966 Z "/>
       </g>
      </g>
      <g>
       <g id="id39">
        <path fill="none" stroke="rgb(17,17,17)" d="M 8455,12664 L 3965,14148 "/>
        <path fill="rgb(17,17,17)" d="M 3689,14239 L 4010,14240 3946,14047 3689,14239 Z "/>
       </g>
      </g>
      <g>
       <g id="id40">
        <path fill="rgb(148,189,94)" d="M 1769,18386 L 1769,18386 C 1769,18346 1780,18307 1800,18272 1820,18237 1848,18209 1883,18189 1918,18169 1957,18158 1997,18158 L 3480,18158 3481,18158 C 3521,18158 3560,18169 3595,18189 3630,18209 3658,18237 3678,18272 3698,18307 3709,18346 3709,18386 L 3709,18386 3709,20000 3709,20001 C 3709,20041 3698,20080 3678,20115 3658,20150 3630,20178 3595,20198 3560,20218 3521,20229 3481,20229 L 1997,20229 1997,20229 C 1957,20229 1918,20218 1883,20198 1848,20178 1820,20150 1800,20115 1780,20080 1769,20041 1769,20001 L 1769,18386 Z "/>
        <path fill="none" stroke="rgb(17,17,17)" d="M 1769,18386 L 1769,18386 C 1769,18346 1780,18307 1800,18272 1820,18237 1848,18209 1883,18189 1918,18169 1957,18158 1997,18158 L 3480,18158 3481,18158 C 3521,18158 3560,18169 3595,18189 3630,18209 3658,18237 3678,18272 3698,18307 3709,18346 3709,18386 L 3709,18386 3709,20000 3709,20001 C 3709,20041 3698,20080 3678,20115 3658,20150 3630,20178 3595,20198 3560,20218 3521,20229 3481,20229 L 1997,20229 1997,20229 C 1957,20229 1918,20218 1883,20198 1848,20178 1820,20150 1800,20115 1780,20080 1769,20041 1769,20001 L 1769,18386 Z "/>
        <text><tspan><tspan x="2165" y="18947"><tspan font-family="sans-serif" font-size="318px" font-weight="400" fill="rgb(0,0,0)" style="white-space: pre">Current </tspan></tspan></tspan><tspan><tspan x="2271" y="19303"><tspan font-family="sans-serif" font-size="318px" font-weight="400" fill="rgb(0,0,0)" style="white-space: pre">gospel</tspan></tspan></tspan><tspan><tspan x="2218" y="19659"><tspan font-family="sans-serif" font-size="318px" font-weight="400" fill="rgb(0,0,0)" style="white-space: pre">of John</tspan></tspan></tspan></text>
       </g>
      </g>
      <g>
       <g id="id41">
        <path fill="rgb(148,189,94)" d="M 15073,13088 L 15073,13089 C 15073,13051 15083,13015 15101,12983 15120,12951 15147,12924 15179,12905 15211,12887 15247,12877 15285,12877 L 16872,12877 16872,12877 C 16910,12877 16946,12887 16978,12905 17010,12924 17037,12951 17056,12983 17074,13015 17084,13051 17084,13089 L 17084,13089 17084,14464 17084,14464 C 17084,14502 17074,14538 17056,14570 17037,14602 17010,14629 16978,14648 16946,14666 16910,14676 16872,14676 L 15284,14676 15285,14676 C 15247,14676 15211,14666 15179,14648 15147,14629 15120,14602 15101,14570 15083,14538 15073,14502 15073,14464 L 15073,13088 Z "/>
        <path fill="none" stroke="rgb(17,17,17)" d="M 15073,13088 L 15073,13089 C 15073,13051 15083,13015 15101,12983 15120,12951 15147,12924 15179,12905 15211,12887 15247,12877 15285,12877 L 16872,12877 16872,12877 C 16910,12877 16946,12887 16978,12905 17010,12924 17037,12951 17056,12983 17074,13015 17084,13051 17084,13089 L 17084,13089 17084,14464 17084,14464 C 17084,14502 17074,14538 17056,14570 17037,14602 17010,14629 16978,14648 16946,14666 16910,14676 16872,14676 L 15284,14676 15285,14676 C 15247,14676 15211,14666 15179,14648 15147,14629 15120,14602 15101,14570 15083,14538 15073,14502 15073,14464 L 15073,13088 Z "/>
        <text><tspan><tspan x="15549" y="13530"><tspan font-family="sans-serif" font-size="318px" font-weight="400" fill="rgb(0,0,0)" style="white-space: pre">Current</tspan></tspan></tspan><tspan><tspan x="15610" y="13886"><tspan font-family="sans-serif" font-size="318px" font-weight="400" fill="rgb(0,0,0)" style="white-space: pre">gospel</tspan></tspan></tspan><tspan><tspan x="15331" y="14242"><tspan font-family="sans-serif" font-size="318px" font-weight="400" fill="rgb(0,0,0)" style="white-space: pre">of Thomas</tspan></tspan></tspan></text>
       </g>
      </g>
      <g>
       <g id="id42">
        <path fill="none" stroke="rgb(17,17,17)" d="M 15908,11546 L 15894,12587 "/>
        <path fill="rgb(17,17,17)" d="M 15890,12878 L 15996,12575 15793,12572 15890,12878 Z "/>
       </g>
      </g>
      <g>
       <g id="id43">
        <path fill="none" stroke="rgb(17,17,17)" d="M 12861,13253 L 12856,17881 "/>
        <path fill="rgb(17,17,17)" d="M 12856,18172 L 12958,17868 12755,17867 12856,18172 Z "/>
       </g>
      </g>
     </g>
    </g>
   </g>
  </g>
 </g>
</svg>