<?xml version="1.0" encoding="UTF-8" standalone="no"?>
<svg
   xmlns:dc="http://purl.org/dc/elements/1.1/"
   xmlns:cc="http://creativecommons.org/ns#"
   xmlns:rdf="http://www.w3.org/1999/02/22-rdf-syntax-ns#"
   xmlns:svg="http://www.w3.org/2000/svg"
   xmlns="http://www.w3.org/2000/svg"
   xmlns:sodipodi="http://sodipodi.sourceforge.net/DTD/sodipodi-0.dtd"
   xmlns:inkscape="http://www.inkscape.org/namespaces/inkscape"
   width="200"
   height="200"
   viewBox="0 0 52.916666 52.916666"
   version="1.1"
   id="svg8"
   inkscape:version="1.0.1 (3bc2e813f5, 2020-09-07)"
   sodipodi:docname="uplogo.svg">
  <style
     id="style915"></style>
  <defs
     id="defs2" />
  <sodipodi:namedview
     id="base"
     pagecolor="#ffffff"
     bordercolor="#666666"
     borderopacity="1.0"
     inkscape:pageopacity="0.0"
     inkscape:pageshadow="2"
     inkscape:zoom="2.8284271"
     inkscape:cx="148.97009"
     inkscape:cy="99.587715"
     inkscape:document-units="px"
     inkscape:current-layer="layer2"
     inkscape:document-rotation="0"
     showgrid="true"
     units="px"
     inkscape:window-width="1920"
     inkscape:window-height="1017"
     inkscape:window-x="-8"
     inkscape:window-y="-8"
     inkscape:window-maximized="1"
     showguides="false"
     inkscape:guide-bbox="true"
     objecttolerance="8.5"
     guidetolerance="1"
     gridtolerance="1"
     inkscape:snap-path-clip="true">
    <inkscape:grid
       type="xygrid"
       id="grid917" />
    <sodipodi:guide
       position="6.3499999,26.458333"
       orientation="1,0"
       id="guide919" />
  </sodipodi:namedview>
  <metadata
     id="metadata5">
    <rdf:RDF>
      <cc:Work
         rdf:about="">
        <dc:format>image/svg+xml</dc:format>
        <dc:type
           rdf:resource="http://purl.org/dc/dcmitype/StillImage" />
        <dc:title></dc:title>
      </cc:Work>
    </rdf:RDF>
  </metadata>
  <g
     inkscape:groupmode="layer"
     id="layer2"
     inkscape:label="Layer 2"
     style="display:inline">
    <path
       id="rect869"
       style="fill:#2099f0;fill-opacity:1;stroke:none;stroke-width:1.29822;stroke-linecap:round;stroke-linejoin:round"
       d="M 35.986328,11.988281 28,12.001953 v 85.013672 h 0.02344 c 0.0058,15.966545 9.767591,30.719055 25.611328,38.703125 15.849479,7.9867 35.377083,7.9867 51.226562,0 15.84892,-7.98668 25.6119,-22.74619 25.61133,-38.71875 h -0.0215 V 11.996094 h -7.82812 V 97 c -0.11626,13.93985 -8.30409,25.45542 -21.59961,32.42578 -13.397315,7.02339 -29.903468,7.02339 -43.300782,0 C 44.42714,122.45542 36.141638,110.93985 36.025391,97 h -0.03906 z"
       transform="scale(0.26458333)" />
    <path
       id="rect867"
       style="fill:#2099f0;fill-opacity:1;stroke:none;stroke-width:1.3134;stroke-linecap:round;stroke-linejoin:round"
       d="M 44.171875,11.996094 V 99 h 0.01953 c 0.0045,10.43071 6.697181,20.06682 17.556641,25.27734 10.859845,5.21054 24.236846,5.20331 35.091797,-0.0176 C 107.68281,119.04462 114.36211,109.41789 114.37109,99 h 0.008 V 11.996094 h -7.82813 V 99 c -0.0754,9.10331 -6.25348,14.25332 -12.341796,18.4668 -4.159933,2.87892 -9.730867,3.44489 -14.78125,3.44726 -5.050382,0.002 -10.606341,-0.57733 -14.783203,-3.43164 C 58.481713,113.27098 52.083906,108.10323 52,99 V 11.996094 Z"
       transform="scale(0.26458333)" />
    <path
       id="rect865"
       style="fill:#2099f0;fill-opacity:1;stroke:none;stroke-width:1.28188;stroke-linecap:round;stroke-linejoin:round"
       d="m 59.408203,11.996094 v 82.75 0.304687 h 0.01172 c 0.118975,6.336459 3.930054,12.165509 10.070312,15.341799 6.239078,3.2273 13.924985,3.2273 20.164063,0 6.197783,-3.20605 10.028146,-9.11427 10.078125,-15.519533 h 0.0039 v -0.126953 -82.75 h -7.828125 v 82.75 c -0.04573,5.632866 -2.748192,7.587196 -5.828125,9.826176 -1.840293,1.3378 -4.383033,1.49483 -6.658203,1.5 -1.965978,0.005 -4.147952,-0.14581 -5.759766,-1.27149 -3.261191,-2.27759 -6.380018,-4.42182 -6.425781,-10.054686 v -82.75 z"
       transform="scale(0.26458333)" />
    <g
       aria-label="p"
       id="text853"
       style="font-style:normal;font-weight:normal;font-size:28.2222px;line-height:1.25;font-family:sans-serif;letter-spacing:0px;word-spacing:0px;fill:#001547;fill-opacity:1;stroke:none;stroke-width:0.264583">
      <path
         d="m 38.148581,22.296199 -0.974619,3.248727 q 1.539615,-1.807987 2.740231,-2.528357 1.214742,-0.72037 2.471858,-0.72037 1.257116,0 2.146985,1.002868 0.889869,0.988743 0.889869,2.584857 0,3.107478 -2.528357,6.327956 -2.528358,3.206353 -5.890084,3.206353 -0.706246,0 -1.257117,-0.155374 -0.536746,-0.155374 -1.214741,-0.550871 l -1.031118,3.644224 q -0.310748,1.073493 -0.310748,1.398366 0,0.310747 0.155374,0.522621 0.169499,0.225998 0.536746,0.338998 0.367248,0.127124 1.454865,0.127124 l -0.127124,0.522621 h -6.652829 l 0.141249,-0.522621 q 1.313616,-0.0565 1.779738,-0.451997 0.451997,-0.395497 0.960493,-2.18936 l 3.5736,-12.373414 q 0.324873,-1.172367 0.324873,-1.454865 0,-0.381372 -0.225998,-0.593246 -0.211874,-0.211873 -0.663871,-0.211873 -0.409622,0 -1.144117,0.09887 V 23.016569 Z M 34.857478,33.59612 q 0.875744,1.045243 2.358859,1.045243 0.734495,0 1.49724,-0.409622 0.762744,-0.409622 1.483114,-1.214742 0.734495,-0.805119 1.313616,-1.850362 0.579121,-1.059367 1.031118,-2.485983 0.466122,-1.426615 0.466122,-2.82498 0,-1.129992 -0.522622,-1.723238 -0.508496,-0.607371 -1.200616,-0.607371 -1.52549,0 -3.022729,1.751488 -1.483115,1.751488 -2.175235,4.096222 z"
         style="font-style:italic;font-variant:normal;font-weight:normal;font-stretch:normal;font-size:28.9278px;font-family:'Times New Roman';-inkscape-font-specification:'Times New Roman, Italic';fill:#001547;fill-opacity:1;stroke-width:0.264583"
         id="path884" />
    </g>
    <g
       aria-label="edia"
       transform="scale(1.0281345,0.97263536)"
       id="text857"
       style="font-size:10.8811px;line-height:1.25;font-family:'Times New Roman';-inkscape-font-specification:'Times New Roman, ';letter-spacing:0px;word-spacing:0px;fill:#001547;fill-opacity:1;stroke-width:0.272027">
      <path
         d="m 35.588608,40.879118 q -0.02479,0.177102 -0.02479,0.293989 0,0.31524 0.223148,0.538388 0.223147,0.219605 0.54193,0.219605 0.255026,0 0.488799,-0.102719 0.237316,-0.10626 0.701322,-0.464005 l 0.07438,0.102719 q -0.83946,0.832376 -1.600996,0.832376 -0.517136,0 -0.779246,-0.325867 -0.26211,-0.325866 -0.26211,-0.719031 0,-0.527762 0.325867,-1.080318 0.325866,-0.552556 0.818208,-0.85717 0.492342,-0.308156 1.013019,-0.308156 0.375455,0 0.556099,0.152307 0.180643,0.152307 0.180643,0.361286 0,0.293988 -0.233774,0.563182 -0.308156,0.350661 -0.906759,0.566725 -0.396706,0.145223 -1.115738,0.226689 z m 0.02479,-0.173559 q 0.52422,-0.06021 0.853629,-0.205437 0.435669,-0.194812 0.651733,-0.464006 0.219605,-0.272736 0.219605,-0.517136 0,-0.148765 -0.09564,-0.240857 -0.09209,-0.09209 -0.265652,-0.09209 -0.361286,0 -0.768619,0.386081 -0.403791,0.382539 -0.595061,1.133448 z"
         style="font-style:italic;font-variant:normal;font-weight:normal;font-stretch:normal;font-size:7.25407px;font-family:'Times New Roman';-inkscape-font-specification:'Times New Roman, Italic';fill:#001547;fill-opacity:1;stroke-width:0.272027"
         id="path887" />
      <path
         d="m 41.868621,37.177701 -1.218457,4.179591 q -0.09918,0.340034 -0.09918,0.446295 0,0.03542 0.02834,0.0673 0.03188,0.03188 0.06376,0.03188 0.04605,0 0.109802,-0.04605 0.120429,-0.08501 0.403791,-0.425044 l 0.120429,0.07438 q -0.255026,0.354203 -0.517136,0.573808 -0.258567,0.219606 -0.485257,0.219606 -0.120429,0 -0.198354,-0.08501 -0.07792,-0.08501 -0.07792,-0.240858 0,-0.201895 0.106261,-0.54193 l 0.138139,-0.439211 q -0.513594,0.793414 -0.935095,1.098028 -0.290446,0.20898 -0.556098,0.20898 -0.269194,0 -0.47109,-0.237316 -0.198353,-0.240858 -0.198353,-0.651733 0,-0.527762 0.336492,-1.126364 0.336493,-0.598602 0.889049,-0.974057 0.435669,-0.301072 0.800498,-0.301072 0.191269,0 0.329408,0.07792 0.138139,0.07793 0.272736,0.258568 l 0.347119,-1.232625 q 0.03896,-0.131055 0.06376,-0.20898 0.0425,-0.141681 0.0425,-0.233773 0,-0.07438 -0.05313,-0.123971 -0.07438,-0.06021 -0.191269,-0.06021 -0.08147,0 -0.269194,0.02479 v -0.131055 z m -1.314092,2.514839 q 0,-0.22669 -0.131055,-0.364829 -0.131055,-0.138139 -0.332951,-0.138139 -0.446295,0 -0.931552,0.736741 -0.481716,0.736742 -0.481716,1.409727 0,0.265652 0.116887,0.407333 0.116887,0.138139 0.27982,0.138139 0.368371,0 0.924469,-0.796956 0.556098,-0.796956 0.556098,-1.392016 z"
         style="font-style:italic;font-variant:normal;font-weight:normal;font-stretch:normal;font-size:7.25407px;font-family:'Times New Roman';-inkscape-font-specification:'Times New Roman, Italic';fill:#001547;fill-opacity:1;stroke-width:0.272027"
         id="path889" />
      <path
         d="m 43.193339,37.602744 q 0.148765,0 0.251484,0.102719 0.102718,0.102719 0.102718,0.251484 0,0.145223 -0.10626,0.251484 -0.102719,0.102718 -0.247942,0.102718 -0.145223,0 -0.251484,-0.102718 -0.102719,-0.106261 -0.102719,-0.251484 0,-0.148765 0.102719,-0.251484 0.102719,-0.102719 0.251484,-0.102719 z m 0.04605,1.406185 -0.701321,2.48296 q -0.07084,0.251484 -0.07084,0.301072 0,0.05667 0.03188,0.09209 0.03542,0.03542 0.08147,0.03542 0.05313,0 0.127513,-0.05667 0.201896,-0.159392 0.407333,-0.45338 l 0.123971,0.08147 q -0.240858,0.368371 -0.566724,0.619855 -0.240858,0.187727 -0.460464,0.187727 -0.145223,0 -0.237315,-0.08501 -0.09209,-0.08855 -0.09209,-0.219605 0,-0.131055 0.08855,-0.43567 l 0.460463,-1.586827 q 0.113345,-0.389623 0.113345,-0.4888 0,-0.07793 -0.05667,-0.127513 -0.05313,-0.04959 -0.148766,-0.04959 -0.07792,0 -0.322324,0.03896 v -0.138139 z"
         style="font-style:italic;font-variant:normal;font-weight:normal;font-stretch:normal;font-size:7.25407px;font-family:'Times New Roman';-inkscape-font-specification:'Times New Roman, Italic';fill:#001547;fill-opacity:1;stroke-width:0.272027"
         id="path891" />
      <path
         d="m 46.990391,39.008929 -0.690695,2.401493 -0.07792,0.322325 q -0.01063,0.04605 -0.01063,0.07792 0,0.05667 0.03542,0.09918 0.02834,0.03188 0.07084,0.03188 0.04605,0 0.120429,-0.05667 0.138139,-0.102719 0.368371,-0.425043 l 0.120429,0.08501 q -0.2444,0.368371 -0.502968,0.563182 -0.258568,0.19127 -0.478174,0.19127 -0.152307,0 -0.230231,-0.07793 -0.07438,-0.07438 -0.07438,-0.219605 0,-0.17356 0.07793,-0.456922 l 0.07438,-0.265652 q -0.464005,0.605687 -0.853628,0.846545 -0.27982,0.173559 -0.549014,0.173559 -0.258568,0 -0.446295,-0.212522 -0.187728,-0.216063 -0.187728,-0.591518 0,-0.563182 0.336493,-1.186579 0.340034,-0.626939 0.860712,-1.002393 0.407333,-0.29753 0.76862,-0.29753 0.216063,0 0.357744,0.113344 0.145224,0.113345 0.219606,0.375455 l 0.127513,-0.403791 z m -1.260961,0.184185 q -0.22669,0 -0.481716,0.212521 -0.361286,0.301073 -0.644648,0.892591 -0.279821,0.591518 -0.279821,1.069692 0,0.240858 0.120429,0.382539 0.120429,0.138139 0.276278,0.138139 0.386081,0 0.839461,-0.570266 0.605686,-0.757994 0.605686,-1.55495 0,-0.301072 -0.116887,-0.435669 -0.116887,-0.134597 -0.318782,-0.134597 z"
         style="font-style:italic;font-variant:normal;font-weight:normal;font-stretch:normal;font-size:7.25407px;font-family:'Times New Roman';-inkscape-font-specification:'Times New Roman, Italic';fill:#001547;fill-opacity:1;stroke-width:0.272027"
         id="path893" />
    </g>
    <g
       aria-label="URANTIA"
       transform="scale(0.9956635,1.0043554)"
       id="text849"
       style="font-style:normal;font-weight:normal;font-size:9.88836px;line-height:1.25;font-family:sans-serif;letter-spacing:0px;word-spacing:0px;fill:#004b81;fill-opacity:0.933333;stroke:none;stroke-width:0.24721">
      <path
         d="m 9.6563206,43.479993 v -0.178647 h 2.3175844 v 0.178647 h -0.246243 q -0.386264,0 -0.593881,0.323497 -0.101395,0.149677 -0.101395,0.695275 v 2.655565 q 0,0.984974 -0.19796,1.530572 -0.193132,0.540769 -0.7677,0.931862 -0.5697394,0.386264 -1.5547127,0.386264 -1.0718828,0 -1.6271374,-0.371779 Q 6.3296213,49.259469 6.0978629,48.63179 5.9433573,48.202072 5.9433573,47.019138 v -2.558999 q 0,-0.603538 -0.1689906,-0.791842 Q 5.6102045,43.479993 5.2384254,43.479993 H 4.992182 v -0.178647 h 2.8293843 v 0.178647 H 7.5704946 q -0.4055772,0 -0.5793961,0.2559 -0.1207075,0.173819 -0.1207075,0.724246 v 2.853525 q 0,0.381436 0.067596,0.873923 0.072424,0.492486 0.2559,0.7677 0.1834754,0.275213 0.5262848,0.45386 0.3476376,0.178647 0.8497809,0.178647 0.642164,0 1.1491356,-0.280042 0.5069717,-0.280041 0.6904467,-0.714588 0.188304,-0.439375 0.188304,-1.482288 v -2.650737 q 0,-0.613195 -0.135192,-0.7677 -0.188304,-0.212446 -0.5600833,-0.212446 z"
         style="font-style:normal;font-variant:normal;font-weight:normal;font-stretch:normal;font-family:'Times New Roman';-inkscape-font-specification:'Times New Roman, ';fill:#004b81;fill-opacity:0.933333;stroke-width:0.24721"
         id="path896" />
      <path
         d="m 18.762496,49.848522 h -1.747845 l -2.21619,-3.061143 q -0.246243,0.0097 -0.400749,0.0097 -0.06277,0 -0.135192,0 -0.07243,-0.0048 -0.149678,-0.0097 v 1.902351 q 0,0.618022 0.135193,0.7677 0.183475,0.212445 0.550426,0.212445 h 0.2559 v 0.178647 h -2.805243 v -0.178647 h 0.246244 q 0.415233,0 0.593881,-0.270385 0.101394,-0.149677 0.101394,-0.70976 v -4.229591 q 0,-0.618023 -0.135193,-0.7677 -0.188303,-0.212446 -0.560082,-0.212446 h -0.246244 v -0.178647 h 2.385181 q 1.042913,0 1.535399,0.154506 0.497315,0.149677 0.840125,0.560083 0.347637,0.405577 0.347637,0.970488 0,0.603538 -0.39592,1.047742 -0.391093,0.444203 -1.216732,0.627679 l 1.351924,1.878209 q 0.463517,0.646992 0.79667,0.859437 0.333153,0.212445 0.869094,0.270385 z m -4.649654,-3.365325 q 0.09174,0 0.159334,0.0048 0.0676,0 0.111051,0 0.936691,0 1.409864,-0.405577 0.478002,-0.405578 0.478002,-1.033257 0,-0.613194 -0.386264,-0.99463 -0.381436,-0.386264 -1.013943,-0.386264 -0.280042,0 -0.758044,0.09174 z"
         style="font-style:normal;font-variant:normal;font-weight:normal;font-stretch:normal;font-family:'Times New Roman';-inkscape-font-specification:'Times New Roman, ';fill:#004b81;fill-opacity:0.933333;stroke-width:0.24721"
         id="path898" />
      <path
         d="m 23.199705,47.656474 h -2.534858 l -0.444204,1.033256 q -0.164162,0.381436 -0.164162,0.569739 0,0.149678 0.14002,0.265557 0.144849,0.111051 0.618023,0.144849 v 0.178647 H 18.75284 v -0.178647 q 0.410405,-0.07242 0.531113,-0.188304 0.246243,-0.231758 0.545598,-0.941518 l 2.303099,-5.388384 h 0.168991 l 2.278958,5.446323 q 0.275213,0.656649 0.497315,0.85461 0.22693,0.193132 0.627679,0.217273 v 0.178647 h -2.583141 v -0.178647 q 0.391092,-0.01931 0.526285,-0.130364 0.14002,-0.111051 0.14002,-0.270385 0,-0.212445 -0.193132,-0.671134 z m -0.135193,-0.357295 -1.110509,-2.645908 -1.139479,2.645908 z"
         style="font-style:normal;font-variant:normal;font-weight:normal;font-stretch:normal;font-family:'Times New Roman';-inkscape-font-specification:'Times New Roman, ';fill:#004b81;fill-opacity:0.933333;stroke-width:0.24721"
         id="path900" />
      <path
         d="m 25.68628,43.301346 h 1.776814 l 4.002662,4.910382 v -3.775731 q 0,-0.603538 -0.135193,-0.753215 -0.178647,-0.202789 -0.564911,-0.202789 h -0.22693 v -0.178647 h 2.278958 v 0.178647 h -0.231759 q -0.415233,0 -0.589052,0.251072 -0.106223,0.154506 -0.106223,0.704932 v 5.518748 H 31.716827 L 27.400326,44.68224 v 4.031631 q 0,0.603538 0.130364,0.753215 0.183476,0.202789 0.564912,0.202789 h 0.231758 v 0.178647 h -2.278958 v -0.178647 h 0.22693 q 0.420062,0 0.593881,-0.251072 0.106223,-0.154505 0.106223,-0.704932 v -4.553087 q -0.28487,-0.333153 -0.434547,-0.439376 -0.144849,-0.106222 -0.429719,-0.19796 -0.140021,-0.04346 -0.42489,-0.04346 z"
         style="font-style:normal;font-variant:normal;font-weight:normal;font-stretch:normal;font-family:'Times New Roman';-inkscape-font-specification:'Times New Roman, ';fill:#004b81;fill-opacity:0.933333;stroke-width:0.24721"
         id="path902" />
      <path
         d="m 38.679238,43.301346 0.07243,1.5354 h -0.183476 q -0.05311,-0.405577 -0.144849,-0.579396 -0.149677,-0.280042 -0.400749,-0.410406 -0.246243,-0.135192 -0.65182,-0.135192 h -0.922206 v 5.002119 q 0,0.603538 0.130364,0.753215 0.183476,0.202789 0.564911,0.202789 h 0.226931 v 0.178647 h -2.776273 v -0.178647 h 0.231758 q 0.415234,0 0.589053,-0.251072 0.106222,-0.154505 0.106222,-0.704932 v -5.002119 h -0.787013 q -0.458688,0 -0.65182,0.0676 -0.251072,0.09174 -0.429719,0.352466 -0.178647,0.260728 -0.212445,0.704932 h -0.183476 l 0.07725,-1.5354 z"
         style="font-style:normal;font-variant:normal;font-weight:normal;font-stretch:normal;font-family:'Times New Roman';-inkscape-font-specification:'Times New Roman, ';fill:#004b81;fill-opacity:0.933333;stroke-width:0.24721"
         id="path904" />
      <path
         d="m 42.049391,49.669875 v 0.178647 h -2.805243 v -0.178647 h 0.231759 q 0.405577,0 0.589052,-0.236587 0.115879,-0.154505 0.115879,-0.743558 v -4.229591 q 0,-0.497315 -0.06277,-0.656649 -0.04828,-0.120708 -0.197961,-0.207617 -0.212445,-0.11588 -0.444203,-0.11588 h -0.231759 v -0.178647 h 2.805243 v 0.178647 h -0.236587 q -0.400749,0 -0.584224,0.236587 -0.120708,0.154506 -0.120708,0.743559 v 4.229591 q 0,0.497315 0.06277,0.656649 0.04828,0.120707 0.202789,0.207617 0.207617,0.115879 0.439375,0.115879 z"
         style="font-style:normal;font-variant:normal;font-weight:normal;font-stretch:normal;font-family:'Times New Roman';-inkscape-font-specification:'Times New Roman, ';fill:#004b81;fill-opacity:0.933333;stroke-width:0.24721"
         id="path906" />
      <path
         d="m 46.814923,47.656474 h -2.534858 l -0.444204,1.033256 q -0.164162,0.381436 -0.164162,0.569739 0,0.149678 0.140021,0.265557 0.144849,0.111051 0.618022,0.144849 v 0.178647 h -2.061684 v -0.178647 q 0.410405,-0.07242 0.531113,-0.188304 0.246243,-0.231758 0.545598,-0.941518 l 2.303099,-5.388384 h 0.168991 l 2.278958,5.446323 q 0.275213,0.656649 0.497315,0.85461 0.22693,0.193132 0.627679,0.217273 v 0.178647 H 46.73767 v -0.178647 q 0.391092,-0.01931 0.526285,-0.130364 0.14002,-0.111051 0.14002,-0.270385 0,-0.212445 -0.193132,-0.671134 z m -0.135193,-0.357295 -1.110509,-2.645908 -1.139479,2.645908 z"
         style="font-style:normal;font-variant:normal;font-weight:normal;font-stretch:normal;font-family:'Times New Roman';-inkscape-font-specification:'Times New Roman, ';fill:#004b81;fill-opacity:0.933333;stroke-width:0.24721"
         id="path908" />
    </g>
  </g>
</svg>
