<?xml version="1.0" encoding="UTF-8" standalone="no"?>
<svg
   xmlns:dc="http://purl.org/dc/elements/1.1/"
   xmlns:cc="http://creativecommons.org/ns#"
   xmlns:rdf="http://www.w3.org/1999/02/22-rdf-syntax-ns#"
   xmlns:svg="http://www.w3.org/2000/svg"
   xmlns="http://www.w3.org/2000/svg"
   xmlns:sodipodi="http://sodipodi.sourceforge.net/DTD/sodipodi-0.dtd"
   xmlns:inkscape="http://www.inkscape.org/namespaces/inkscape"
   width="200"
   height="200"
   version="1.1"
   viewBox="0 0 52.9 52.9"
   id="svg44"
   sodipodi:docname="uplogo_opt_whiteback.svg"
   inkscape:version="1.0.1 (3bc2e813f5, 2020-09-07)">
  <metadata
     id="metadata50">
    <rdf:RDF>
      <cc:Work
         rdf:about="">
        <dc:format>image/svg+xml</dc:format>
        <dc:type
           rdf:resource="http://purl.org/dc/dcmitype/StillImage" />
        <dc:title></dc:title>
      </cc:Work>
    </rdf:RDF>
  </metadata>
  <defs
     id="defs48" />
  <sodipodi:namedview
     pagecolor="#ffffff"
     bordercolor="#666666"
     borderopacity="1"
     objecttolerance="10"
     gridtolerance="10"
     guidetolerance="10"
     inkscape:pageopacity="0"
     inkscape:pageshadow="2"
     inkscape:window-width="1536"
     inkscape:window-height="801"
     id="namedview46"
     showgrid="false"
     inkscape:pagecheckerboard="true"
     inkscape:zoom="2.125"
     inkscape:cx="62.449826"
     inkscape:cy="62.907526"
     inkscape:window-x="-8"
     inkscape:window-y="-8"
     inkscape:window-maximized="1"
     inkscape:current-layer="svg44" />
  <style
     id="style2" />
  <rect
     style="fill:#ffffff;stroke-width:0.352843;stroke-linecap:round;stroke-linejoin:round;stroke-miterlimit:4;stroke-dasharray:none"
     id="rect875"
     width="51.576199"
     height="51.752228"
     x="0.70411199"
     y="0.70411199"
     rx="2.645"
     ry="2.645" />
  <g
     id="g42">
    <g
       fill="#2099f0"
       id="g10">
      <path
         transform="scale(.265)"
         d="m36 12-7.99 0.0137v85h0.0234c0.0058 16 9.77 30.7 25.6 38.7 15.8 7.99 35.4 7.99 51.2 0 15.8-7.99 25.6-22.7 25.6-38.7h-0.0215v-85h-7.83v85c-0.116 13.9-8.3 25.5-21.6 32.4-13.4 7.02-29.9 7.02-43.3 0-13.3-6.97-21.6-18.5-21.7-32.4h-0.0391z"
         id="path4" />
      <path
         transform="scale(.265)"
         d="m44.2 12v87h0.0195c0.0045 10.4 6.7 20.1 17.6 25.3 10.9 5.21 24.2 5.2 35.1-0.0176 10.8-5.22 17.5-14.8 17.5-25.3h8e-3v-87h-7.83v87c-0.0754 9.1-6.25 14.3-12.3 18.5-4.16 2.88-9.73 3.44-14.8 3.45-5.05 2e-3 -10.6-0.577-14.8-3.43-6.16-4.21-12.6-9.38-12.6-18.5v-87z"
         id="path6" />
      <path
         transform="scale(.265)"
         d="m59.4 12v83.1h0.0117c0.119 6.34 3.93 12.2 10.1 15.3 6.24 3.23 13.9 3.23 20.2 0 6.2-3.21 10-9.11 10.1-15.5h0.0039v-82.9h-7.83v82.8c-0.0457 5.63-2.75 7.59-5.83 9.83-1.84 1.34-4.38 1.49-6.66 1.5-1.97 5e-3 -4.15-0.146-5.76-1.27-3.26-2.28-6.38-4.42-6.43-10.1v-82.8z"
         id="path8" />
    </g>
    <g
       fill="#001547"
       aria-label="p"
       id="g14">
      <path
         d="m38.1 22.3-.975 3.25q1.54-1.81 2.74-2.53 1.21-.72 2.47-.72t2.15 1q.89 .989 .89 2.58 0 3.11-2.53 6.33-2.53 3.21-5.89 3.21-.706 0-1.26-.155-.537-.155-1.21-.551l-1.03 3.64q-.311 1.07-.311 1.4 0 .311 .155 .523 .169 .226 .537 .339 .367 .127 1.45 .127l-.127 .523h-6.65l.141-.523q1.31-.0565 1.78-.452 .452-.395 .96-2.19l3.57-12.4q.325-1.17 .325-1.45 0-.381-.226-.593-.212-.212-.664-.212-.41 0-1.14 .0989v-.551zm-3.29 11.3q.876 1.05 2.36 1.05 .734 0 1.5-.41 .763-.41 1.48-1.21 .734-.805 1.31-1.85 .579-1.06 1.03-2.49 .466-1.43 .466-2.82 0-1.13-.523-1.72-.508-.607-1.2-.607-1.53 0-3.02 1.75-1.48 1.75-2.18 4.1z"
         fill="#001547"
         stroke-width=".265"
         id="path12" />
    </g>
    <g
       transform="scale(1.03 .973)"
       fill="#001547"
       stroke-width=".272"
       aria-label="edia"
       id="g24">
      <path
         d="m35.6 40.9q-.0248 .177-.0248 .294 0 .315 .223 .538 .223 .22 .542 .22 .255 0 .489-.103 .237-.106 .701-.464l.0744 .103q-.839 .832-1.6 .832-.517 0-.779-.326-.262-.326-.262-.719 0-.528 .326-1.08 .326-.553 .818-.857 .492-.308 1.01-.308 .375 0 .556 .152 .181 .152 .181 .361 0 .294-.234 .563-.308 .351-.907 .567-.397 .145-1.12 .227zm.0248-.174q.524-.0602 .854-.205 .436-.195 .652-.464 .22-.273 .22-.517 0-.149-.0956-.241-.0921-.0921-.266-.0921-.361 0-.769 .386-.404 .383-.595 1.13z"
         id="path16" />
      <path
         d="m41.9 37.2-1.22 4.18q-.0992 .34-.0992 .446 0 .0354 .0283 .0673 .0319 .0319 .0638 .0319 .046 0 .11-.046 .12-.085 .404-.425l.12 .0744q-.255 .354-.517 .574-.259 .22-.485 .22-.12 0-.198-.085-.0779-.085-.0779-.241 0-.202 .106-.542l.138-.439q-.514 .793-.935 1.1-.29 .209-.556 .209-.269 0-.471-.237-.198-.241-.198-.652 0-.528 .336-1.13 .336-.599 .889-.974 .436-.301 .8-.301 .191 0 .329 .0779 .138 .0779 .273 .259l.347-1.23q.039-.131 .0638-.209 .0425-.142 .0425-.234 0-.0744-.0531-.124-.0744-.0602-.191-.0602-.0815 0-.269 .0248v-.131zm-1.31 2.51q0-.227-.131-.365t-.333-.138q-.446 0-.932 .737-.482 .737-.482 1.41 0 .266 .117 .407 .117 .138 .28 .138 .368 0 .924-.797t.556-1.39z"
         id="path18" />
      <path
         d="m43.2 37.6q.149 0 .251 .103 .103 .103 .103 .251 0 .145-.106 .251-.103 .103-.248 .103t-.251-.103q-.103-.106-.103-.251 0-.149 .103-.251t.251-.103zm.046 1.41-.701 2.48q-.0708 .251-.0708 .301 0 .0567 .0319 .0921 .0354 .0354 .0815 .0354 .0531 0 .128-.0567 .202-.159 .407-.453l.124 .0815q-.241 .368-.567 .62-.241 .188-.46 .188-.145 0-.237-.085-.0921-.0886-.0921-.22t.0886-.436l.46-1.59q.113-.39 .113-.489 0-.0779-.0567-.128-.0531-.0496-.149-.0496-.0779 0-.322 .039v-.138z"
         id="path20" />
      <path
         d="m47 39-.691 2.4-.0779 .322q-.0106 .046-.0106 .0779 0 .0567 .0354 .0992 .0283 .0319 .0708 .0319 .046 0 .12-.0567 .138-.103 .368-.425l.12 .085q-.244 .368-.503 .563-.259 .191-.478 .191-.152 0-.23-.0779-.0744-.0744-.0744-.22 0-.174 .0779-.457l.0744-.266q-.464 .606-.854 .847-.28 .174-.549 .174-.259 0-.446-.213-.188-.216-.188-.592 0-.563 .336-1.19 .34-.627 .861-1 .407-.298 .769-.298 .216 0 .358 .113 .145 .113 .22 .375l.128-.404zm-1.26 .184q-.227 0-.482 .213-.361 .301-.645 .893-.28 .592-.28 1.07 0 .241 .12 .383 .12 .138 .276 .138 .386 0 .839-.57 .606-.758 .606-1.55 0-.301-.117-.436t-.319-.135z"
         id="path22" />
    </g>
    <g
       transform="scale(.996 1)"
       fill="#004b81"
       fill-opacity=".933"
       stroke-width=".247"
       aria-label="URANTIA"
       id="g40">
      <path
         d="m9.66 43.5v-.179h2.32v.179h-.246q-.386 0-.594 .323-.101 .15-.101 .695v2.66q0 .985-.198 1.53-.193 .541-.768 .932-.57 .386-1.55 .386-1.07 0-1.63-.372-.555-.372-.787-.999-.155-.43-.155-1.61v-2.56q0-.604-.169-.792-.164-.188-.536-.188h-.246v-.179h2.83v.179h-.251q-.406 0-.579 .256-.121 .174-.121 .724v2.85q0 .381 .0676 .874 .0724 .492 .256 .768 .183 .275 .526 .454 .348 .179 .85 .179 .642 0 1.15-.28 .507-.28 .69-.715 .188-.439 .188-1.48v-2.65q0-.613-.135-.768-.188-.212-.56-.212z"
         id="path26" />
      <path
         d="m18.8 49.8h-1.75l-2.22-3.06q-.246 .0097-.401 .0097-.0628 0-.135 0-.0724-.0048-.15-.0097v1.9q0 .618 .135 .768 .183 .212 .55 .212h.256v.179h-2.81v-.179h.246q.415 0 .594-.27 .101-.15 .101-.71v-4.23q0-.618-.135-.768-.188-.212-.56-.212h-.246v-.179h2.39q1.04 0 1.54 .155 .497 .15 .84 .56 .348 .406 .348 .97 0 .604-.396 1.05-.391 .444-1.22 .628l1.35 1.88q.464 .647 .797 .859t.869 .27zm-4.65-3.37q.0917 0 .159 .0048 .0676 0 .111 0 .937 0 1.41-.406 .478-.406 .478-1.03 0-.613-.386-.995-.381-.386-1.01-.386-.28 0-.758 .0917z"
         id="path28" />
      <path
         d="m23.2 47.7h-2.53l-.444 1.03q-.164 .381-.164 .57 0 .15 .14 .266 .145 .111 .618 .145v.179h-2.06v-.179q.41-.0724 .531-.188 .246-.232 .546-.942l2.3-5.39h.169l2.28 5.45q.275 .657 .497 .855 .227 .193 .628 .217v.179h-2.58v-.179q.391-.0193 .526-.13 .14-.111 .14-.27 0-.212-.193-.671zm-.135-.357-1.11-2.65-1.14 2.65z"
         id="path30" />
      <path
         d="m25.7 43.3h1.78l4 4.91v-3.78q0-.604-.135-.753-.179-.203-.565-.203h-.227v-.179h2.28v.179h-.232q-.415 0-.589 .251-.106 .155-.106 .705v5.52h-.174l-4.32-5.27v4.03q0 .604 .13 .753 .183 .203 .565 .203h.232v.179h-2.28v-.179h.227q.42 0 .594-.251 .106-.155 .106-.705v-4.55q-.285-.333-.435-.439-.145-.106-.43-.198-.14-.0435-.425-.0435z"
         id="path32" />
      <path
         d="m38.7 43.3 .0724 1.54h-.183q-.0531-.406-.145-.579-.15-.28-.401-.41-.246-.135-.652-.135h-.922v5q0 .604 .13 .753 .183 .203 .565 .203h.227v.179h-2.78v-.179h.232q.415 0 .589-.251 .106-.155 .106-.705v-5h-.787q-.459 0-.652 .0676-.251 .0917-.43 .352-.179 .261-.212 .705h-.183l.0772-1.54z"
         id="path34" />
      <path
         d="m42 49.7v.179h-2.81v-.179h.232q.406 0 .589-.237 .116-.155 .116-.744v-4.23q0-.497-.0628-.657-.0483-.121-.198-.208-.212-.116-.444-.116h-.232v-.179h2.81v.179h-.237q-.401 0-.584 .237-.121 .155-.121 .744v4.23q0 .497 .0628 .657 .0483 .121 .203 .208 .208 .116 .439 .116z"
         id="path36" />
      <path
         d="m46.8 47.7h-2.53l-.444 1.03q-.164 .381-.164 .57 0 .15 .14 .266 .145 .111 .618 .145v.179h-2.06v-.179q.41-.0724 .531-.188 .246-.232 .546-.942l2.3-5.39h.169l2.28 5.45q.275 .657 .497 .855 .227 .193 .628 .217v.179h-2.58v-.179q.391-.0193 .526-.13 .14-.111 .14-.27 0-.212-.193-.671zm-.135-0.357-1.11-2.65-1.14 2.65z"
         id="path38" />
    </g>
  </g>
</svg>
