<?xml version="1.0" encoding="UTF-8" standalone="no"?>
<svg
   xmlns:dc="http://purl.org/dc/elements/1.1/"
   xmlns:cc="http://creativecommons.org/ns#"
   xmlns:rdf="http://www.w3.org/1999/02/22-rdf-syntax-ns#"
   xmlns:svg="http://www.w3.org/2000/svg"
   xmlns="http://www.w3.org/2000/svg"
   xmlns:sodipodi="http://sodipodi.sourceforge.net/DTD/sodipodi-0.dtd"
   xmlns:inkscape="http://www.inkscape.org/namespaces/inkscape"
   width="200"
   height="200"
   version="1.1"
   viewBox="0 0 52.9 52.9"
   id="svg44"
   sodipodi:docname="uplogo_compact.svg"
   inkscape:version="1.0.1 (3bc2e813f5, 2020-09-07)">
  <metadata
     id="metadata50">
    <rdf:RDF>
      <cc:Work
         rdf:about="">
        <dc:format>image/svg+xml</dc:format>
        <dc:type
           rdf:resource="http://purl.org/dc/dcmitype/StillImage" />
        <dc:title></dc:title>
      </cc:Work>
    </rdf:RDF>
  </metadata>
  <defs
     id="defs48" />
  <sodipodi:namedview
     pagecolor="#ffffff"
     bordercolor="#666666"
     borderopacity="1"
     objecttolerance="10"
     gridtolerance="10"
     guidetolerance="10"
     inkscape:pageopacity="0"
     inkscape:pageshadow="2"
     inkscape:window-width="1920"
     inkscape:window-height="1017"
     id="namedview46"
     showgrid="false"
     inkscape:pagecheckerboard="true"
     inkscape:zoom="4.25"
     inkscape:cx="134.93926"
     inkscape:cy="128.28062"
     inkscape:window-x="3832"
     inkscape:window-y="-8"
     inkscape:window-maximized="1"
     inkscape:current-layer="svg44"
     inkscape:document-rotation="0" />
  <style
     id="style2" />
  <g
     fill="#2099f0"
     id="g10"
     transform="matrix(1.2336804,0,0,1.2336804,-6.0472127,-1.0046682)">
    <path
       transform="scale(0.265)"
       d="m 36,12 -7.99,0.0137 v 85 h 0.0234 c 0.0058,16 9.77,30.7 25.6,38.7 15.8,7.99 35.4,7.99 51.2,0 15.8,-7.99 25.6,-22.7 25.6,-38.7 h -0.0215 v -85 h -7.83 v 85 c -0.116,13.9 -8.3,25.5 -21.6,32.4 -13.4,7.02 -29.9,7.02 -43.3,0 -13.3,-6.97 -21.6,-18.5 -21.7,-32.4 h -0.0391 z"
       id="path4" />
    <path
       transform="scale(0.265)"
       d="m 44.2,12 v 87 h 0.0195 c 0.0045,10.4 6.7,20.1 17.6,25.3 10.9,5.21 24.2,5.2 35.1,-0.0176 10.8,-5.22 17.5,-14.8 17.5,-25.3 h 0.008 v -87 h -7.83 v 87 c -0.0754,9.1 -6.25,14.3 -12.3,18.5 -4.16,2.88 -9.73,3.44 -14.8,3.45 -5.05,0.002 -10.6,-0.577 -14.8,-3.43 -6.16,-4.21 -12.6,-9.38 -12.6,-18.5 v -87 z"
       id="path6" />
    <path
       transform="scale(0.265)"
       d="m 59.4,12 v 83.1 h 0.0117 c 0.119,6.34 3.93,12.2 10.1,15.3 6.24,3.23 13.9,3.23 20.2,0 6.2,-3.21 10,-9.11 10.1,-15.5 h 0.0039 V 12 h -7.83 v 82.8 c -0.0457,5.63 -2.75,7.59 -5.83,9.83 -1.84,1.34 -4.38,1.49 -6.66,1.5 -1.97,0.005 -4.15,-0.146 -5.76,-1.27 -3.26,-2.28 -6.38,-4.42 -6.43,-10.1 v -82.8 z"
       id="path8" />
  </g>
  <g
     fill="#001547"
     aria-label="p"
     id="g14"
     transform="matrix(1.2336804,0,0,1.2336804,-6.0472127,-1.0046682)"
     style="fill:#ffffff">
    <path
       d="m 38.1,22.3 -0.975,3.25 q 1.54,-1.81 2.74,-2.53 1.21,-0.72 2.47,-0.72 1.26,0 2.15,1 0.89,0.989 0.89,2.58 0,3.11 -2.53,6.33 -2.53,3.21 -5.89,3.21 -0.706,0 -1.26,-0.155 -0.537,-0.155 -1.21,-0.551 l -1.03,3.64 q -0.311,1.07 -0.311,1.4 0,0.311 0.155,0.523 0.169,0.226 0.537,0.339 0.367,0.127 1.45,0.127 l -0.127,0.523 h -6.65 l 0.141,-0.523 q 1.31,-0.0565 1.78,-0.452 0.452,-0.395 0.96,-2.19 l 3.57,-12.4 q 0.325,-1.17 0.325,-1.45 0,-0.381 -0.226,-0.593 -0.212,-0.212 -0.664,-0.212 -0.41,0 -1.14,0.0989 v -0.551 z m -3.29,11.3 q 0.876,1.05 2.36,1.05 0.734,0 1.5,-0.41 0.763,-0.41 1.48,-1.21 0.734,-0.805 1.31,-1.85 0.579,-1.06 1.03,-2.49 0.466,-1.43 0.466,-2.82 0,-1.13 -0.523,-1.72 -0.508,-0.607 -1.2,-0.607 -1.53,0 -3.02,1.75 -1.48,1.75 -2.18,4.1 z"
       fill="#001547"
       stroke-width="0.265"
       id="path12"
       style="fill:#ffffff" />
  </g>
</svg>
