<svg width="1280" height="720" xmlns="http://www.w3.org/2000/svg" xmlns:xlink="http://www.w3.org/1999/xlink" overflow="hidden"><g><rect x="0" y="0" width="1280" height="720" fill="#FFFFFF"/><path d="M1008 537.5 1056.5 555.167 1056.5 625.833C1056.5 635.59 1034.79 643.5 1008 643.5 981.214 643.5 959.5 635.59 959.5 625.833L959.5 555.167Z" stroke="#44546A" stroke-width="10.6667" stroke-miterlimit="8" fill="#FFFFFF" fill-rule="evenodd"/><path d="M1016.26 355.563C1021.05 360.348 1020.89 368.267 1015.9 373.25 1012.9 376.258 1009.89 379.265 1006.88 382.273 1004 379.385 1001.11 376.497 998.217 373.608 993.431 368.823 993.59 360.904 998.572 355.921 1003.55 350.938 1011.47 350.778 1016.26 355.563Z" stroke="#44546A" stroke-width="5.33333" stroke-miterlimit="8" fill="#FFFFFF" fill-rule="evenodd"/><path d="M0 0 0.00167979 154.62" stroke="#44546A" stroke-width="5.33333" stroke-miterlimit="8" fill="none" fill-rule="evenodd" transform="matrix(1 -1.22465e-16 -1.22465e-16 -1 1007.5 538.121)"/><g><g><g><path d="M57.375 25.4813C55.35 25.4813 53.6625 23.7938 53.7469 21.6844 53.7469 19.6594 55.4344 17.9719 57.4594 17.9719 59.4844 17.9719 61.1719 19.6594 61.1719 21.6844 61.1719 22.6969 60.75 23.625 60.075 24.3 59.3156 25.0594 58.3875 25.4813 57.375 25.4813ZM53.7469 13.7531C51.8906 14.4281 50.4562 15.8625 49.5281 17.55 48.3469 19.8281 48.1781 22.4438 49.1063 24.8062L53.1562 33.5812 55.8562 39.15C56.1094 39.7406 56.7 40.0781 57.375 40.0781 58.05 40.0781 58.6406 39.7406 58.8938 39.15L61.5938 33.5812 65.6438 24.8906C66.0656 23.8781 66.2344 22.7812 66.2344 21.6844 66.2344 15.7781 60.1594 11.3062 53.7469 13.7531Z" stroke="#44546A" stroke-width="0.84375" fill="#44546A" transform="matrix(1 0 0 1.03704 967 549)"/><path d="M38.8125 61.425 25.3125 54.675 25.3125 27.1688 38.8125 33.9188 38.8125 61.425ZM21.9375 54.675 11.8125 59.7375 11.8125 32.2313 21.9375 27.1688 21.9375 54.675ZM68.6813 26.325 68.6813 26.325 66.5719 30.8812 69.1875 32.2313 69.1875 59.7375 59.0625 54.675 59.0625 43.4531 55.6875 43.4531 55.6875 54.675 42.1875 61.425 42.1875 33.9188 48.1781 30.8812 46.0687 26.325 40.5 29.1094 23.625 20.6719 6.75 29.1094 6.75 67.9219 23.625 59.4844 40.5 67.9219 57.375 59.4844 74.25 67.9219 74.25 29.1094 68.6813 26.325Z" stroke="#44546A" stroke-width="0.84375" fill="#44546A" transform="matrix(1 0 0 1.03704 967 549)"/></g></g></g><path d="M133.5 213.334C133.5 200.171 144.171 189.5 157.334 189.5L267.666 189.5C280.829 189.5 291.5 200.171 291.5 213.334L291.5 308.666C291.5 321.829 280.829 332.5 267.666 332.5L157.334 332.5C144.171 332.5 133.5 321.829 133.5 308.666Z" stroke="#2F528F" stroke-width="1.33333" stroke-miterlimit="8" fill="#4472C4" fill-rule="evenodd"/><text fill="#FFFFFF" font-family="Calibri,Calibri_MSFontService,sans-serif" font-weight="400" font-size="21" transform="translate(179.506 242)">Le Livre</text><text fill="#FFFFFF" font-family="Calibri,Calibri_MSFontService,sans-serif" font-weight="400" font-size="21" transform="translate(151.326 268)">d'Urantia et la</text><text fill="#FFFFFF" font-family="Calibri,Calibri_MSFontService,sans-serif" font-weight="400" font-size="21" transform="translate(190.866 293)">Bible</text><path d="M125 349 281.958 349 296 361.5 281.958 374 125 374 139.042 361.5Z" fill="#4472C4" fill-rule="evenodd"/><path d="M323 189.5 274.5 171.833 274.5 101.167C274.5 91.4096 296.214 83.5 323 83.5 349.786 83.5 371.5 91.4096 371.5 101.167L371.5 171.833Z" stroke="#4472C4" stroke-width="10.6667" stroke-miterlimit="8" fill="#FFFFFF" fill-rule="evenodd"/><path d="M313.587 370.531C308.8 365.745 308.959 357.826 313.941 352.843 316.948 349.836 319.955 346.828 322.962 343.821 325.851 346.709 328.74 349.597 331.628 352.485 336.415 357.271 336.256 365.19 331.274 370.173 326.292 375.156 318.373 375.316 313.587 370.531Z" stroke="#4472C4" stroke-width="5.33333" stroke-miterlimit="8" fill="#FFFFFF" fill-rule="evenodd"/><path d="M0 0 0.00178478 154.62" stroke="#4472C4" stroke-width="5.33333" stroke-miterlimit="8" fill="none" fill-rule="evenodd" transform="matrix(-1 0 0 1 323.502 189.5)"/><g><g><g><path d="M71.3375 6.825C70.2 5.6875 62.8875 6.9875 56.7938 8.6125 58.9875 9.9125 61.2625 11.7 63.4562 13.8938 65.7313 16.1687 67.5187 18.4438 68.8187 20.7188 70.4437 14.4625 72.5563 7.9625 71.3375 6.825Z" fill="#4472C4" transform="matrix(1 0 0 1.03846 281 99)"/><path d="M26.0812 29.9813 23.3188 28.925C22.1812 28.5187 20.9625 28.7625 20.0688 29.575L7.15 42.4937C5.0375 44.6063 6.9875 48.2625 9.9125 47.6125L20.7188 45.175C21.6125 41.1125 23.075 35.6688 26.0812 29.9813Z" fill="#4472C4" transform="matrix(1 0 0 1.03846 281 99)"/><path d="M47.6125 51.1875C42.1688 54.0312 36.9688 55.575 32.7437 56.3875L30.225 67.925C29.575 70.85 33.15 72.8812 35.3438 70.6875L48.2625 57.7687C49.075 56.9562 49.4 55.6562 48.9125 54.5187L47.6125 51.1875Z" fill="#4472C4" transform="matrix(1 0 0 1.03846 281 99)"/><path d="M52.4062 10.075C47.6125 12.025 42.1688 15.3562 36.8875 20.6375 27.2188 30.3062 24.375 42.0063 23.5625 48.6688L28.6 53.7062C35.2625 52.8937 47.0438 50.1313 56.7125 40.4625 61.9938 35.1812 65.325 29.8188 67.275 25.025 66.2188 22.3438 64.1063 19.175 61.1 16.0875 58.175 13.2437 55.0875 11.1312 52.4062 10.075ZM56.55 27.625C54.6813 29.4937 51.5938 29.4937 49.6437 27.625 47.775 25.7563 47.775 22.6687 49.6437 20.7188 51.5125 18.85 54.6 18.85 56.55 20.7188 58.4188 22.6687 58.4188 25.7563 56.55 27.625Z" fill="#4472C4" transform="matrix(1 0 0 1.03846 281 99)"/><path d="M23.4812 53.7875C22.1812 52.4875 22.3438 50.2938 19.6625 52.975 16.9812 55.6562 13 61.75 14.2188 63.05 15.5188 64.35 21.6125 60.2875 24.2937 57.6063 26.975 54.8438 24.7812 55.0062 23.4812 53.7875Z" fill="#4472C4" transform="matrix(1 0 0 1.03846 281 99)"/></g></g></g><path d="M363.5 407.001C363.5 393.469 374.469 382.5 388.001 382.5L503 382.5C516.531 382.5 527.5 393.469 527.5 407.001L527.5 505C527.5 518.531 516.531 529.5 503 529.5L388.001 529.5C374.469 529.5 363.5 518.531 363.5 505Z" stroke="#AE5A21" stroke-width="1.33333" stroke-miterlimit="8" fill="#ED7D31" fill-rule="evenodd"/><text fill="#FFFFFF" font-family="Calibri,Calibri_MSFontService,sans-serif" font-weight="400" font-size="21" transform="translate(381.773 437)">Hémérotèque,</text><text fill="#FFFFFF" font-family="Calibri,Calibri_MSFontService,sans-serif" font-weight="400" font-size="21" transform="translate(386.819 463)">Bibliothèque,</text><text fill="#FFFFFF" font-family="Calibri,Calibri_MSFontService,sans-serif" font-weight="400" font-size="21" transform="translate(387.953 488)">Encyclopédie</text><path d="M359 349 515.958 349 530 361.5 515.958 374 359 374 373.042 361.5Z" fill="#ED7D31" fill-rule="evenodd"/><path d="M557 536.5 605.5 554 605.5 624C605.5 633.665 583.786 641.5 557 641.5 530.214 641.5 508.5 633.665 508.5 624L508.5 554Z" stroke="#ED7D31" stroke-width="10.6667" stroke-miterlimit="8" fill="#FFFFFF" fill-rule="evenodd"/><path d="M565.68 353.894C570.466 358.679 570.307 366.598 565.325 371.581 562.318 374.589 559.311 377.596 556.305 380.604 553.416 377.716 550.527 374.828 547.638 371.939 542.852 367.154 543.011 359.235 547.993 354.252 552.975 349.269 560.894 349.109 565.68 353.894Z" stroke="#ED7D31" stroke-width="5.33333" stroke-miterlimit="8" fill="#FFFFFF" fill-rule="evenodd"/><path d="M0 0 0.00167979 154.62" stroke="#ED7D31" stroke-width="5.33333" stroke-miterlimit="8" fill="none" fill-rule="evenodd" transform="matrix(1 -1.22465e-16 -1.22465e-16 -1 557.5 536.121)"/><g><g><g><path d="M77.3875 31.0063 72.9458 29.3833 72.9458 20.0729 77.3875 18.1938 47.3208 7.08958 10.7625 19.9021C7.26042 21.6104 7.175 26.3083 7.175 30.1521 7.175 31.4333 7.34583 32.7146 7.60208 33.9104 4.69792 35.7896 4.6125 40.1458 4.6125 43.8187 4.6125 46.8083 5.29583 49.5417 7.175 51.25 6.74792 52.7021 7.00417 54.4958 7.00417 56.6313 7.00417 60.475 8.02917 63.9771 11.4458 65.1729L35.1917 74.9958 77.2167 57.5708 72.775 55.9479 72.775 46.5521 77.2167 44.6729 70.3833 42.1104 70.3833 33.9104 77.3875 31.0063ZM11.7875 25.8813 35.5333 35.1917 69.6146 21.4396 69.6146 28.7854 35.5333 42.9646 11.7875 33.5687 11.7875 25.8813ZM69.4438 55.35 35.3625 69.4438 11.5312 60.0479 11.5312 53.3854 32.8 62.0979 69.5292 47.5771 69.4438 55.35ZM67.0521 42.5375 32.9708 56.6313 9.225 47.2354 9.225 39.5479 33.6542 49.2854 67.1375 35.2771 67.1375 42.5375Z" fill="#ED7D31" transform="matrix(1 0 0 1.03659 518 548)"/></g></g></g><path d="M588.5 277C588.5 270.649 593.649 265.5 600 265.5L733 265.5C739.351 265.5 744.5 270.649 744.5 277L744.5 323C744.5 329.351 739.351 334.5 733 334.5L600 334.5C593.649 334.5 588.5 329.351 588.5 323Z" stroke="#787878" stroke-width="1.33333" stroke-miterlimit="8" fill="#A5A5A5" fill-rule="evenodd"/><text fill="#FFFFFF" font-family="Calibri,Calibri_MSFontService,sans-serif" font-weight="400" font-size="21" transform="translate(619.37 307)">Traducteur</text><path d="M588 348 744.958 348 759 360.5 744.958 373 588 373 602.042 360.5Z" fill="#A5A5A5" fill-rule="evenodd"/><path d="M785.5 189.5 736.5 171.833 736.5 101.167C736.5 91.4097 758.438 83.5001 785.5 83.5001 812.562 83.5001 834.5 91.4097 834.5 101.167L834.5 171.833Z" stroke="#A5A5A5" stroke-width="10.6667" stroke-miterlimit="8" fill="#FFFFFF" fill-rule="evenodd"/><path d="M776.15 370.606C771.363 365.82 771.522 357.902 776.504 352.918 779.511 349.911 782.518 346.903 785.525 343.896 788.414 346.784 791.303 349.672 794.192 352.56 798.978 357.346 798.819 365.265 793.837 370.248 788.855 375.231 780.936 375.391 776.15 370.606Z" stroke="#A5A5A5" stroke-width="5.33333" stroke-miterlimit="8" fill="#FFFFFF" fill-rule="evenodd"/><path d="M0 0 0.00167979 154.62" stroke="#A5A5A5" stroke-width="5.33333" stroke-miterlimit="8" fill="none" fill-rule="evenodd" transform="matrix(-1 0 0 1 785.502 189.5)"/><g><g><g><path d="M42.5 8.85417C23.9062 8.85417 8.85417 23.9062 8.85417 42.5 8.85417 61.0938 23.9062 76.1458 42.5 76.1458 61.0938 76.1458 76.1458 61.0938 76.1458 42.5 76.1458 23.9062 61.0938 8.85417 42.5 8.85417ZM12.3958 42.5C12.3958 34.6198 15.4062 27.5365 20.3646 22.1354 21.1615 22.5781 21.9583 23.2865 22.1354 23.9062L22.1354 29.4844C22.1354 29.8385 22.224 30.2813 22.4896 30.5469L28.3333 38.0729 28.776 37.6302C29.0417 37.3646 29.1302 36.9219 28.9531 36.5677L27.8906 34.7969C27.4479 34.0885 28.1562 33.2031 28.9531 33.4688 29.2188 33.5573 29.3958 33.7344 29.4844 33.9115L32.4062 39.6667C32.7604 40.2865 33.2917 40.8177 33.9115 40.9948L37.8073 42.3229C38.0729 42.4115 38.25 42.5885 38.3385 42.7656L38.6042 43.2083C38.8698 43.8281 39.4896 44.1823 40.1979 44.1823L41.2604 44.1823C41.526 44.1823 41.7917 44.3594 41.9688 44.5365L43.1198 46.2188C43.3854 46.5729 43.7396 46.8385 44.1823 46.9271L46.0417 47.3698C46.5729 47.4583 46.8385 48.0781 46.6615 48.5208 46.6615 48.5208 45.2448 49.9375 45.2448 51.974 45.2448 57.8177 50.5573 59.5 50.5573 60.8281 50.5573 64.4583 50.026 69.5052 49.7604 71.4531 47.4583 71.9844 45.0677 72.3385 42.5885 72.3385 25.9427 72.6042 12.3958 59.0573 12.3958 42.5ZM53.8333 70.3906C55.7812 68.7083 59.0573 65.875 60.2083 64.6354 61.7135 62.9531 61.9792 60.2083 61.9792 60.2083 61.9792 60.2083 68.1771 58.526 68.1771 54.0104 68.1771 50.9115 61.9792 49.5833 61.9792 49.5833 60.9167 46.1302 55.6927 44.2708 51.3542 44.2708 50.3802 44.2708 46.9271 46.0417 46.9271 46.0417L45.1562 45.1562 45.1562 42.5C45.1562 41.9688 44.8021 41.6146 44.2708 41.6146L42.5 41.6146 42.5 38.9583C42.5 38.4271 42.1458 38.0729 41.6146 38.0729L40.7292 38.0729 39.7552 38.6927C38.8698 39.3125 37.6302 38.9583 37.1875 37.9844 37.1875 37.9844 36.3021 36.7448 36.3021 36.2135 36.3021 32.4062 40.7292 32.6719 40.7292 32.6719L42.6771 32.6719C43.1198 32.6719 43.474 32.9375 43.5625 33.3802L44.0938 35.5938C44.1823 35.9479 44.5365 36.3021 44.9792 36.3021L45.3333 36.3021C45.776 36.3021 46.1302 36.0365 46.2188 35.5938L46.8385 32.3177C46.9271 32.0521 47.0156 31.7865 47.1927 31.5208L49.6719 28.4219C50.2031 27.8021 50.9115 27.4479 51.7083 27.4479L54.0104 27.4479C54.5417 27.4479 54.8958 27.0938 54.8958 26.5625L54.8958 25.6771 54.6302 25.4115C54.099 24.8802 54.4531 23.9062 55.25 23.9062L55.7812 23.9062C56.3125 23.9062 56.6667 24.2604 56.6667 24.7917 56.6667 25.3229 57.0208 25.6771 57.5521 25.6771L58.4375 25.6771 58.9688 23.375C59.1458 22.5781 58.7917 21.8698 58.1719 21.4271L50.6458 16.9115C50.5573 16.8229 50.3802 16.8229 50.2031 16.8229L48.6979 16.8229C47.724 16.8229 46.9271 17.6198 46.9271 18.5938L46.9271 19.4792C46.9271 20.0104 46.5729 20.3646 46.0417 20.3646L45.1562 20.3646 44.2708 19.4792 41.6146 19.4792C41.0833 19.4792 40.7292 19.125 40.7292 18.5938L40.7292 16.3802C40.7292 16.1146 40.8177 15.849 41.0833 15.6719L46.75 13.2812 47.6354 14.7865C47.8125 14.9635 47.9896 15.0521 48.2552 15.0521L50.4688 15.0521C51 15.0521 51.3542 14.6979 51.3542 14.1667L51.3542 13.724C63.6615 17.5312 72.6042 28.9531 72.6042 42.5 72.6042 55.0729 64.8125 65.875 53.8333 70.3906Z" fill="#A5A5A5" transform="matrix(1 0 0 1.04706 743 88)"/><path d="M53.3906 38.7812 49.1406 37.3646C48.7865 37.276 48.5208 37.276 48.1667 37.3646L45.1562 38.0729C44.8906 38.25 44.8021 38.6042 45.1562 38.9583L49.2292 38.9583C49.4948 38.9583 49.6719 38.9583 49.849 39.0469L52.9479 40.2865C53.4792 40.4635 54.0104 40.1094 54.0104 39.5781 54.0104 39.224 53.7448 38.8698 53.3906 38.7812Z" fill="#A5A5A5" transform="matrix(1 0 0 1.04706 743 88)"/></g></g></g><path d="M821.5 414.334C821.5 400.066 833.066 388.5 847.334 388.5L951.666 388.5C965.934 388.5 977.5 400.066 977.5 414.334L977.5 517.666C977.5 531.934 965.934 543.5 951.666 543.5L847.334 543.5C833.066 543.5 821.5 531.934 821.5 517.666Z" stroke="#2F528F" stroke-width="1.33333" stroke-miterlimit="8" fill="#44546A" fill-rule="evenodd"/><text fill="#FFFFFF" font-family="Calibri,Calibri_MSFontService,sans-serif" font-weight="400" font-size="21" transform="translate(850.494 422)">Extensions,</text><text fill="#FFFFFF" font-family="Calibri,Calibri_MSFontService,sans-serif" font-weight="400" font-size="21" transform="translate(848.054 448)">corrections,</text><text fill="#FFFFFF" font-family="Calibri,Calibri_MSFontService,sans-serif" font-weight="400" font-size="21" transform="translate(844.761 473)">Cartothèque</text><text fill="#FFFFFF" font-family="Calibri,Calibri_MSFontService,sans-serif" font-weight="400" font-size="21" transform="translate(890.547 499)">et</text><text fill="#FFFFFF" font-family="Calibri,Calibri_MSFontService,sans-serif" font-weight="400" font-size="21" transform="translate(841.007 524)">Médiathèque</text><path d="M1042.5 192.5 993.5 174.833 993.5 104.167C993.5 94.4097 1015.44 86.5001 1042.5 86.5001 1069.56 86.5001 1091.5 94.4097 1091.5 104.167L1091.5 174.833Z" stroke="#44546A" stroke-width="10.6667" stroke-miterlimit="8" fill="#FFFFFF" fill-rule="evenodd"/><path d="M1033.13 373.255C1028.34 368.47 1028.5 360.551 1033.48 355.568 1036.49 352.56 1039.5 349.553 1042.5 346.545 1045.39 349.433 1048.28 352.321 1051.17 355.21 1055.96 359.995 1055.8 367.914 1050.82 372.897 1045.83 377.88 1037.92 378.04 1033.13 373.255Z" stroke="#44546A" stroke-width="5.33333" stroke-miterlimit="8" fill="#FFFFFF" fill-rule="evenodd"/><path d="M0 0 0.00167979 154.62" stroke="#44546A" stroke-width="5.33333" stroke-miterlimit="8" fill="none" fill-rule="evenodd" transform="matrix(-1 0 0 1 1042.5 192.5)"/><path d="M812 351 968.958 351 983 364 968.958 377 812 377 826.042 364Z" fill="#44546A" fill-rule="evenodd"/><g><g><g><path d="M66.5 18.8125 66.5 50.3125 17.5 50.3125 17.5 18.8125 66.5 18.8125ZM73.5 52.0625 71.75 52.0625 71.75 17.0625C71.75 16.8 71.6625 16.45 71.6625 16.1875L73.5 16.1875C74.4625 16.1875 75.25 15.4 75.25 14.4375 75.25 13.475 74.4625 12.6875 73.5 12.6875L43.75 12.6875 43.75 10.9375C43.75 9.975 42.9625 9.1875 42 9.1875 41.0375 9.1875 40.25 9.975 40.25 10.9375L40.25 12.6875 10.5 12.6875C9.5375 12.6875 8.75 13.475 8.75 14.4375 8.75 15.4 9.5375 16.1875 10.5 16.1875L12.3375 16.1875C12.25 16.45 12.25 16.8 12.25 17.0625L12.25 52.0625 10.5 52.0625C9.5375 52.0625 8.75 52.85 8.75 53.8125 8.75 54.775 9.5375 55.5625 10.5 55.5625L37.1875 55.5625 23.7125 69.0375C23.0125 69.7375 23.0125 70.875 23.7125 71.4875 24.4125 72.1875 25.55 72.1875 26.1625 71.4875L40.1625 57.4875 40.1625 73.0625C40.1625 74.025 40.95 74.8125 41.9125 74.8125 42.875 74.8125 43.6625 74.025 43.6625 73.0625L43.6625 57.4875 57.6625 71.4875C58.3625 72.1875 59.4125 72.1875 60.1125 71.4875 60.8125 70.7875 60.8125 69.7375 60.1125 69.0375L46.8125 55.5625 73.5 55.5625C74.4625 55.5625 75.25 54.775 75.25 53.8125 75.25 52.85 74.4625 52.0625 73.5 52.0625Z" fill="#44546A" transform="matrix(1 0 0 1.04762 1001 94)"/></g></g></g><text fill="#4472C4" font-family="Calibri,Calibri_MSFontService,sans-serif" font-weight="700" font-size="24" transform="translate(286.383 52)">ÉTAPE</text><text fill="#4472C4" font-family="Calibri,Calibri_MSFontService,sans-serif" font-weight="700" font-size="24" transform="translate(352.496 52)">I</text><text fill="#ED7D31" font-family="Calibri,Calibri_MSFontService,sans-serif" font-weight="700" font-size="24" transform="translate(519.776 678)">ÉTAPE</text><text fill="#ED7D31" font-family="Calibri,Calibri_MSFontService,sans-serif" font-weight="700" font-size="24" transform="translate(585.89 678)">II</text><text fill="#A5A5A5" font-family="Calibri,Calibri_MSFontService,sans-serif" font-weight="700" font-size="24" transform="translate(742.612 51)">ÉTAPE</text><text fill="#A5A5A5" font-family="Calibri,Calibri_MSFontService,sans-serif" font-weight="700" font-size="24" transform="translate(808.726 51)">III</text><text fill="#44546A" font-family="Calibri,Calibri_MSFontService,sans-serif" font-weight="700" font-size="24" transform="translate(981.156 678)">ÉTAPE</text><text fill="#44546A" font-family="Calibri,Calibri_MSFontService,sans-serif" font-weight="700" font-size="24" transform="translate(1047.27 678)">IV</text></g></svg>