<svg width="1280" height="720" xmlns="http://www.w3.org/2000/svg" xmlns:xlink="http://www.w3.org/1999/xlink" overflow="hidden"><g><rect x="0" y="0" width="1280" height="720" fill="#FFFFFF"/><path d="M639.43 369.722 627 98" stroke="#000000" stroke-width="2" stroke-miterlimit="8" fill="none" fill-rule="evenodd"/><path d="M0 0 4.35171 168.738" stroke="#AFABAB" stroke-width="2" stroke-miterlimit="8" fill="none" fill-rule="evenodd" transform="matrix(1 0 0 -1 640 541.738)"/><path d="M210 317 269.348 429.698" stroke="#AFABAB" stroke-width="2" stroke-miterlimit="8" fill="none" fill-rule="evenodd"/><path d="M0 0 143.617 74.7868" stroke="#AFABAB" stroke-width="2" stroke-miterlimit="8" fill="none" fill-rule="evenodd" transform="matrix(1 0 0 -1 304 572.787)"/><path d="M0 0 27.515 115.998" stroke="#AFABAB" stroke-width="2" stroke-miterlimit="8" fill="none" fill-rule="evenodd" transform="matrix(1 0 0 -1 420 613.998)"/><path d="M0 0 197.332 124.906" stroke="#000000" stroke-width="2" stroke-miterlimit="8" fill="none" fill-rule="evenodd" transform="matrix(-1 0 0 1 644.332 373)"/><path d="M0 0 363.597 55.1318" stroke="#000000" stroke-width="2" stroke-miterlimit="8" fill="none" fill-rule="evenodd" transform="matrix(-1 0 0 1 643.597 372)"/><path d="M639.897 370.493 380 327" stroke="#000000" stroke-width="2" stroke-miterlimit="8" fill="none" fill-rule="evenodd"/><path d="M805.276 655.33 791 505" stroke="#AFABAB" stroke-width="2" stroke-miterlimit="8" fill="none" fill-rule="evenodd"/><path d="M906.86 645.779 791 505" stroke="#AFABAB" stroke-width="2" stroke-miterlimit="8" fill="none" fill-rule="evenodd"/><path d="M1005.01 616.806 809 513" stroke="#AFABAB" stroke-width="2" stroke-miterlimit="8" fill="none" fill-rule="evenodd"/><path d="M1000.59 545.519 793 497" stroke="#AFABAB" stroke-width="2" stroke-miterlimit="8" fill="none" fill-rule="evenodd"/><path d="M0 0 165.48 20.8141" stroke="#AFABAB" stroke-width="2" stroke-miterlimit="8" fill="none" fill-rule="evenodd" transform="matrix(-1 0 0 1 950.48 478)"/><path d="M1046.88 379.453 882 281" stroke="#AFABAB" stroke-width="2" stroke-miterlimit="8" fill="none" fill-rule="evenodd"/><path d="M1057.36 291.699 876 252" stroke="#AFABAB" stroke-width="2" stroke-miterlimit="8" fill="none" fill-rule="evenodd"/><path d="M0 0 134.842 32.3361" stroke="#AFABAB" stroke-width="2" stroke-miterlimit="8" fill="none" fill-rule="evenodd" transform="matrix(-1 0 0 1 1008.84 212)"/><path d="M0 0 203.301 55.9009" stroke="#AFABAB" stroke-width="2" stroke-miterlimit="8" fill="none" fill-rule="evenodd" transform="matrix(-1 0 0 1 988.301 102)"/><path d="M0 0 114.094 193.559" stroke="#000000" stroke-width="2" stroke-miterlimit="8" fill="none" fill-rule="evenodd" transform="matrix(1 0 0 -1 653 360.559)"/><path d="M639.52 369.704 302 158" stroke="#000000" stroke-width="2" stroke-miterlimit="8" fill="none" fill-rule="evenodd"/><path d="M909.59 369.639 874 250" stroke="#AFABAB" stroke-width="2" stroke-miterlimit="8" fill="none" fill-rule="evenodd"/><path d="M0 0 143.003 69.5936" stroke="#000000" stroke-width="2" stroke-miterlimit="8" fill="none" fill-rule="evenodd" transform="matrix(1 0 0 -1 698 328.594)"/><path d="M639.782 370.348 459 104" stroke="#000000" stroke-width="2" stroke-miterlimit="8" fill="none" fill-rule="evenodd"/><path d="M640 373 788.216 501.375" stroke="#000000" stroke-width="2" stroke-miterlimit="8" fill="none" fill-rule="evenodd"/><text fill="#FFFFFF" font-family="Segoe UI,Segoe UI_MSFontService,sans-serif" font-weight="700" font-size="32" transform="translate(592.182 398)">Espacio</text><path d="M730 499C730 465.863 756.863 439 790 439 823.137 439 850 465.863 850 499 850 532.137 823.137 559 790 559 756.863 559 730 532.137 730 499Z" stroke="#8FAADC" stroke-width="4" stroke-miterlimit="8" fill="#4472C4" fill-rule="evenodd"/><text fill="#FFFFFF" font-family="Segoe UI,Segoe UI_MSFontService,sans-serif" font-weight="400" font-size="27" transform="translate(763.053 493)">Peça</text><text fill="#FFFFFF" font-family="Segoe UI,Segoe UI_MSFontService,sans-serif" font-weight="400" font-size="27" transform="translate(778.139 525)">IV</text><path d="M565 530C565 511.775 599.25 497 641.5 497 683.75 497 718 511.775 718 530 718 548.225 683.75 563 641.5 563 599.25 563 565 548.225 565 530Z" stroke="#B4C7E7" stroke-width="4" stroke-miterlimit="8" fill="#8FAADC" fill-rule="evenodd"/><text fill="#203864" font-family="Segoe UI,Segoe UI_MSFontService,sans-serif" font-weight="400" font-size="19" transform="translate(600.671 526)">Resumido</text><text fill="#203864" font-family="Segoe UI,Segoe UI_MSFontService,sans-serif" font-weight="400" font-size="19" transform="translate(597.745 549)">e Ilustrado</text><path d="M863 389C863 358.624 887.4 334 917.5 334 947.599 334 972 358.624 972 389 972 419.376 947.599 444 917.5 444 887.4 444 863 419.376 863 389Z" stroke="#E09DC8" stroke-width="4" stroke-miterlimit="8" fill="#CB5BA3" fill-rule="evenodd"/><text fill="#FFFFFF" font-family="Segoe UI,Segoe UI_MSFontService,sans-serif" font-weight="400" font-size="16" transform="translate(879.833 395)">Concordex</text><path d="M796 247.5C796 208.564 827.34 177 866 177 904.66 177 936 208.564 936 247.5 936 286.436 904.66 318 866 318 827.34 318 796 286.436 796 247.5Z" stroke="#E09DC8" stroke-width="4" stroke-miterlimit="8" fill="#CB5BA3" fill-rule="evenodd"/><text fill="#FFFFFF" font-family="Segoe UI,Segoe UI_MSFontService,sans-serif" font-weight="400" font-size="19" transform="translate(819.583 243)">Referências</text><text fill="#FFFFFF" font-family="Segoe UI,Segoe UI_MSFontService,sans-serif" font-weight="400" font-size="19" transform="translate(830.203 266)">cruzadas</text><path d="M519 360C519 293.174 573.174 239 640 239 706.826 239 761 293.174 761 360 761 426.826 706.826 481 640 481 573.174 481 519 426.826 519 360Z" stroke="#8FAADC" stroke-width="4" stroke-miterlimit="8" fill="#4472C4" fill-rule="evenodd"/><g><g><g><path d="M668.368 265.229 668.368 265.229C669.148 268.127 671.266 270.579 674.052 271.917L674.052 271.917C671.266 273.254 669.259 275.706 668.368 278.604L668.368 278.604C667.588 275.706 665.47 273.254 662.683 271.917L662.683 271.917C665.47 270.579 667.588 268.127 668.368 265.229Z" fill="#FFFFFF"/><path d="M597.034 289.75 597.034 289.75C597.815 292.648 599.932 295.1 602.719 296.438L602.719 296.438C599.932 297.775 597.926 300.227 597.034 303.125L597.034 303.125C596.254 300.227 594.136 297.775 591.35 296.438L591.35 296.438C594.136 295.1 596.254 292.648 597.034 289.75Z" fill="#FFFFFF"/><path d="M608.069 267.458 608.069 267.458C608.737 269.91 610.521 271.917 612.75 273.031L612.75 273.031C610.409 274.146 608.737 276.152 608.069 278.604L608.069 278.604C607.4 276.152 605.617 274.146 603.388 273.031L603.388 273.031C605.617 271.917 607.4 269.91 608.069 267.458Z" fill="#FFFFFF"/><path d="M681.631 285.292 681.631 285.292C682.3 287.744 684.083 289.75 686.312 290.865L686.312 290.865C683.972 291.979 682.3 293.985 681.631 296.438L681.631 296.438C680.963 293.985 679.179 291.979 676.95 290.865L676.95 290.865C679.179 289.75 680.963 287.744 681.631 285.292Z" fill="#FFFFFF"/><path d="M639.5 307.026C638.608 307.026 637.828 306.246 637.828 305.354L637.828 294.208C637.828 293.317 638.608 292.536 639.5 292.536 640.392 292.536 641.172 293.317 641.172 294.208L641.172 305.354C641.172 306.246 640.392 307.026 639.5 307.026Z" fill="#FFFFFF"/><path d="M639.5 289.193C638.608 289.193 637.828 288.413 637.828 287.521L637.828 278.604C637.828 277.712 638.608 276.932 639.5 276.932 640.392 276.932 641.172 277.712 641.172 278.604L641.172 287.521C641.172 288.413 640.392 289.193 639.5 289.193Z" fill="#FFFFFF"/><path d="M639.5 273.589C638.608 273.589 637.828 272.808 637.828 271.917L637.828 267.458C637.828 266.567 638.608 265.786 639.5 265.786 640.392 265.786 641.172 266.567 641.172 267.458L641.172 271.917C641.172 272.808 640.392 273.589 639.5 273.589Z" fill="#FFFFFF"/><path d="M651.76 299.224C651.649 299.224 651.537 299.224 651.426 299.224 650.534 299.001 649.977 298.109 650.2 297.218L652.095 288.524C652.318 287.632 653.209 287.075 654.101 287.298 654.993 287.521 655.55 288.413 655.327 289.304L653.432 297.998C653.209 298.667 652.541 299.224 651.76 299.224Z" fill="#FFFFFF"/><path d="M655.104 283.954C654.993 283.954 654.881 283.954 654.77 283.954 653.878 283.731 653.321 282.84 653.544 281.948L653.544 281.948 654.993 275.372C655.216 274.48 655.996 273.923 656.999 274.034 657.891 274.257 658.448 275.038 658.336 276.041 658.336 276.041 658.336 276.041 658.336 276.152L656.888 282.728C656.553 283.397 655.884 283.954 655.104 283.954Z" fill="#FFFFFF"/><path d="M662.906 296.995C662.015 296.995 661.234 296.215 661.234 295.323 661.234 294.989 661.346 294.654 661.569 294.32L669.148 283.285C669.705 282.505 670.708 282.394 671.489 282.951 672.157 283.508 672.38 284.4 671.934 285.18L664.355 296.215C664.021 296.772 663.464 296.995 662.906 296.995Z" fill="#FFFFFF"/><path d="M627.24 299.224C626.459 299.224 625.791 298.667 625.568 297.886L623.227 286.964C623.004 286.072 623.673 285.18 624.565 284.957 625.456 284.734 626.348 285.292 626.459 286.183L628.8 297.106C629.023 297.998 628.466 298.89 627.574 299.112 627.463 299.224 627.351 299.224 627.24 299.224Z" fill="#FFFFFF"/><path d="M623.45 281.836C622.67 281.836 622.001 281.279 621.778 280.499L620.886 276.152C620.664 275.26 621.221 274.369 622.112 274.146 623.004 273.923 623.896 274.48 624.119 275.372 624.119 275.372 624.119 275.372 624.119 275.483L625.01 279.83C625.233 280.722 624.676 281.614 623.784 281.836L623.784 281.836C623.673 281.836 623.561 281.836 623.45 281.836L623.45 281.836Z" fill="#FFFFFF"/><path d="M616.094 296.995C615.536 296.995 614.979 296.772 614.756 296.326L607.177 285.292C606.731 284.511 606.954 283.508 607.734 282.951 608.515 282.505 609.406 282.617 609.964 283.397L617.543 294.431C618.1 295.211 617.877 296.215 617.097 296.772 616.763 296.883 616.428 296.995 616.094 296.995Z" fill="#FFFFFF"/><path d="M688.319 354.284 684.975 318.172C684.864 317.057 683.86 316.166 682.746 316.166 682.3 316.166 681.631 316.166 681.074 316.166L680.517 309.701 678.51 309.59C676.839 309.478 675.167 309.59 673.606 309.701L673.049 303.682 671.377 303.348C659.674 301.899 647.971 305.8 639.5 314.048 631.029 305.8 619.326 301.899 607.623 303.348L605.951 303.682 605.394 309.701C603.722 309.59 602.161 309.478 600.49 309.59L598.595 309.701 598.037 316.166C597.369 316.166 596.811 316.166 596.366 316.166 595.251 316.166 594.248 317.057 594.136 318.172L590.793 354.284C590.57 355.51 591.461 356.625 592.688 356.736 592.799 356.736 592.91 356.736 593.022 356.736 599.821 356.514 618.88 356.959 634.373 367.102 635.153 367.548 635.933 367.882 636.825 367.882L642.398 367.882C643.29 367.882 644.07 367.659 644.739 367.214 661.011 357.071 679.514 356.625 686.09 356.848 687.316 356.848 688.319 355.956 688.43 354.73 688.319 354.396 688.319 354.396 688.319 354.284ZM641.729 318.06C648.862 310.704 658.782 306.915 668.925 307.472L671.934 342.024C666.696 343.027 653.098 346.371 641.729 356.179L641.729 318.06ZM610.075 307.583C620.218 307.026 630.138 310.816 637.271 318.172L637.271 356.291C625.902 346.482 612.304 343.139 607.066 342.135L610.075 307.583ZM599.375 348.823 602.719 313.936C603.388 313.936 604.168 314.048 605.059 314.048L602.273 345.925 604.391 346.148C604.614 346.148 623.45 348.6 636.602 361.641L636.602 361.641C622.001 350.495 605.728 349.046 599.375 348.823ZM642.398 361.864 642.398 361.864C655.773 348.711 674.498 346.148 674.609 346.148L676.727 345.925 673.941 314.048C674.832 313.936 675.612 313.936 676.281 313.936L679.625 348.823C673.272 349.046 656.999 350.606 642.398 361.864Z" fill="#FFFFFF"/></g></g></g><text fill="#FFFFFF" font-family="Segoe UI,Segoe UI_MSFontService,sans-serif" font-weight="700" font-size="32" transform="translate(567.78 409)">O Livro de</text><text fill="#FFFFFF" font-family="Segoe UI,Segoe UI_MSFontService,sans-serif" font-weight="700" font-size="32" transform="translate(589.214 448)">Urântia</text><path d="M207 158C207 106.085 249.085 64 301 64 352.915 64 395 106.085 395 158 395 209.915 352.915 252 301 252 249.085 252 207 209.915 207 158Z" stroke="#F0A11F" stroke-width="4" stroke-miterlimit="8" fill="#BE7B0D" fill-rule="evenodd"/><g><g><g><path d="M60.1667 58.5833C60.1667 59.4542 59.4542 60.1667 58.5833 60.1667 57.7125 60.1667 57 59.4542 57 58.5833L57 20.5833 60.1667 20.5833 60.1667 58.5833ZM17.4167 60.1667C16.5458 60.1667 15.8333 59.4542 15.8333 58.5833L15.8333 15.8333 52.25 15.8333 52.25 58.5833C52.25 59.1375 52.3292 59.6917 52.4875 60.1667L17.4167 60.1667ZM57 15.8333 57 11.0833 11.0833 11.0833 11.0833 58.5833C11.0833 62.0667 13.9333 64.9167 17.4167 64.9167L58.5833 64.9167C62.0667 64.9167 64.9167 62.0667 64.9167 58.5833L64.9167 15.8333 57 15.8333Z" stroke="#FFFFFF" stroke-width="1.97405" fill="none" transform="matrix(1.01316 0 0 1 261 85)"/><path d="M19 20.5833 49.0833 20.5833 49.0833 23.75 19 23.75Z" stroke="#FFFFFF" stroke-width="1.97405" fill="none" transform="matrix(1.01316 0 0 1 261 85)"/><path d="M35.625 26.9167 49.0833 26.9167 49.0833 30.0833 35.625 30.0833Z" stroke="#FFFFFF" stroke-width="1.97405" fill="none" transform="matrix(1.01316 0 0 1 261 85)"/><path d="M35.625 33.25 49.0833 33.25 49.0833 36.4167 35.625 36.4167Z" stroke="#FFFFFF" stroke-width="1.97405" fill="none" transform="matrix(1.01316 0 0 1 261 85)"/><path d="M19 26.9167 32.4583 26.9167 32.4583 36.4167 19 36.4167Z" stroke="#FFFFFF" stroke-width="1.97405" fill="none" transform="matrix(1.01316 0 0 1 261 85)"/><path d="M19 39.5833 49.0833 39.5833 49.0833 42.75 19 42.75Z" stroke="#FFFFFF" stroke-width="1.97405" fill="none" transform="matrix(1.01316 0 0 1 261 85)"/><path d="M35.625 45.9167 49.0833 45.9167 49.0833 55.4167 35.625 55.4167Z" stroke="#FFFFFF" stroke-width="1.97405" fill="none" transform="matrix(1.01316 0 0 1 261 85)"/><path d="M19 45.9167 32.4583 45.9167 32.4583 49.0833 19 49.0833Z" stroke="#FFFFFF" stroke-width="1.97405" fill="none" transform="matrix(1.01316 0 0 1 261 85)"/><path d="M19 52.25 32.4583 52.25 32.4583 55.4167 19 55.4167Z" stroke="#FFFFFF" stroke-width="1.97405" fill="none" transform="matrix(1.01316 0 0 1 261 85)"/></g></g></g><text fill="#FFFFFF" font-family="Segoe UI,Segoe UI_MSFontService,sans-serif" font-weight="700" font-size="24" transform="translate(233.862 186)">Hemeroteca</text><path d="M370 100C370 50.8467 409.623 11 458.5 11 507.377 11 547 50.8467 547 100 547 149.153 507.377 189 458.5 189 409.623 189 370 149.153 370 100Z" stroke="#E78F7A" stroke-width="4" stroke-miterlimit="8" fill="#D24726" fill-rule="evenodd"/><g><g><g><path d="M483.4 59.2 479.933 57.9333 479.933 50.6667 483.4 49.2 459.933 40.5333 431.4 50.5333C428.667 51.8667 428.6 55.5333 428.6 58.5333 428.6 59.5333 428.733 60.5333 428.933 61.4667 426.667 62.9333 426.6 66.3333 426.6 69.2 426.6 71.5333 427.133 73.6667 428.6 75 428.267 76.1333 428.467 77.5333 428.467 79.2 428.467 82.2 429.267 84.9333 431.933 85.8667L450.467 93.5333 483.267 79.9333 479.8 78.6667 479.8 71.3333 483.267 69.8667 477.933 67.8667 477.933 61.4667 483.4 59.2ZM432.2 55.2 450.733 62.4667 477.333 51.7333 477.333 57.4667 450.733 68.5333 432.2 61.2 432.2 55.2ZM477.2 78.2 450.6 89.2 432 81.8667 432 76.6667 448.6 83.4667 477.267 72.1333 477.2 78.2ZM475.333 68.2 448.733 79.2 430.2 71.8667 430.2 65.8667 449.267 73.4667 475.4 62.5333 475.4 68.2Z" stroke="#FFFFFF" stroke-width="1.75342" fill="none"/></g></g></g><text fill="#FFFFFF" font-family="Segoe UI,Segoe UI_MSFontService,sans-serif" font-weight="700" font-size="24" transform="translate(403.137 131)">B</text><text fill="#FFFFFF" font-family="Segoe UI,Segoe UI_MSFontService,sans-serif" font-weight="700" font-size="24" transform="translate(418.471 131)">iblioteca</text><path d="M901 99.5C901 51.1751 939.951 12 988 12 1036.05 12 1075 51.1751 1075 99.5 1075 147.825 1036.05 187 988 187 939.951 187 901 147.825 901 99.5Z" stroke="#E09DC8" stroke-width="4" stroke-miterlimit="8" fill="#CB5BA3" fill-rule="evenodd"/><g><g><g><path d="M64.5 16.5 64.5 53.25 7.5 53.25 7.5 16.5 3 16.5 3 58.5 29.25 58.5C29.25 59.775 30.225 60.75 31.5 60.75L40.5 60.75C41.775 60.75 42.75 59.775 42.75 58.5L69 58.5 69 16.5 64.5 16.5Z" fill="#FFFFFF" transform="matrix(1 0 0 1.01389 949 27)"/><path d="M61.5 12 10.5 12 10.5 50.25 61.5 50.25 61.5 12ZM15 16.5 34.5 16.5 34.5 45.75 15 45.75 15 16.5ZM57 45.75 37.5 45.75 37.5 16.5 57 16.5 57 45.75Z" fill="#FFFFFF" transform="matrix(1 0 0 1.01389 949 27)"/><path d="M42 24 52.5 24 52.5 26.25 42 26.25Z" fill="#FFFFFF" transform="matrix(1 0 0 1.01389 949 27)"/><path d="M42 28.5 52.5 28.5 52.5 30.75 42 30.75Z" fill="#FFFFFF" transform="matrix(1 0 0 1.01389 949 27)"/><path d="M42 33 49.275 33 49.275 35.25 42 35.25Z" fill="#FFFFFF" transform="matrix(1 0 0 1.01389 949 27)"/></g></g></g><text fill="#FFFFFF" font-family="Segoe UI,Segoe UI_MSFontService,sans-serif" font-weight="700" font-size="24" transform="translate(917.825 130)">Enciclopédia</text><path d="M698 158.5C698 119.564 729.34 88 768 88 806.66 88 838 119.564 838 158.5 838 197.436 806.66 229 768 229 729.34 229 698 197.436 698 158.5Z" stroke="#E09DC8" stroke-width="4" stroke-miterlimit="8" fill="#CB5BA3" fill-rule="evenodd"/><text fill="#FFFFFF" font-family="Segoe UI,Segoe UI_MSFontService,sans-serif" font-weight="400" font-size="19" transform="translate(742.903 154)">Índice</text><text fill="#FFFFFF" font-family="Segoe UI,Segoe UI_MSFontService,sans-serif" font-weight="400" font-size="19" transform="translate(731.643 177)">temático</text><path d="M998 385.5C998 358.162 1019.94 336 1047 336 1074.06 336 1096 358.162 1096 385.5 1096 412.838 1074.06 435 1047 435 1019.94 435 998 412.838 998 385.5Z" stroke="#E09DC8" stroke-width="4" stroke-miterlimit="8" fill="#CB5BA3" fill-rule="evenodd"/><text fill="#FFFFFF" font-family="Segoe UI,Segoe UI_MSFontService,sans-serif" font-weight="400" font-size="16" transform="translate(1040.94 382)">O</text><text fill="#FFFFFF" font-family="Segoe UI,Segoe UI_MSFontService,sans-serif" font-weight="400" font-size="16" transform="translate(1020.02 401)">Alcorão</text><path d="M1014 295.5C1014 268.162 1036.16 246 1063.5 246 1090.84 246 1113 268.162 1113 295.5 1113 322.838 1090.84 345 1063.5 345 1036.16 345 1014 322.838 1014 295.5Z" stroke="#E09DC8" stroke-width="4" stroke-miterlimit="8" fill="#CB5BA3" fill-rule="evenodd"/><text fill="#FFFFFF" font-family="Segoe UI,Segoe UI_MSFontService,sans-serif" font-weight="400" font-size="16" transform="translate(1032.46 293)">Paralelos</text><text fill="#FFFFFF" font-family="Segoe UI,Segoe UI_MSFontService,sans-serif" font-weight="400" font-size="16" transform="translate(1034.23 312)">de livros</text><path d="M955 212.5C955 181.848 979.848 157 1010.5 157 1041.15 157 1066 181.848 1066 212.5 1066 243.152 1041.15 268 1010.5 268 979.848 268 955 243.152 955 212.5Z" stroke="#E09DC8" stroke-width="4" stroke-miterlimit="8" fill="#CB5BA3" fill-rule="evenodd"/><text fill="#FFFFFF" font-family="Segoe UI,Segoe UI_MSFontService,sans-serif" font-weight="400" font-size="16" transform="translate(975.485 219)">Paramony</text><path d="M894 476.5C894 449.714 915.49 428 942 428 968.51 428 990 449.714 990 476.5 990 503.286 968.51 525 942 525 915.49 525 894 503.286 894 476.5Z" stroke="#8FAADC" stroke-width="4" stroke-miterlimit="8" fill="#4472C4" fill-rule="evenodd"/><text fill="#FFFFFF" font-family="Segoe UI,Segoe UI_MSFontService,sans-serif" font-weight="400" font-size="19" transform="translate(913.061 483)">Novela</text><path d="M975 523C975 486.549 1004.55 457 1041 457 1077.45 457 1107 486.549 1107 523 1107 559.451 1077.45 589 1041 589 1004.55 589 975 559.451 975 523Z" stroke="#8FAADC" stroke-width="4" stroke-miterlimit="8" fill="#4472C4" fill-rule="evenodd"/><text fill="#FFFFFF" font-family="Segoe UI,Segoe UI_MSFontService,sans-serif" font-weight="400" font-size="19" transform="translate(1015.46 518)">Banda</text><text fill="#FFFFFF" font-family="Segoe UI,Segoe UI_MSFontService,sans-serif" font-weight="400" font-size="19" transform="translate(995.128 541)">Desenhad</text><text fill="#FFFFFF" font-family="Segoe UI,Segoe UI_MSFontService,sans-serif" font-weight="400" font-size="19" transform="translate(1077.46 541)">a</text><path d="M951 610.5C951 583.714 972.49 562 999 562 1025.51 562 1047 583.714 1047 610.5 1047 637.286 1025.51 659 999 659 972.49 659 951 637.286 951 610.5Z" stroke="#8FAADC" stroke-width="4" stroke-miterlimit="8" fill="#4472C4" fill-rule="evenodd"/><text fill="#FFFFFF" font-family="Segoe UI,Segoe UI_MSFontService,sans-serif" font-weight="400" font-size="19" transform="translate(976.72 617)">Filme</text><path d="M748 653C748 622.624 772.624 598 803 598 833.376 598 858 622.624 858 653 858 683.376 833.376 708 803 708 772.624 708 748 683.376 748 653Z" stroke="#8FAADC" stroke-width="4" stroke-miterlimit="8" fill="#4472C4" fill-rule="evenodd"/><text fill="#FFFFFF" font-family="Segoe UI,Segoe UI_MSFontService,sans-serif" font-weight="400" font-size="19" transform="translate(775.006 637)">Untold</text><text fill="#FFFFFF" font-family="Segoe UI,Segoe UI_MSFontService,sans-serif" font-weight="400" font-size="19" transform="translate(770.773 660)">Story of</text><text fill="#FFFFFF" font-family="Segoe UI,Segoe UI_MSFontService,sans-serif" font-weight="400" font-size="19" transform="translate(781.519 682)">Jesus</text><path d="M861 660C861 629.624 885.624 605 916 605 946.376 605 971 629.624 971 660 971 690.376 946.376 715 916 715 885.624 715 861 690.376 861 660Z" stroke="#8FAADC" stroke-width="4" stroke-miterlimit="8" fill="#4472C4" fill-rule="evenodd"/><text fill="#FFFFFF" font-family="Segoe UI,Segoe UI_MSFontService,sans-serif" font-weight="400" font-size="19" transform="translate(880.99 655)">Discover</text><text fill="#FFFFFF" font-family="Segoe UI,Segoe UI_MSFontService,sans-serif" font-weight="400" font-size="19" transform="translate(894.77 678)">Jesus</text><path d="M317 329.5C317 284.489 353.489 248 398.5 248 443.511 248 480 284.489 480 329.5 480 374.511 443.511 411 398.5 411 353.489 411 317 374.511 317 329.5Z" stroke="#C39CDE" stroke-width="4" stroke-miterlimit="8" fill="#9B5AC8" fill-rule="evenodd"/><g><g><g><path d="M59.3125 38.7812C57.1833 38.7812 55.5104 37.5646 55.5104 36.1198 55.5104 34.675 57.1833 33.4583 59.3125 33.4583 61.4417 33.4583 63.1146 34.675 63.1146 36.1198 63.1146 37.5646 61.4417 38.7812 59.3125 38.7812ZM55.5104 47.1458C53.3812 47.1458 51.7083 45.9292 51.7083 44.4844 51.7083 43.0396 53.3812 41.8229 55.5104 41.8229 57.6396 41.8229 59.3125 43.0396 59.3125 44.4844 59.3125 45.9292 57.6396 47.1458 55.5104 47.1458ZM47.1458 25.8542C45.0167 25.8542 43.3438 24.6375 43.3438 23.1927 43.3438 21.7479 45.0167 20.5312 47.1458 20.5312 49.275 20.5312 50.9479 21.7479 50.9479 23.1927 50.9479 24.6375 49.275 25.8542 47.1458 25.8542ZM47.1458 51.7083C45.0167 51.7083 43.3438 50.4917 43.3438 49.0469 43.3438 47.6021 45.0167 46.3854 47.1458 46.3854 49.275 46.3854 50.9479 47.6021 50.9479 49.0469 50.9479 50.4917 49.275 51.7083 47.1458 51.7083ZM36.5 53.9896C34.3708 53.9896 32.6979 52.7729 32.6979 51.3281 32.6979 49.8833 34.3708 48.6667 36.5 48.6667 38.6292 48.6667 40.3021 49.8833 40.3021 51.3281 40.3021 52.7729 38.6292 53.9896 36.5 53.9896ZM32.3937 23.2688C33.6104 22.0521 35.2073 21.824 36.0438 22.6604 36.8802 23.4969 36.576 25.0938 35.4354 26.3104 34.2188 27.5271 32.6219 27.7552 31.7854 26.9188 30.8729 26.0823 31.1771 24.4094 32.3937 23.2688ZM25.8542 52.4688C23.725 52.4688 22.0521 51.2521 22.0521 49.8073 22.0521 48.3625 23.725 47.1458 25.8542 47.1458 27.9833 47.1458 29.6562 48.3625 29.6562 49.8073 29.6562 51.2521 27.9833 52.4688 25.8542 52.4688ZM55.5104 25.8542C57.6396 25.8542 59.3125 27.0708 59.3125 28.5156 59.3125 29.9604 57.6396 31.1771 55.5104 31.1771 53.3812 31.1771 51.7083 29.9604 51.7083 28.5156 51.7083 27.0708 53.3812 25.8542 55.5104 25.8542ZM36.5 15.2083C19.2385 15.2083 21.976 21.976 23.5729 23.5729L27.375 27.375C29.8083 29.8844 26.8427 32.6979 24.0292 31.4813L14.524 27.375C7.83229 24.4854 6.08333 32.6219 6.08333 36.5 6.08333 48.2865 19.6948 57.7917 36.5 57.7917 53.3052 57.7917 66.9167 48.2865 66.9167 36.5 66.9167 24.7135 53.3052 15.2083 36.5 15.2083Z" fill="#FFFFFF" transform="matrix(1 0 0 1.0137 361 260)"/></g></g></g><text fill="#FFFFFF" font-family="Segoe UI,Segoe UI_MSFontService,sans-serif" font-weight="700" font-size="24" transform="translate(337.628 347)">Pinacoteca</text><path d="M190 445.5C190 402.698 224.698 368 267.5 368 310.302 368 345 402.698 345 445.5 345 488.302 310.302 523 267.5 523 224.698 523 190 488.302 190 445.5Z" stroke="#A9D18E" stroke-width="4" stroke-miterlimit="8" fill="#548235" fill-rule="evenodd"/><g><g><g><path d="M281.458 395.077C279.783 395.077 278.388 393.681 278.457 391.936 278.457 390.261 279.853 388.866 281.528 388.866 283.203 388.866 284.599 390.261 284.599 391.936 284.599 392.774 284.25 393.542 283.692 394.1 283.064 394.728 282.296 395.077 281.458 395.077ZM278.457 385.376C276.922 385.934 275.735 387.121 274.968 388.517 273.991 390.401 273.851 392.565 274.619 394.519L277.969 401.777 280.202 406.383C280.411 406.872 280.9 407.151 281.458 407.151 282.017 407.151 282.505 406.872 282.715 406.383L284.948 401.777 288.298 394.589C288.647 393.751 288.786 392.844 288.786 391.936 288.786 387.051 283.761 383.352 278.457 385.376Z" fill="#FFFFFF"/><path d="M266.104 424.808 254.938 419.225 254.938 396.473 266.104 402.056 266.104 424.808ZM252.146 419.225 243.771 423.413 243.771 400.66 252.146 396.473 252.146 419.225ZM290.81 395.775 290.81 395.775 289.066 399.544 291.229 400.66 291.229 423.413 282.854 419.225 282.854 409.943 280.062 409.943 280.062 419.225 268.896 424.808 268.896 402.056 273.851 399.544 272.106 395.775 267.5 398.078 253.542 391.099 239.583 398.078 239.583 430.182 253.542 423.203 267.5 430.182 281.458 423.203 295.417 430.182 295.417 398.078 290.81 395.775Z" fill="#FFFFFF"/></g></g></g><text fill="#FFFFFF" font-family="Segoe UI,Segoe UI_MSFontService,sans-serif" font-weight="700" font-size="24" transform="translate(214.799 457)">Cartoteca</text><path d="M369 501.5C369 457.593 404.817 422 449 422 493.183 422 529 457.593 529 501.5 529 545.407 493.183 581 449 581 404.817 581 369 545.407 369 501.5Z" stroke="#548235" stroke-width="4" stroke-miterlimit="8" fill="#385723" fill-rule="evenodd"/><g><g><g><path d="M466.042 453.005 466.042 478.13 426.958 478.13 426.958 453.005 466.042 453.005ZM471.625 479.526 470.229 479.526 470.229 451.609C470.229 451.4 470.159 451.121 470.159 450.911L471.625 450.911C472.393 450.911 473.021 450.283 473.021 449.516 473.021 448.748 472.393 448.12 471.625 448.12L447.896 448.12 447.896 446.724C447.896 445.956 447.268 445.328 446.5 445.328 445.732 445.328 445.104 445.956 445.104 446.724L445.104 448.12 421.375 448.12C420.607 448.12 419.979 448.748 419.979 449.516 419.979 450.283 420.607 450.911 421.375 450.911L422.841 450.911C422.771 451.121 422.771 451.4 422.771 451.609L422.771 479.526 421.375 479.526C420.607 479.526 419.979 480.154 419.979 480.922 419.979 481.69 420.607 482.318 421.375 482.318L442.661 482.318 431.914 493.066C431.355 493.624 431.355 494.531 431.914 495.02 432.472 495.578 433.379 495.578 433.868 495.02L445.034 483.853 445.034 496.276C445.034 497.044 445.663 497.672 446.43 497.672 447.198 497.672 447.826 497.044 447.826 496.276L447.826 483.853 458.993 495.02C459.551 495.578 460.389 495.578 460.947 495.02 461.505 494.461 461.505 493.624 460.947 493.066L450.339 482.318 471.625 482.318C472.393 482.318 473.021 481.69 473.021 480.922 473.021 480.154 472.393 479.526 471.625 479.526Z" fill="#FFFFFF"/></g></g></g><text fill="#FFFFFF" font-family="Segoe UI,Segoe UI_MSFontService,sans-serif" font-weight="700" font-size="24" transform="translate(388.932 526)">Mediateca</text><path d="M219 596.5C219 560.325 248.325 531 284.5 531 320.675 531 350 560.325 350 596.5 350 632.675 320.675 662 284.5 662 248.325 662 219 632.675 219 596.5Z" stroke="#548235" stroke-width="4" stroke-miterlimit="8" fill="#385723" fill-rule="evenodd"/><text fill="#FFFFFF" font-family="Segoe UI,Segoe UI_MSFontService,sans-serif" font-weight="400" font-size="19" transform="translate(252.126 592)">Arquivo</text><text fill="#FFFFFF" font-family="Segoe UI,Segoe UI_MSFontService,sans-serif" font-weight="400" font-size="19" transform="translate(248.773 615)">histórico</text><path d="M365 652.5C365 618.534 392.311 591 426 591 459.689 591 487 618.534 487 652.5 487 686.466 459.689 714 426 714 392.311 714 365 686.466 365 652.5Z" stroke="#548235" stroke-width="4" stroke-miterlimit="8" fill="#385723" fill-rule="evenodd"/><text fill="#FFFFFF" font-family="Segoe UI,Segoe UI_MSFontService,sans-serif" font-weight="400" font-size="19" transform="translate(388.987 648)">Catálogo</text><text fill="#FFFFFF" font-family="Segoe UI,Segoe UI_MSFontService,sans-serif" font-weight="400" font-size="19" transform="translate(383.547 671)">de artistas</text><path d="M162 312C162 281.624 186.4 257 216.5 257 246.6 257 271 281.624 271 312 271 342.376 246.6 367 216.5 367 186.4 367 162 342.376 162 312Z" stroke="#A9D18E" stroke-width="4" stroke-miterlimit="8" fill="#548235" fill-rule="evenodd"/><text fill="#FFFFFF" font-family="Segoe UI,Segoe UI_MSFontService,sans-serif" font-weight="400" font-size="19" transform="translate(196.589 319)">Atlas</text><path d="M569 595.5C569 574.789 603.026 558 645 558 686.974 558 721 574.789 721 595.5 721 616.211 686.974 633 645 633 603.026 633 569 616.211 569 595.5Z" stroke="#B4C7E7" stroke-width="4" stroke-miterlimit="8" fill="#8FAADC" fill-rule="evenodd"/><text fill="#203864" font-family="Segoe UI,Segoe UI_MSFontService,sans-serif" font-weight="400" font-size="19" transform="translate(626.032 591)">Web</text><text fill="#203864" font-family="Segoe UI,Segoe UI_MSFontService,sans-serif" font-weight="400" font-size="19" transform="translate(611.812 614)">Ilistrado</text><path d="M558 661C558 642.222 595.384 627 641.5 627 687.616 627 725 642.222 725 661 725 679.778 687.616 695 641.5 695 595.384 695 558 679.778 558 661Z" stroke="#B4C7E7" stroke-width="4" stroke-miterlimit="8" fill="#8FAADC" fill-rule="evenodd"/><text fill="#203864" font-family="Segoe UI,Segoe UI_MSFontService,sans-serif" font-weight="400" font-size="19" transform="translate(599.285 668)">Audiolivro</text><path d="M541 94.5C541 46.1751 580.175 7 628.5 7 676.825 7 716 46.1751 716 94.5 716 142.825 676.825 182 628.5 182 580.175 182 541 142.825 541 94.5Z" stroke="#2F5597" stroke-width="4" stroke-miterlimit="8" fill="#203864" fill-rule="evenodd"/><text fill="#FFFFFF" font-family="Segoe UI,Segoe UI_MSFontService,sans-serif" font-weight="700" font-size="24" transform="translate(594.616 122)">Escola</text><text fill="#FFFFFF" font-family="Segoe UI,Segoe UI_MSFontService,sans-serif" font-weight="700" font-size="24" transform="translate(594.036 151)">online</text><g><g><g><path d="M653.656 80.2812 653.656 78.5938 650.281 78.5938 650.281 49.9062 653.656 49.9062 653.656 48.2188 656.188 48.2188 656.188 43.1562 653.656 43.1562 627.5 27.125 601.344 43.1562 598.812 43.1562 598.812 48.2188 601.344 48.2188 601.344 49.9062 604.719 49.9062 604.719 78.5938 601.344 78.5938 601.344 80.2812 595.438 84.5 595.438 87.875 627.5 87.875 659.562 87.875 659.562 84.5 653.656 80.2812ZM614.844 78.5938 609.781 78.5938 609.781 49.9062 614.844 49.9062 614.844 78.5938ZM624.969 78.5938 619.906 78.5938 619.906 49.9062 624.969 49.9062 624.969 78.5938ZM626.656 41.4688C624.8 41.4688 623.281 39.95 623.281 38.0938 623.281 36.2375 624.8 34.7188 626.656 34.7188 628.513 34.7188 630.031 36.2375 630.031 38.0938 630.031 39.95 628.513 41.4688 626.656 41.4688ZM635.094 78.5938 630.031 78.5938 630.031 49.9062 635.094 49.9062 635.094 78.5938ZM645.219 78.5938 640.156 78.5938 640.156 49.9062 645.219 49.9062 645.219 78.5938Z" fill="#FFFFFF"/></g></g></g></g></svg>