<svg width="1280" height="720" xmlns="http://www.w3.org/2000/svg" xmlns:xlink="http://www.w3.org/1999/xlink" overflow="hidden"><g><rect x="0" y="0" width="1280" height="720" fill="#FFFFFF"/><path d="M639.43 369.722 627 98" stroke="#000000" stroke-width="2" stroke-miterlimit="8" fill="none" fill-rule="evenodd"/><path d="M0 0 4.35171 168.738" stroke="#AFABAB" stroke-width="2" stroke-miterlimit="8" fill="none" fill-rule="evenodd" transform="matrix(1 0 0 -1 640 541.738)"/><path d="M216 318 275.348 430.698" stroke="#AFABAB" stroke-width="2" stroke-miterlimit="8" fill="none" fill-rule="evenodd"/><path d="M0 0 143.617 74.7868" stroke="#AFABAB" stroke-width="2" stroke-miterlimit="8" fill="none" fill-rule="evenodd" transform="matrix(1 0 0 -1 304 572.787)"/><path d="M0 0 27.515 115.998" stroke="#AFABAB" stroke-width="2" stroke-miterlimit="8" fill="none" fill-rule="evenodd" transform="matrix(1 0 0 -1 420 613.998)"/><path d="M0 0 197.332 124.906" stroke="#000000" stroke-width="2" stroke-miterlimit="8" fill="none" fill-rule="evenodd" transform="matrix(-1 0 0 1 644.332 373)"/><path d="M0 0 363.597 55.1318" stroke="#000000" stroke-width="2" stroke-miterlimit="8" fill="none" fill-rule="evenodd" transform="matrix(-1 0 0 1 643.597 372)"/><path d="M639.897 370.493 380 327" stroke="#000000" stroke-width="2" stroke-miterlimit="8" fill="none" fill-rule="evenodd"/><path d="M805.276 655.33 791 505" stroke="#AFABAB" stroke-width="2" stroke-miterlimit="8" fill="none" fill-rule="evenodd"/><path d="M906.86 645.779 791 505" stroke="#AFABAB" stroke-width="2" stroke-miterlimit="8" fill="none" fill-rule="evenodd"/><path d="M1005.01 616.806 809 513" stroke="#AFABAB" stroke-width="2" stroke-miterlimit="8" fill="none" fill-rule="evenodd"/><path d="M1000.59 545.519 793 497" stroke="#AFABAB" stroke-width="2" stroke-miterlimit="8" fill="none" fill-rule="evenodd"/><path d="M0 0 165.48 20.8141" stroke="#AFABAB" stroke-width="2" stroke-miterlimit="8" fill="none" fill-rule="evenodd" transform="matrix(-1 0 0 1 950.48 478)"/><path d="M1046.88 379.453 882 281" stroke="#AFABAB" stroke-width="2" stroke-miterlimit="8" fill="none" fill-rule="evenodd"/><path d="M1057.36 291.699 876 252" stroke="#AFABAB" stroke-width="2" stroke-miterlimit="8" fill="none" fill-rule="evenodd"/><path d="M0 0 134.842 32.3361" stroke="#AFABAB" stroke-width="2" stroke-miterlimit="8" fill="none" fill-rule="evenodd" transform="matrix(-1 0 0 1 1008.84 212)"/><path d="M0 0 203.301 55.9009" stroke="#AFABAB" stroke-width="2" stroke-miterlimit="8" fill="none" fill-rule="evenodd" transform="matrix(-1 0 0 1 988.301 102)"/><path d="M0 0 114.094 193.559" stroke="#000000" stroke-width="2" stroke-miterlimit="8" fill="none" fill-rule="evenodd" transform="matrix(1 0 0 -1 653 360.559)"/><path d="M639.674 370.232 308 164" stroke="#000000" stroke-width="2" stroke-miterlimit="8" fill="none" fill-rule="evenodd"/><path d="M909.59 369.639 874 250" stroke="#AFABAB" stroke-width="2" stroke-miterlimit="8" fill="none" fill-rule="evenodd"/><path d="M0 0 143.003 69.5936" stroke="#000000" stroke-width="2" stroke-miterlimit="8" fill="none" fill-rule="evenodd" transform="matrix(1 0 0 -1 698 328.594)"/><path d="M639.782 370.348 459 104" stroke="#000000" stroke-width="2" stroke-miterlimit="8" fill="none" fill-rule="evenodd"/><path d="M640 373 788.216 501.375" stroke="#000000" stroke-width="2" stroke-miterlimit="8" fill="none" fill-rule="evenodd"/><text fill="#FFFFFF" font-family="Segoe UI,Segoe UI_MSFontService,sans-serif" font-weight="700" font-size="32" transform="translate(592.182 398)">Espacio</text><path d="M730 499C730 465.863 756.863 439 790 439 823.137 439 850 465.863 850 499 850 532.137 823.137 559 790 559 756.863 559 730 532.137 730 499Z" stroke="#8FAADC" stroke-width="4" stroke-miterlimit="8" fill="#4472C4" fill-rule="evenodd"/><text fill="#FFFFFF" font-family="Segoe UI,Segoe UI_MSFontService,sans-serif" font-weight="400" font-size="27" transform="translate(766.606 493)">Part</text><text fill="#FFFFFF" font-family="Segoe UI,Segoe UI_MSFontService,sans-serif" font-weight="400" font-size="27" transform="translate(778.139 525)">I</text><text fill="#FFFFFF" font-family="Segoe UI,Segoe UI_MSFontService,sans-serif" font-weight="400" font-size="27" transform="translate(785.306 525)">V</text><path d="M565 530C565 511.775 599.25 497 641.5 497 683.75 497 718 511.775 718 530 718 548.225 683.75 563 641.5 563 599.25 563 565 548.225 565 530Z" stroke="#B4C7E7" stroke-width="4" stroke-miterlimit="8" fill="#8FAADC" fill-rule="evenodd"/><text fill="#203864" font-family="Segoe UI,Segoe UI_MSFontService,sans-serif" font-weight="400" font-size="19" transform="translate(602.991 526)">Abridged</text><text fill="#203864" font-family="Segoe UI,Segoe UI_MSFontService,sans-serif" font-weight="400" font-size="19" transform="translate(600.485 549)">Illustrated</text><path d="M863 389C863 358.624 887.4 334 917.5 334 947.599 334 972 358.624 972 389 972 419.376 947.599 444 917.5 444 887.4 444 863 419.376 863 389Z" stroke="#E09DC8" stroke-width="4" stroke-miterlimit="8" fill="#CB5BA3" fill-rule="evenodd"/><text fill="#FFFFFF" font-family="Segoe UI,Segoe UI_MSFontService,sans-serif" font-weight="400" font-size="16" transform="translate(879.833 395)">Concordex</text><path d="M796 247.5C796 208.564 827.34 177 866 177 904.66 177 936 208.564 936 247.5 936 286.436 904.66 318 866 318 827.34 318 796 286.436 796 247.5Z" stroke="#E09DC8" stroke-width="4" stroke-miterlimit="8" fill="#CB5BA3" fill-rule="evenodd"/><text fill="#FFFFFF" font-family="Segoe UI,Segoe UI_MSFontService,sans-serif" font-weight="400" font-size="19" transform="translate(843.906 243)">Cross</text><text fill="#FFFFFF" font-family="Segoe UI,Segoe UI_MSFontService,sans-serif" font-weight="400" font-size="19" transform="translate(821.666 266)">Reference</text><text fill="#FFFFFF" font-family="Segoe UI,Segoe UI_MSFontService,sans-serif" font-weight="400" font-size="19" transform="translate(902.899 266)">s</text><path d="M519 360C519 293.174 573.174 239 640 239 706.826 239 761 293.174 761 360 761 426.826 706.826 481 640 481 573.174 481 519 426.826 519 360Z" stroke="#8FAADC" stroke-width="4" stroke-miterlimit="8" fill="#4472C4" fill-rule="evenodd"/><g><g><g><path d="M668.368 265.229 668.368 265.229C669.148 268.127 671.266 270.579 674.052 271.917L674.052 271.917C671.266 273.254 669.259 275.706 668.368 278.604L668.368 278.604C667.588 275.706 665.47 273.254 662.683 271.917L662.683 271.917C665.47 270.579 667.588 268.127 668.368 265.229Z" fill="#FFFFFF"/><path d="M597.034 289.75 597.034 289.75C597.815 292.648 599.932 295.1 602.719 296.438L602.719 296.438C599.932 297.775 597.926 300.227 597.034 303.125L597.034 303.125C596.254 300.227 594.136 297.775 591.35 296.438L591.35 296.438C594.136 295.1 596.254 292.648 597.034 289.75Z" fill="#FFFFFF"/><path d="M608.069 267.458 608.069 267.458C608.737 269.91 610.521 271.917 612.75 273.031L612.75 273.031C610.409 274.146 608.737 276.152 608.069 278.604L608.069 278.604C607.4 276.152 605.617 274.146 603.388 273.031L603.388 273.031C605.617 271.917 607.4 269.91 608.069 267.458Z" fill="#FFFFFF"/><path d="M681.631 285.292 681.631 285.292C682.3 287.744 684.083 289.75 686.312 290.865L686.312 290.865C683.972 291.979 682.3 293.985 681.631 296.438L681.631 296.438C680.963 293.985 679.179 291.979 676.95 290.865L676.95 290.865C679.179 289.75 680.963 287.744 681.631 285.292Z" fill="#FFFFFF"/><path d="M639.5 307.026C638.608 307.026 637.828 306.246 637.828 305.354L637.828 294.208C637.828 293.317 638.608 292.536 639.5 292.536 640.392 292.536 641.172 293.317 641.172 294.208L641.172 305.354C641.172 306.246 640.392 307.026 639.5 307.026Z" fill="#FFFFFF"/><path d="M639.5 289.193C638.608 289.193 637.828 288.413 637.828 287.521L637.828 278.604C637.828 277.712 638.608 276.932 639.5 276.932 640.392 276.932 641.172 277.712 641.172 278.604L641.172 287.521C641.172 288.413 640.392 289.193 639.5 289.193Z" fill="#FFFFFF"/><path d="M639.5 273.589C638.608 273.589 637.828 272.808 637.828 271.917L637.828 267.458C637.828 266.567 638.608 265.786 639.5 265.786 640.392 265.786 641.172 266.567 641.172 267.458L641.172 271.917C641.172 272.808 640.392 273.589 639.5 273.589Z" fill="#FFFFFF"/><path d="M651.76 299.224C651.649 299.224 651.537 299.224 651.426 299.224 650.534 299.001 649.977 298.109 650.2 297.218L652.095 288.524C652.318 287.632 653.209 287.075 654.101 287.298 654.993 287.521 655.55 288.413 655.327 289.304L653.432 297.998C653.209 298.667 652.541 299.224 651.76 299.224Z" fill="#FFFFFF"/><path d="M655.104 283.954C654.993 283.954 654.881 283.954 654.77 283.954 653.878 283.731 653.321 282.84 653.544 281.948L653.544 281.948 654.993 275.372C655.216 274.48 655.996 273.923 656.999 274.034 657.891 274.257 658.448 275.038 658.336 276.041 658.336 276.041 658.336 276.041 658.336 276.152L656.888 282.728C656.553 283.397 655.884 283.954 655.104 283.954Z" fill="#FFFFFF"/><path d="M662.906 296.995C662.015 296.995 661.234 296.215 661.234 295.323 661.234 294.989 661.346 294.654 661.569 294.32L669.148 283.285C669.705 282.505 670.708 282.394 671.489 282.951 672.157 283.508 672.38 284.4 671.934 285.18L664.355 296.215C664.021 296.772 663.464 296.995 662.906 296.995Z" fill="#FFFFFF"/><path d="M627.24 299.224C626.459 299.224 625.791 298.667 625.568 297.886L623.227 286.964C623.004 286.072 623.673 285.18 624.565 284.957 625.456 284.734 626.348 285.292 626.459 286.183L628.8 297.106C629.023 297.998 628.466 298.89 627.574 299.112 627.463 299.224 627.351 299.224 627.24 299.224Z" fill="#FFFFFF"/><path d="M623.45 281.836C622.67 281.836 622.001 281.279 621.778 280.499L620.886 276.152C620.664 275.26 621.221 274.369 622.112 274.146 623.004 273.923 623.896 274.48 624.119 275.372 624.119 275.372 624.119 275.372 624.119 275.483L625.01 279.83C625.233 280.722 624.676 281.614 623.784 281.836L623.784 281.836C623.673 281.836 623.561 281.836 623.45 281.836L623.45 281.836Z" fill="#FFFFFF"/><path d="M616.094 296.995C615.536 296.995 614.979 296.772 614.756 296.326L607.177 285.292C606.731 284.511 606.954 283.508 607.734 282.951 608.515 282.505 609.406 282.617 609.964 283.397L617.543 294.431C618.1 295.211 617.877 296.215 617.097 296.772 616.763 296.883 616.428 296.995 616.094 296.995Z" fill="#FFFFFF"/><path d="M688.319 354.284 684.975 318.172C684.864 317.057 683.86 316.166 682.746 316.166 682.3 316.166 681.631 316.166 681.074 316.166L680.517 309.701 678.51 309.59C676.839 309.478 675.167 309.59 673.606 309.701L673.049 303.682 671.377 303.348C659.674 301.899 647.971 305.8 639.5 314.048 631.029 305.8 619.326 301.899 607.623 303.348L605.951 303.682 605.394 309.701C603.722 309.59 602.161 309.478 600.49 309.59L598.595 309.701 598.037 316.166C597.369 316.166 596.811 316.166 596.366 316.166 595.251 316.166 594.248 317.057 594.136 318.172L590.793 354.284C590.57 355.51 591.461 356.625 592.688 356.736 592.799 356.736 592.91 356.736 593.022 356.736 599.821 356.514 618.88 356.959 634.373 367.102 635.153 367.548 635.933 367.882 636.825 367.882L642.398 367.882C643.29 367.882 644.07 367.659 644.739 367.214 661.011 357.071 679.514 356.625 686.09 356.848 687.316 356.848 688.319 355.956 688.43 354.73 688.319 354.396 688.319 354.396 688.319 354.284ZM641.729 318.06C648.862 310.704 658.782 306.915 668.925 307.472L671.934 342.024C666.696 343.027 653.098 346.371 641.729 356.179L641.729 318.06ZM610.075 307.583C620.218 307.026 630.138 310.816 637.271 318.172L637.271 356.291C625.902 346.482 612.304 343.139 607.066 342.135L610.075 307.583ZM599.375 348.823 602.719 313.936C603.388 313.936 604.168 314.048 605.059 314.048L602.273 345.925 604.391 346.148C604.614 346.148 623.45 348.6 636.602 361.641L636.602 361.641C622.001 350.495 605.728 349.046 599.375 348.823ZM642.398 361.864 642.398 361.864C655.773 348.711 674.498 346.148 674.609 346.148L676.727 345.925 673.941 314.048C674.832 313.936 675.612 313.936 676.281 313.936L679.625 348.823C673.272 349.046 656.999 350.606 642.398 361.864Z" fill="#FFFFFF"/></g></g></g><text fill="#FFFFFF" font-family="Segoe UI,Segoe UI_MSFontService,sans-serif" font-weight="700" font-size="32" transform="translate(557.05 409)">The Urantia</text><text fill="#FFFFFF" font-family="Segoe UI,Segoe UI_MSFontService,sans-serif" font-weight="700" font-size="32" transform="translate(606.137 448)">Boo</text><text fill="#FFFFFF" font-family="Segoe UI,Segoe UI_MSFontService,sans-serif" font-weight="700" font-size="32" transform="translate(665.637 448)">k</text><path d="M219 163.5C219 114.623 258.623 75 307.5 75 356.377 75 396 114.623 396 163.5 396 212.377 356.377 252 307.5 252 258.623 252 219 212.377 219 163.5Z" stroke="#F0A11F" stroke-width="4" stroke-miterlimit="8" fill="#BE7B0D" fill-rule="evenodd"/><g><g><g><path d="M326 150.5C326 151.325 325.325 152 324.5 152 323.675 152 323 151.325 323 150.5L323 114.5 326 114.5 326 150.5ZM285.5 152C284.675 152 284 151.325 284 150.5L284 110 318.5 110 318.5 150.5C318.5 151.025 318.575 151.55 318.725 152L285.5 152ZM323 110 323 105.5 279.5 105.5 279.5 150.5C279.5 153.8 282.2 156.5 285.5 156.5L324.5 156.5C327.8 156.5 330.5 153.8 330.5 150.5L330.5 110 323 110Z" stroke="#FFFFFF" stroke-width="1.87016" fill="none"/><path d="M287 114.5 315.5 114.5 315.5 117.5 287 117.5Z" stroke="#FFFFFF" stroke-width="1.87016" fill="none"/><path d="M302.75 120.5 315.5 120.5 315.5 123.5 302.75 123.5Z" stroke="#FFFFFF" stroke-width="1.87016" fill="none"/><path d="M302.75 126.5 315.5 126.5 315.5 129.5 302.75 129.5Z" stroke="#FFFFFF" stroke-width="1.87016" fill="none"/><path d="M287 120.5 299.75 120.5 299.75 129.5 287 129.5Z" stroke="#FFFFFF" stroke-width="1.87016" fill="none"/><path d="M287 132.5 315.5 132.5 315.5 135.5 287 135.5Z" stroke="#FFFFFF" stroke-width="1.87016" fill="none"/><path d="M302.75 138.5 315.5 138.5 315.5 147.5 302.75 147.5Z" stroke="#FFFFFF" stroke-width="1.87016" fill="none"/><path d="M287 138.5 299.75 138.5 299.75 141.5 287 141.5Z" stroke="#FFFFFF" stroke-width="1.87016" fill="none"/><path d="M287 144.5 299.75 144.5 299.75 147.5 287 147.5Z" stroke="#FFFFFF" stroke-width="1.87016" fill="none"/></g></g></g><text fill="#FFFFFF" font-family="Segoe UI,Segoe UI_MSFontService,sans-serif" font-weight="700" font-size="24" transform="translate(246.912 192)">Newsletter</text><text fill="#FFFFFF" font-family="Segoe UI,Segoe UI_MSFontService,sans-serif" font-weight="700" font-size="24" transform="translate(268.385 221)">Librar</text><text fill="#FFFFFF" font-family="Segoe UI,Segoe UI_MSFontService,sans-serif" font-weight="700" font-size="24" transform="translate(335.179 221)">y</text><path d="M370 100C370 50.8467 409.623 11 458.5 11 507.377 11 547 50.8467 547 100 547 149.153 507.377 189 458.5 189 409.623 189 370 149.153 370 100Z" stroke="#E78F7A" stroke-width="4" stroke-miterlimit="8" fill="#D24726" fill-rule="evenodd"/><g><g><g><path d="M483.4 59.2 479.933 57.9333 479.933 50.6667 483.4 49.2 459.933 40.5333 431.4 50.5333C428.667 51.8667 428.6 55.5333 428.6 58.5333 428.6 59.5333 428.733 60.5333 428.933 61.4667 426.667 62.9333 426.6 66.3333 426.6 69.2 426.6 71.5333 427.133 73.6667 428.6 75 428.267 76.1333 428.467 77.5333 428.467 79.2 428.467 82.2 429.267 84.9333 431.933 85.8667L450.467 93.5333 483.267 79.9333 479.8 78.6667 479.8 71.3333 483.267 69.8667 477.933 67.8667 477.933 61.4667 483.4 59.2ZM432.2 55.2 450.733 62.4667 477.333 51.7333 477.333 57.4667 450.733 68.5333 432.2 61.2 432.2 55.2ZM477.2 78.2 450.6 89.2 432 81.8667 432 76.6667 448.6 83.4667 477.267 72.1333 477.2 78.2ZM475.333 68.2 448.733 79.2 430.2 71.8667 430.2 65.8667 449.267 73.4667 475.4 62.5333 475.4 68.2Z" stroke="#FFFFFF" stroke-width="1.75342" fill="none"/></g></g></g><text fill="#FFFFFF" font-family="Segoe UI,Segoe UI_MSFontService,sans-serif" font-weight="700" font-size="24" transform="translate(419.278 131)">Library</text><path d="M901 99.5C901 51.1751 939.951 12 988 12 1036.05 12 1075 51.1751 1075 99.5 1075 147.825 1036.05 187 988 187 939.951 187 901 147.825 901 99.5Z" stroke="#E09DC8" stroke-width="4" stroke-miterlimit="8" fill="#CB5BA3" fill-rule="evenodd"/><g><g><g><path d="M64.5 16.5 64.5 53.25 7.5 53.25 7.5 16.5 3 16.5 3 58.5 29.25 58.5C29.25 59.775 30.225 60.75 31.5 60.75L40.5 60.75C41.775 60.75 42.75 59.775 42.75 58.5L69 58.5 69 16.5 64.5 16.5Z" fill="#FFFFFF" transform="matrix(1 0 0 1.01389 949 27)"/><path d="M61.5 12 10.5 12 10.5 50.25 61.5 50.25 61.5 12ZM15 16.5 34.5 16.5 34.5 45.75 15 45.75 15 16.5ZM57 45.75 37.5 45.75 37.5 16.5 57 16.5 57 45.75Z" fill="#FFFFFF" transform="matrix(1 0 0 1.01389 949 27)"/><path d="M42 24 52.5 24 52.5 26.25 42 26.25Z" fill="#FFFFFF" transform="matrix(1 0 0 1.01389 949 27)"/><path d="M42 28.5 52.5 28.5 52.5 30.75 42 30.75Z" fill="#FFFFFF" transform="matrix(1 0 0 1.01389 949 27)"/><path d="M42 33 49.275 33 49.275 35.25 42 35.25Z" fill="#FFFFFF" transform="matrix(1 0 0 1.01389 949 27)"/></g></g></g><text fill="#FFFFFF" font-family="Segoe UI,Segoe UI_MSFontService,sans-serif" font-weight="700" font-size="24" transform="translate(914.942 130)">Encyclopedia</text><path d="M698 158.5C698 119.564 729.34 88 768 88 806.66 88 838 119.564 838 158.5 838 197.436 806.66 229 768 229 729.34 229 698 197.436 698 158.5Z" stroke="#E09DC8" stroke-width="4" stroke-miterlimit="8" fill="#CB5BA3" fill-rule="evenodd"/><text fill="#FFFFFF" font-family="Segoe UI,Segoe UI_MSFontService,sans-serif" font-weight="400" font-size="19" transform="translate(746.11 154)">Topic</text><text fill="#FFFFFF" font-family="Segoe UI,Segoe UI_MSFontService,sans-serif" font-weight="400" font-size="19" transform="translate(745.237 177)">Index</text><path d="M998 385.5C998 358.162 1019.94 336 1047 336 1074.06 336 1096 358.162 1096 385.5 1096 412.838 1074.06 435 1047 435 1019.94 435 998 412.838 998 385.5Z" stroke="#E09DC8" stroke-width="4" stroke-miterlimit="8" fill="#CB5BA3" fill-rule="evenodd"/><text fill="#FFFFFF" font-family="Segoe UI,Segoe UI_MSFontService,sans-serif" font-weight="400" font-size="16" transform="translate(1034.1 382)">The</text><text fill="#FFFFFF" font-family="Segoe UI,Segoe UI_MSFontService,sans-serif" font-weight="400" font-size="16" transform="translate(1025.1 401)">Quran</text><path d="M1014 295.5C1014 268.162 1036.16 246 1063.5 246 1090.84 246 1113 268.162 1113 295.5 1113 322.838 1090.84 345 1063.5 345 1036.16 345 1014 322.838 1014 295.5Z" stroke="#E09DC8" stroke-width="4" stroke-miterlimit="8" fill="#CB5BA3" fill-rule="evenodd"/><text fill="#FFFFFF" font-family="Segoe UI,Segoe UI_MSFontService,sans-serif" font-weight="400" font-size="16" transform="translate(1045.79 293)">Book</text><text fill="#FFFFFF" font-family="Segoe UI,Segoe UI_MSFontService,sans-serif" font-weight="400" font-size="16" transform="translate(1034.9 312)">parallels</text><path d="M955 212.5C955 181.848 979.848 157 1010.5 157 1041.15 157 1066 181.848 1066 212.5 1066 243.152 1041.15 268 1010.5 268 979.848 268 955 243.152 955 212.5Z" stroke="#E09DC8" stroke-width="4" stroke-miterlimit="8" fill="#CB5BA3" fill-rule="evenodd"/><text fill="#FFFFFF" font-family="Segoe UI,Segoe UI_MSFontService,sans-serif" font-weight="400" font-size="16" transform="translate(975.485 219)">Paramony</text><path d="M894 476.5C894 449.714 915.49 428 942 428 968.51 428 990 449.714 990 476.5 990 503.286 968.51 525 942 525 915.49 525 894 503.286 894 476.5Z" stroke="#8FAADC" stroke-width="4" stroke-miterlimit="8" fill="#4472C4" fill-rule="evenodd"/><text fill="#FFFFFF" font-family="Segoe UI,Segoe UI_MSFontService,sans-serif" font-weight="400" font-size="19" transform="translate(917.811 483)">Novel</text><path d="M964 530C964 503.49 985.714 482 1012.5 482 1039.29 482 1061 503.49 1061 530 1061 556.51 1039.29 578 1012.5 578 985.714 578 964 556.51 964 530Z" stroke="#8FAADC" stroke-width="4" stroke-miterlimit="8" fill="#4472C4" fill-rule="evenodd"/><text fill="#FFFFFF" font-family="Segoe UI,Segoe UI_MSFontService,sans-serif" font-weight="400" font-size="19" transform="translate(986.878 537)">Comic</text><path d="M951 610.5C951 583.714 972.49 562 999 562 1025.51 562 1047 583.714 1047 610.5 1047 637.286 1025.51 659 999 659 972.49 659 951 637.286 951 610.5Z" stroke="#8FAADC" stroke-width="4" stroke-miterlimit="8" fill="#4472C4" fill-rule="evenodd"/><text fill="#FFFFFF" font-family="Segoe UI,Segoe UI_MSFontService,sans-serif" font-weight="400" font-size="19" transform="translate(981.637 617)">Film</text><path d="M748 653C748 622.624 772.624 598 803 598 833.376 598 858 622.624 858 653 858 683.376 833.376 708 803 708 772.624 708 748 683.376 748 653Z" stroke="#8FAADC" stroke-width="4" stroke-miterlimit="8" fill="#4472C4" fill-rule="evenodd"/><text fill="#FFFFFF" font-family="Segoe UI,Segoe UI_MSFontService,sans-serif" font-weight="400" font-size="19" transform="translate(775.006 637)">Untold</text><text fill="#FFFFFF" font-family="Segoe UI,Segoe UI_MSFontService,sans-serif" font-weight="400" font-size="19" transform="translate(770.773 660)">Story of</text><text fill="#FFFFFF" font-family="Segoe UI,Segoe UI_MSFontService,sans-serif" font-weight="400" font-size="19" transform="translate(781.519 682)">Jesus</text><path d="M861 660C861 629.624 885.624 605 916 605 946.376 605 971 629.624 971 660 971 690.376 946.376 715 916 715 885.624 715 861 690.376 861 660Z" stroke="#8FAADC" stroke-width="4" stroke-miterlimit="8" fill="#4472C4" fill-rule="evenodd"/><text fill="#FFFFFF" font-family="Segoe UI,Segoe UI_MSFontService,sans-serif" font-weight="400" font-size="19" transform="translate(880.99 655)">Discover</text><text fill="#FFFFFF" font-family="Segoe UI,Segoe UI_MSFontService,sans-serif" font-weight="400" font-size="19" transform="translate(894.77 678)">Jesus</text><path d="M315 322C315 281.131 348.131 248 389 248 429.869 248 463 281.131 463 322 463 362.869 429.869 396 389 396 348.131 396 315 362.869 315 322Z" stroke="#C39CDE" stroke-width="4" stroke-miterlimit="8" fill="#9B5AC8" fill-rule="evenodd"/><g><g><g><path d="M409.438 294.594C407.483 294.594 405.948 293.477 405.948 292.151 405.948 290.825 407.483 289.708 409.438 289.708 411.392 289.708 412.927 290.825 412.927 292.151 412.927 293.477 411.392 294.594 409.438 294.594ZM405.948 302.271C403.994 302.271 402.458 301.154 402.458 299.828 402.458 298.502 403.994 297.385 405.948 297.385 407.902 297.385 409.438 298.502 409.438 299.828 409.438 301.154 407.902 302.271 405.948 302.271ZM398.271 282.729C396.317 282.729 394.781 281.612 394.781 280.286 394.781 278.96 396.317 277.844 398.271 277.844 400.225 277.844 401.76 278.96 401.76 280.286 401.76 281.612 400.225 282.729 398.271 282.729ZM398.271 306.458C396.317 306.458 394.781 305.342 394.781 304.016 394.781 302.69 396.317 301.573 398.271 301.573 400.225 301.573 401.76 302.69 401.76 304.016 401.76 305.342 400.225 306.458 398.271 306.458ZM388.5 308.552C386.546 308.552 385.01 307.435 385.01 306.109 385.01 304.783 386.546 303.667 388.5 303.667 390.454 303.667 391.99 304.783 391.99 306.109 391.99 307.435 390.454 308.552 388.5 308.552ZM384.731 280.356C385.848 279.24 387.314 279.03 388.081 279.798 388.849 280.566 388.57 282.031 387.523 283.148 386.406 284.265 384.941 284.474 384.173 283.706 383.335 282.939 383.615 281.403 384.731 280.356ZM378.729 307.156C376.775 307.156 375.24 306.04 375.24 304.714 375.24 303.388 376.775 302.271 378.729 302.271 380.683 302.271 382.219 303.388 382.219 304.714 382.219 306.04 380.683 307.156 378.729 307.156ZM405.948 282.729C407.902 282.729 409.438 283.846 409.438 285.172 409.438 286.498 407.902 287.615 405.948 287.615 403.994 287.615 402.458 286.498 402.458 285.172 402.458 283.846 403.994 282.729 405.948 282.729ZM388.5 272.958C372.657 272.958 375.17 279.17 376.635 280.635L380.125 284.125C382.358 286.428 379.636 289.01 377.054 287.894L368.33 284.125C362.189 281.473 360.583 288.941 360.583 292.5 360.583 303.318 373.076 312.042 388.5 312.042 403.924 312.042 416.417 303.318 416.417 292.5 416.417 281.682 403.924 272.958 388.5 272.958Z" fill="#FFFFFF"/></g></g></g><text fill="#FFFFFF" font-family="Segoe UI,Segoe UI_MSFontService,sans-serif" font-weight="700" font-size="24" transform="translate(321.802 338)">Pinacotheca</text><path d="M201 440C201 400.236 233.235 368 273 368 312.764 368 345 400.236 345 440 345 479.764 312.764 512 273 512 233.235 512 201 479.764 201 440Z" stroke="#A9D18E" stroke-width="4" stroke-miterlimit="8" fill="#548235" fill-rule="evenodd"/><g><g><g><path d="M287.458 401.077C285.783 401.077 284.388 399.681 284.457 397.936 284.457 396.261 285.853 394.866 287.528 394.866 289.203 394.866 290.599 396.261 290.599 397.936 290.599 398.774 290.25 399.542 289.692 400.1 289.064 400.728 288.296 401.077 287.458 401.077ZM284.457 391.376C282.922 391.934 281.735 393.121 280.968 394.517 279.991 396.401 279.851 398.565 280.619 400.519L283.969 407.777 286.202 412.383C286.411 412.872 286.9 413.151 287.458 413.151 288.017 413.151 288.505 412.872 288.715 412.383L290.948 407.777 294.298 400.589C294.647 399.751 294.786 398.844 294.786 397.936 294.786 393.051 289.761 389.352 284.457 391.376Z" fill="#FFFFFF"/><path d="M272.104 430.808 260.938 425.225 260.938 402.473 272.104 408.056 272.104 430.808ZM258.146 425.225 249.771 429.413 249.771 406.66 258.146 402.473 258.146 425.225ZM296.81 401.775 296.81 401.775 295.066 405.544 297.229 406.66 297.229 429.413 288.854 425.225 288.854 415.943 286.062 415.943 286.062 425.225 274.896 430.808 274.896 408.056 279.851 405.544 278.106 401.775 273.5 404.078 259.542 397.099 245.583 404.078 245.583 436.182 259.542 429.203 273.5 436.182 287.458 429.203 301.417 436.182 301.417 404.078 296.81 401.775Z" fill="#FFFFFF"/></g></g></g><text fill="#FFFFFF" font-family="Segoe UI,Segoe UI_MSFontService,sans-serif" font-weight="700" font-size="24" transform="translate(250.068 459)">Map</text><text fill="#FFFFFF" font-family="Segoe UI,Segoe UI_MSFontService,sans-serif" font-weight="700" font-size="24" transform="translate(235.588 488)">Librar</text><text fill="#FFFFFF" font-family="Segoe UI,Segoe UI_MSFontService,sans-serif" font-weight="700" font-size="24" transform="translate(302.381 488)">y</text><path d="M369 501.5C369 457.593 404.817 422 449 422 493.183 422 529 457.593 529 501.5 529 545.407 493.183 581 449 581 404.817 581 369 545.407 369 501.5Z" stroke="#548235" stroke-width="4" stroke-miterlimit="8" fill="#385723" fill-rule="evenodd"/><g><g><g><path d="M466.042 453.005 466.042 478.13 426.958 478.13 426.958 453.005 466.042 453.005ZM471.625 479.526 470.229 479.526 470.229 451.609C470.229 451.4 470.159 451.121 470.159 450.911L471.625 450.911C472.393 450.911 473.021 450.283 473.021 449.516 473.021 448.748 472.393 448.12 471.625 448.12L447.896 448.12 447.896 446.724C447.896 445.956 447.268 445.328 446.5 445.328 445.732 445.328 445.104 445.956 445.104 446.724L445.104 448.12 421.375 448.12C420.607 448.12 419.979 448.748 419.979 449.516 419.979 450.283 420.607 450.911 421.375 450.911L422.841 450.911C422.771 451.121 422.771 451.4 422.771 451.609L422.771 479.526 421.375 479.526C420.607 479.526 419.979 480.154 419.979 480.922 419.979 481.69 420.607 482.318 421.375 482.318L442.661 482.318 431.914 493.066C431.355 493.624 431.355 494.531 431.914 495.02 432.472 495.578 433.379 495.578 433.868 495.02L445.034 483.853 445.034 496.276C445.034 497.044 445.663 497.672 446.43 497.672 447.198 497.672 447.826 497.044 447.826 496.276L447.826 483.853 458.993 495.02C459.551 495.578 460.389 495.578 460.947 495.02 461.505 494.461 461.505 493.624 460.947 493.066L450.339 482.318 471.625 482.318C472.393 482.318 473.021 481.69 473.021 480.922 473.021 480.154 472.393 479.526 471.625 479.526Z" fill="#FFFFFF"/></g></g></g><text fill="#FFFFFF" font-family="Segoe UI,Segoe UI_MSFontService,sans-serif" font-weight="700" font-size="24" transform="translate(412.215 526)">Media</text><text fill="#FFFFFF" font-family="Segoe UI,Segoe UI_MSFontService,sans-serif" font-weight="700" font-size="24" transform="translate(407.655 555)">Librar</text><text fill="#FFFFFF" font-family="Segoe UI,Segoe UI_MSFontService,sans-serif" font-weight="700" font-size="24" transform="translate(474.449 555)">y</text><path d="M240 586C240 555.624 264.624 531 295 531 325.376 531 350 555.624 350 586 350 616.376 325.376 641 295 641 264.624 641 240 616.376 240 586Z" stroke="#548235" stroke-width="4" stroke-miterlimit="8" fill="#385723" fill-rule="evenodd"/><text fill="#FFFFFF" font-family="Segoe UI,Segoe UI_MSFontService,sans-serif" font-weight="400" font-size="19" transform="translate(256.485 582)">Historical</text><text fill="#FFFFFF" font-family="Segoe UI,Segoe UI_MSFontService,sans-serif" font-weight="400" font-size="19" transform="translate(264.505 605)">Archiv</text><text fill="#FFFFFF" font-family="Segoe UI,Segoe UI_MSFontService,sans-serif" font-weight="400" font-size="19" transform="translate(315.318 605)">e</text><path d="M365 659C365 628.624 389.624 604 420 604 450.376 604 475 628.624 475 659 475 689.376 450.376 714 420 714 389.624 714 365 689.376 365 659Z" stroke="#548235" stroke-width="4" stroke-miterlimit="8" fill="#385723" fill-rule="evenodd"/><text fill="#FFFFFF" font-family="Segoe UI,Segoe UI_MSFontService,sans-serif" font-weight="400" font-size="19" transform="translate(393.777 654)">Artists</text><text fill="#FFFFFF" font-family="Segoe UI,Segoe UI_MSFontService,sans-serif" font-weight="400" font-size="19" transform="translate(388.217 677)">Catalo</text><text fill="#FFFFFF" font-family="Segoe UI,Segoe UI_MSFontService,sans-serif" font-weight="400" font-size="19" transform="translate(440.551 677)">g</text><path d="M162 312C162 281.624 186.4 257 216.5 257 246.6 257 271 281.624 271 312 271 342.376 246.6 367 216.5 367 186.4 367 162 342.376 162 312Z" stroke="#A9D18E" stroke-width="4" stroke-miterlimit="8" fill="#548235" fill-rule="evenodd"/><text fill="#FFFFFF" font-family="Segoe UI,Segoe UI_MSFontService,sans-serif" font-weight="400" font-size="19" transform="translate(196.589 319)">Atlas</text><path d="M569 595.5C569 574.789 603.026 558 645 558 686.974 558 721 574.789 721 595.5 721 616.211 686.974 633 645 633 603.026 633 569 616.211 569 595.5Z" stroke="#B4C7E7" stroke-width="4" stroke-miterlimit="8" fill="#8FAADC" fill-rule="evenodd"/><text fill="#203864" font-family="Segoe UI,Segoe UI_MSFontService,sans-serif" font-weight="400" font-size="19" transform="translate(626.032 591)">Web</text><text fill="#203864" font-family="Segoe UI,Segoe UI_MSFontService,sans-serif" font-weight="400" font-size="19" transform="translate(604.052 614)">Illustrated</text><path d="M558 661C558 642.222 595.384 627 641.5 627 687.616 627 725 642.222 725 661 725 679.778 687.616 695 641.5 695 595.384 695 558 679.778 558 661Z" stroke="#B4C7E7" stroke-width="4" stroke-miterlimit="8" fill="#8FAADC" fill-rule="evenodd"/><text fill="#203864" font-family="Segoe UI,Segoe UI_MSFontService,sans-serif" font-weight="400" font-size="19" transform="translate(595.745 668)">Audiobook</text><path d="M541 94.5C541 46.1751 580.175 7 628.5 7 676.825 7 716 46.1751 716 94.5 716 142.825 676.825 182 628.5 182 580.175 182 541 142.825 541 94.5Z" stroke="#2F5597" stroke-width="4" stroke-miterlimit="8" fill="#203864" fill-rule="evenodd"/><text fill="#FFFFFF" font-family="Segoe UI,Segoe UI_MSFontService,sans-serif" font-weight="700" font-size="24" transform="translate(592.283 122)">Online</text><text fill="#FFFFFF" font-family="Segoe UI,Segoe UI_MSFontService,sans-serif" font-weight="700" font-size="24" transform="translate(591.369 151)">School</text><g><g><g><path d="M653.656 80.2812 653.656 78.5938 650.281 78.5938 650.281 49.9062 653.656 49.9062 653.656 48.2188 656.188 48.2188 656.188 43.1562 653.656 43.1562 627.5 27.125 601.344 43.1562 598.812 43.1562 598.812 48.2188 601.344 48.2188 601.344 49.9062 604.719 49.9062 604.719 78.5938 601.344 78.5938 601.344 80.2812 595.438 84.5 595.438 87.875 627.5 87.875 659.562 87.875 659.562 84.5 653.656 80.2812ZM614.844 78.5938 609.781 78.5938 609.781 49.9062 614.844 49.9062 614.844 78.5938ZM624.969 78.5938 619.906 78.5938 619.906 49.9062 624.969 49.9062 624.969 78.5938ZM626.656 41.4688C624.8 41.4688 623.281 39.95 623.281 38.0938 623.281 36.2375 624.8 34.7188 626.656 34.7188 628.513 34.7188 630.031 36.2375 630.031 38.0938 630.031 39.95 628.513 41.4688 626.656 41.4688ZM635.094 78.5938 630.031 78.5938 630.031 49.9062 635.094 49.9062 635.094 78.5938ZM645.219 78.5938 640.156 78.5938 640.156 49.9062 645.219 49.9062 645.219 78.5938Z" fill="#FFFFFF"/></g></g></g></g></svg>