<svg width="1280" height="720"
	xmlns="http://www.w3.org/2000/svg"
	xmlns:xlink="http://www.w3.org/1999/xlink" overflow="hidden">
	<g>
		<rect x="0" y="0" width="1280" height="720" fill="#FFFFFF" />
		<path d="M287.5 96.0002 290.063 96.0002 290.063 137 287.5 137ZM292.625 96.0002 297.75 96.0002 297.75 137 292.625 137ZM300.313 96.0002 424.482 96.0002 424.482 75.5001 468.5 116.5 424.482 157.5 424.482 137 300.313 137Z" stroke="#172C51" stroke-width="1.33333" stroke-miterlimit="8" fill="#C00000" fill-rule="evenodd" />
		<text fill="#FFFFFF" font-size="11" transform="translate(320.573 113)">Potencia espacial que</text>
		<text fill="#FFFFFF" font-size="11" transform="translate(360.906 126)">entra</text>
		<rect x="399.5" y="217.5" width="112" height="113" stroke="#172C51" stroke-width="1.33333" stroke-miterlimit="8" fill="#37D1CA" />
		<text fill="#FFFFFF" font-size="11" transform="translate(411.226 245)">Transota</text>
		<text fill="#FFFFFF" font-size="11" transform="translate(453.56 245)">: Nivel de</text>
		<text fill="#FFFFFF" font-size="11" transform="translate(411.306 258)">energía que actúa</text>
		<text fill="#FFFFFF" font-size="11" transform="translate(411.726 271)">sólo en el Paraíso</text>
		<text fill="#FFFFFF" font-size="11" transform="translate(423.726 284)">superior y en</text>
		<text fill="#FFFFFF" font-size="11" transform="translate(417.473 297)">relaci</text>
		<text fill="#FFFFFF" font-size="11" transform="translate(442.973 297)">ó</text>
		<text fill="#FFFFFF" font-size="11" transform="translate(448.973 297)">n con los</text>
		<text fill="#FFFFFF" font-size="11" transform="translate(435.893 309)">pueblos</text>
		<rect x="595.5" y="411.5" width="125" height="55" stroke="#172C51" stroke-width="1.33333" stroke-miterlimit="8" fill="#37D1CA" />
		<text fill="#FFFFFF" font-size="11" transform="translate(637.696 429)">Monota</text>
		<text fill="#FFFFFF" font-size="11" transform="translate(673.53 429)">:</text>
		<text fill="#FFFFFF" font-size="11" transform="translate(611.11 442)">Energía</text>
		<text fill="#FFFFFF" font-size="11" transform="translate(651.776 442)">viviente</text>
		<text fill="#FFFFFF" font-size="11" transform="translate(691.11 442)">no</text>
		<text fill="#FFFFFF" font-size="11" transform="translate(607.03 455)">espiritual del</text>
		<text fill="#FFFFFF" font-size="11" transform="translate(670.196 455)">Paraíso</text>
		<rect x="664.5" y="217.5" width="125" height="55" stroke="#172C51" stroke-width="1.33333" stroke-miterlimit="8" fill="#FFFF00" />
		<text font-size="11" transform="translate(691.767 236)">Triata</text>
		<text font-size="11" transform="translate(719.1 236)">: energía</text>
		<text font-size="11" transform="translate(687.347 249)">característica de</text>
		<text font-size="11" transform="translate(708.18 262)">Havona</text>
		<path d="M664.5 666.25 661.969 666.25 661.969 625.75 664.5 625.75ZM659.438 666.25 654.375 666.25 654.375 625.75 659.438 625.75ZM651.844 666.25 547.441 666.25 547.441 686.5 513.5 646 547.441 605.5 547.441 625.75 651.844 625.75Z" stroke="#172C51" stroke-width="1.33333" stroke-miterlimit="8" fill="#92D050" fill-rule="evenodd" />
		<path d="M977.5 420.5 977.5 424.531 911.5 424.531 911.5 420.5ZM977.5 428.563 977.5 436.625 911.5 436.625 911.5 428.563ZM977.5 440.656 977.5 516.717 1010.5 516.717 944.5 549.5 878.5 516.717 911.5 516.717 911.5 440.656Z" stroke="#172C51" stroke-width="1.33333" stroke-miterlimit="8" fill="#7030A0" fill-rule="evenodd" />
		<text fill="#FFFFFF" font-size="11" transform="translate(924.767 471)">Energía</text>
		<text fill="#FFFFFF" font-size="11" transform="translate(917.933 484)">emergente</text>
		<text fill="#FFFFFF" font-size="11" transform="translate(925.6 497)">potente</text>
		<text fill="#FFFFFF" font-size="11" transform="translate(920.513 510)">(</text>
		<text fill="#FFFFFF" font-size="11" transform="translate(924.013 510)">Ultimata</text>
		<text fill="#FFFFFF" font-size="11" transform="translate(963.18 510)">)</text>
		<path d="M977.5 201.5 977.5 205.625 911.5 205.625 911.5 201.5ZM977.5 209.75 977.5 218 911.5 218 911.5 209.75ZM977.5 222.125 977.5 304.955 1010.5 304.955 944.5 338.5 878.5 304.955 911.5 304.955 911.5 222.125Z" stroke="#172C51" stroke-width="1.33333" stroke-miterlimit="8" fill="#2E75B6" fill-rule="evenodd" />
		<text fill="#FFFFFF" font-size="11" transform="translate(926.937 250)">Fuerza</text>
		<text fill="#FFFFFF" font-size="11" transform="translate(919.603 263)">Primordial</text>
		<text fill="#FFFFFF" font-size="11" transform="translate(923.603 276)">(energía</text>
		<text fill="#FFFFFF" font-size="11" transform="translate(928.35 289)">pura o</text>
		<text fill="#FFFFFF" font-size="11" transform="translate(917.017 302)">Segregata</text>
		<text fill="#FFFFFF" font-size="11" transform="translate(966.683 302)">)</text>
		<path d="M468.5 127C468.5 85.8548 518.196 52.5001 579.5 52.5001 640.804 52.5001 690.5 85.8548 690.5 127 690.5 168.145 640.804 201.5 579.5 201.5 518.196 201.5 468.5 168.145 468.5 127Z" stroke="#172C51" stroke-width="1.33333" stroke-miterlimit="8" fill="#4472C4" fill-rule="evenodd" />
		<text fill="#FFFFFF" font-size="11" transform="translate(549.287 105)">Paraíso bajo</text>
		<text fill="#FFFFFF" font-size="11" transform="translate(550.2 118)">Absoluto</text>
		<text fill="#FFFFFF" font-size="11" transform="translate(595.033 118)">No</text>
		<text fill="#FFFFFF" font-size="11" transform="translate(533.533 131)">Cualificado</text>
		<text fill="#FFFFFF" font-size="11" transform="translate(589.533 131)">(es</text>
		<text fill="#FFFFFF" font-size="11" transform="translate(607.367 131)">una</text>
		<text fill="#FFFFFF" font-size="11" transform="translate(541.62 144)">Fuerza pasiva y</text>
		<text fill="#FFFFFF" font-size="11" transform="translate(554.12 157)">Potencial)</text>
		<text fill="#FFFFFF" font-size="11" transform="translate(601.787 157)">:</text>
		<path d="M693.5 87.7502 696.031 87.7502 696.031 128.25 693.5 128.25ZM698.563 87.7502 703.625 87.7502 703.625 128.25 698.563 128.25ZM706.156 87.7502 832.018 87.7502 832.018 67.5001 875.5 108 832.018 148.5 832.018 128.25 706.156 128.25Z" stroke="#172C51" stroke-width="1.33333" stroke-miterlimit="8" fill="#C00000" fill-rule="evenodd" />
		<text fill="#FFFFFF" font-size="11" transform="translate(725.68 105)">Potencial espacial que</text>
		<text fill="#FFFFFF" font-size="11" transform="translate(769.6 118)">sale</text>
		<path d="M872.5 107.334C872.5 98.0367 880.037 90.5001 889.334 90.5001L998.666 90.5001C1007.96 90.5001 1015.5 98.0367 1015.5 107.334L1015.5 174.666C1015.5 183.963 1007.96 191.5 998.666 191.5L889.334 191.5C880.037 191.5 872.5 183.963 872.5 174.666Z" stroke="#172C51" stroke-width="1.33333" stroke-miterlimit="8" fill="#C55A11" fill-rule="evenodd" />
		<text fill="#FFFFFF" font-size="11" transform="translate(895.244 118)">Organizadores de la</text>
		<text fill="#FFFFFF" font-size="11" transform="translate(904.244 131)">Fuerza Decanos</text>
		<text fill="#FFFFFF" font-size="11" transform="translate(889.657 144)">Eventuados</text>
		<text fill="#FFFFFF" font-size="11" transform="translate(949.49 144)">Primarios.</text>
		<text fill="#FFFFFF" font-size="11" transform="translate(897.49 157)">No hacen nada. Su</text>
		<text fill="#FFFFFF" font-size="11" transform="translate(903.657 170)">sola presencia…</text>
		<path d="M874.5 358C874.5 351.097 880.097 345.5 887 345.5L1006 345.5C1012.9 345.5 1018.5 351.097 1018.5 358L1018.5 408C1018.5 414.903 1012.9 420.5 1006 420.5L887 420.5C880.097 420.5 874.5 414.903 874.5 408Z" stroke="#172C51" stroke-width="1.33333" stroke-miterlimit="8" fill="#C55A11" fill-rule="evenodd" />
		<text fill="#FFFFFF" font-size="11" transform="translate(910.767 373)">Organizadores</text>
		<text fill="#FFFFFF" font-size="11" transform="translate(890.601 386)">Primarios de la Fuerza.</text>
		<text fill="#FFFFFF" font-size="11" transform="translate(897.014 399)">La transforman en…</text>
		<path d="M511.5 668.5 444.971 668.5C369.46 668.5 308.247 607.287 308.247 531.776L308.247 376.072 270.5 376.072 330.75 272.5 391 376.072 353.254 376.072 353.254 531.776C353.254 582.43 394.317 623.493 444.971 623.493L511.5 623.493Z" stroke="#172C51" stroke-width="1.33333" stroke-miterlimit="8" fill="#92D050" fill-rule="evenodd" />
		<path d="M966.5 548.5 966.5 569.045C966.5 620.641 924.674 662.467 873.078 662.467L731.5 662.468 731.5 676.5 667.5 637.277 731.5 598.054 731.5 612.087 873.078 612.087C896.849 612.087 916.119 592.817 916.119 569.046L916.119 548.5Z" stroke="#172C51" stroke-width="1.33333" stroke-miterlimit="8" fill="#F4B183" fill-rule="evenodd" />
		<path d="M711.766 606.503 509.778 381.172 514.246 377.167 716.234 602.498ZM507.313 387.411 502 368 520.716 375.396Z" fill="#002060" />
		<path d="M3-1.06694e-06 3.0001 280.2-2.9999 280.2-3 1.06694e-06ZM9.0001 277.2 0.000104987 295.2-8.9999 277.2Z" fill="#002060" transform="matrix(1 0 0 -1 730 592.2)" />
		<path d="M710.533 605.484 680.552 508.218 686.285 506.451 716.267 603.716ZM675.702 512.852 679 493 692.903 507.55Z" fill="#002060" />
		<text font-size="11" transform="translate(982.833 588)">Poco a poco</text>
		<text font-size="11" transform="translate(982.833 601)">comienza a</text>
		<text font-size="11" transform="translate(982.833 614)">r</text>
		<text font-size="11" transform="translate(986.333 614)">esponder
			a la</text>
		<text font-size="11" transform="translate(982.833 627)">gravedad</text>
		<text font-size="11" transform="translate(982.833 640)">circular del</text>
		<text font-size="11" transform="translate(982.833 652)">Paraíso.</text>
		<text font-size="11" transform="translate(1025.83 652)">Ya</text>
		<text font-size="11" transform="translate(1042 652)">en</text>
		<text font-size="11" transform="translate(1057 652)">el</text>
		<text font-size="11" transform="translate(982.833 665)">Espacio</text>
		<text font-size="11" transform="translate(739.867 441)">Es direccional.</text>
		<text font-size="11" transform="translate(739.867 454)">Movida</text>
		<text font-size="11" transform="translate(777.367 454)">por</text>
		<text font-size="11" transform="translate(795.867 454)">la</text>
		<text font-size="11" transform="translate(807.2 454)">masa.</text>
		<text font-size="11" transform="translate(739.867 467)">Tensionada</text>
		<text font-size="11" transform="translate(799.033 467)">poderosamente</text>
		<text font-size="11" transform="translate(739.867 480)">De reacción forzada.</text>
		<text font-size="11" transform="translate(739.867 493)">Al</text>
		<text font-size="11" transform="translate(752.367 493)">principio</text>
		<text font-size="11" transform="translate(795.2 493)">no</text>
		<text font-size="11" transform="translate(810.2 493)">responde</text>
		<text font-size="11" transform="translate(858.033 493)">a</text>
		<text font-size="11" transform="translate(867.033 493)">la</text>
		<text font-size="11" transform="translate(739.867 505)">gravedad
			del Paraíso.</text>
		<text font-size="11" transform="translate(739.867 531)">Después poco a poco
			comienza</text>
		<text font-size="11" transform="translate(739.867 544)">a</text>
		<text font-size="11" transform="translate(748.867 544)">responder</text>
		<text font-size="11" transform="translate(800.2 544)">a</text>
		<text font-size="11" transform="translate(809.2 544)">la</text>
		<text font-size="11" transform="translate(820.533 544)">gravedad</text>
		<text font-size="11" transform="translate(868.367 544)">del</text>
		<text font-size="11" transform="translate(739.867 557)">Paraíso
			y actúa sobre ella los</text>
		<text font-size="11" transform="translate(739.867 569)">Organizadores</text>
		<text font-size="11" transform="translate(813.2 569)">de</text>
		<text font-size="11" transform="translate(828.2 569)">la</text>
		<text font-size="11" transform="translate(839.533 569)">Fuerza</text>
		<text font-size="11" transform="translate(739.867 582)">decanos Asociados</text>
		<text font-size="11" transform="translate(739.867 595)">Trascendentales</text>
		<text font-size="11" transform="translate(362.917 432)">21 de 30
			Fases de energía las</text>
		<text font-size="11" transform="translate(362.917 445)">controlan</text>
		<text font-size="11" transform="translate(410.084 445)">en</text>
		<text font-size="11" transform="translate(425.084 445)">mayor</text>
		<text font-size="11" transform="translate(457.75 445)">o</text>
		<text font-size="11" transform="translate(466.75 445)">menor
			medida</text>
		<text font-size="11" transform="translate(362.917 458)">los</text>
		<text font-size="11" transform="translate(379.584 458)">DIRECTORES</text>
		<text font-size="11" transform="translate(452.584 458)">DEL</text>
		<text font-size="11" transform="translate(476.417 458)">PODER</text>
		<text font-size="11" transform="translate(362.917 471)">UNIVERSAL</text>
		<text font-size="11" transform="translate(520.326 508)">Es el nivel funcional</text>
		<text font-size="11" transform="translate(520.326 521)">en</text>
		<text font-size="11" transform="translate(535.326 521)">los</text>
		<text font-size="11" transform="translate(551.993 521)">universos</text>
		<text font-size="11" transform="translate(600.826 521)">del</text>
		<text font-size="11" transform="translate(520.326 534)">tiempo
			y del espacio.</text>
		<text font-size="11" transform="translate(520.326 560)">Caen dentro de las</text>
		<text font-size="11" transform="translate(520.326 572)">actividades</text>
		<text font-size="11" transform="translate(576.993 572)">del</text>
		<text font-size="11" transform="translate(520.326 585)">Séptuple, bajo el</text>
		<text font-size="11" transform="translate(520.326 598)">control</text>
		<text font-size="11" transform="translate(555.493 598)">del</text>
		<text font-size="11" transform="translate(572.826 598)">Supremo</text>
		<text font-size="11" transform="translate(737.668 626)">Energía</text>
		<text font-size="11" transform="translate(737.668 639)">emergente</text>
		<text font-size="11" transform="translate(792.002 639)">de</text>
		<text font-size="11" transform="translate(737.668 652)">gravedad</text>
	</g>
</svg>